<?xml version="1.0" encoding="utf-8"?>
<!-- Generator: Adobe Illustrator 26.3.1, SVG Export Plug-In . SVG Version: 6.00 Build 0)  -->
<svg version="1.1" id="Group_215" xmlns="http://www.w3.org/2000/svg" xmlns:xlink="http://www.w3.org/1999/xlink" x="0px" y="0px"
	 viewBox="0 0 292.1 403.7" style="enable-background:new 0 0 292.1 403.7;" xml:space="preserve">
<style type="text/css">
	.st0{fill:#3A3838;}
	.st1{fill:#262626;}
	.st2{fill:#7C5C47;}
	.st3{fill:#634839;}
	.st4{fill:#BC906F;}
	.st5{fill:#6C4A36;}
	.st6{fill:#EAE4E1;}
	.st7{fill:#282625;}
	.st8{fill:#FDC675;}
	.st9{fill:none;stroke:#FDC675;stroke-miterlimit:10;}
	.st10{font-family:'Flyover';}
	.st11{font-size:82.2681px;}
	.st12{font-size:64.3465px;}
</style>
<g>
	<g id="Mask_Group_214">
		<path id="Path_3576" class="st0" d="M271.8,126.8c-1.8-4.3-4.2-8.3-7.2-11.9c-5.4-6.5-11.8-12.1-19.1-16.5
			c-9-5.6-18.6-10.2-28.6-13.6c-2.1-0.7-4.2-1.4-6-2c-0.1-0.9-0.3-1.8-0.6-2.7c-1.5-2.4-3.1-4.8-4.9-7c-7.5-9.4-17.4-16.5-28.7-20.5
			c-16.3-6.2-34-7.4-51-3.5c-11.9,2.4-23.1,7.7-32.6,15.3c-6,4.7-11,10.7-14.5,17.5c-0.4,0.9-1.2,1.6-2.1,1.9
			c-6.4,2-12.6,4.5-18.6,7.5c-8.2,3.9-15.9,8.9-22.7,14.8c-6.1,5.2-11.1,11.6-14.5,18.9c-3.2,7-4.2,14.8-2.8,22.3
			c1.3,6.7,4.2,13,8.4,18.4c6.5,8.8,15.1,14.9,24.7,19.7c0.5,0.2,0.9,0.4,1.4,0.5c0.8,0.3,1.7,0.6,2.6,0.7c0.3-0.1,1.3,0.1,1.4-0.2
			c0-0.5-0.2-1-0.5-1.3c-0.4-0.4-2.9-1.2-3.4-1.5c-5.7-3.4-11.2-7-16-11.6c-5-4.9-9.4-10.2-12.4-16.6c-4.1-8.6-4.5-18.5-0.9-27.4
			c1.5-3.9,3.6-7.5,6.2-10.8c4.3-5.5,9.4-10.2,15.1-14.2c9.1-6.3,19-11.3,29.4-14.9c19.2-6.9,39.1-10.3,59.4-11.3
			c20.4-1.1,40.8,0.5,60.7,4.8c13.4,2.8,26.4,7.2,38.7,13.2c8.4,4.1,16.2,9.3,23.1,15.6c4.7,4.2,8.6,9.3,11.6,14.9
			c2.3,4.3,3.6,9,4,13.9c0.4,7.3-1.4,14.5-5.2,20.8c-3,5-6.8,9.6-11.3,13.4c-7.6,6.7-18.8,12.1-28.1,16c-0.7,0.4-1.4,0.8-2,1.3
			c-1.1,0.9-2.1,2-1.8,2.7c0.5,1.2,3.4,0.9,4.7,0.3c1.2-0.6,5.8-2.1,7-2.7c7.1-3.5,13.8-7.8,20-12.8c6.8-5.6,12.5-12.1,16.4-20.1
			C275.9,148.4,276.2,136.9,271.8,126.8 M80.7,82.3c0.6-0.9,0.9-1.5,1.3-2c6.6-9.7,15.7-17.4,26.4-22.3c13.5-6.5,28.6-9.3,43.5-8.1
			c13.1,0.8,25.9,4.9,37,11.9c7.1,4.4,13.1,10.3,17.6,17.4c0.5,0.7,0.8,1.5,1.3,2.6C165.2,70.5,123.1,70.5,80.7,82.3"/>
		<path id="Path_3577" class="st1" d="M207.8,81.8c-42.6-11.3-84.7-11.3-127.2,0.5c0.6-0.9,0.9-1.5,1.3-2
			c6.6-9.7,15.7-17.4,26.4-22.3c13.5-6.5,28.6-9.3,43.5-8.1c13.1,0.8,25.9,4.9,37,11.9c7.1,4.4,13.1,10.3,17.6,17.4
			C206.9,79.9,207.3,80.7,207.8,81.8"/>
		<path id="Path_3578" class="st2" d="M246.5,160.7c-1.4-4.4-5.6-7.2-10.2-6.8c-0.6,0.1-1.2,0.1-1.9,0.2c-0.4-2.3-0.7-4.5-1.1-6.6
			c-2.8-12.9-9.3-23.7-18.4-33.1c-0.7-0.7-6.3-5.1-7.1-5.6c-3.8-2.4-3.9-2.6-10.1-6.5c-9.4-5.1-16.5-6.7-27.5-9.2
			c-5.9-1.2-11.8-2-17.8-2.1c-12.5-0.6-25.1,0.7-37.3,3.9c-0.5,0.2-1.1,0.3-1.7,0.3c-2.7,0.9-8.7,2.8-10.5,3.6
			c-6.5,3.1-8.3,3.6-14,8c-4.6,3.5-8.9,7.2-13.1,11.1c-9.5,9.1-16.7,19.8-20.6,32.5c-0.1,0.3-0.3,0.6-0.5,0.9
			c-2.1-0.8-2.2-0.9-3.6-0.5c-2.6,0.6-5,1.8-7.1,3.4c-1.7,1.2-2.6,3.2-2.4,5.3c0.1,2.3,0.9,4.5,2.3,6.3c0.8,1.1,1.9,1.9,3.2,2.3
			c1.8,0.5,3.7,0.5,5.6,0.1c0.1,5.8,1.2,11.5,3.2,16.9c0.2,0.5,0.3,0.9,0.5,1.3c4.4,11.2,12,19.9,21.8,26.7
			c14.7,10.2,31.3,14.6,49,15.8c6.2,0.4,12.3-0.3,18.4,0.2s12.3-0.6,18.4-1.8c18.4-3.5,35-11,49.3-23.4l0.7-0.6l2.5-2.3
			c0.4-0.5,0.9-1,1.3-1.4c1-1.2,2-2.4,3-3.6c0.7-0.9,1.4-1.8,2.1-2.7c0.6-0.9,1.2-1.8,1.8-2.7c3.9-5.8,6.6-12.2,8.2-19
			c0.1,0.4,2,0.3,2.5,0.4c0.7,0.2,1.5,0.2,2.2-0.1c3.2-0.9,6-2.8,7.9-5.5C246.9,165,247.3,162.7,246.5,160.7 M54,155.5
			c-0.9,4.1-1.3,8.4-1.2,12.6c-0.5-0.1-1.1-0.3-1.7-0.3c-0.2-0.1-0.5-0.2-0.7-0.2c-2.3-0.3-4.2-2-4.8-4.3c-0.3-1-0.6-2.1-0.8-3.1
			c-0.4-1.5,0.2-3,1.5-3.8c1.7-1.1,3.6-2.1,5.4-3c0.8-0.4,1.8-0.4,2.6,0.2C54.3,154.1,54.2,154.8,54,155.5 M231.9,163.2
			c-0.4,6.1-1.9,12-4.4,17.6c-0.3,0.6-0.5,1.2-0.8,1.8c0,0.1-0.1,0.2-0.2,0.4c-0.3,0.6-0.6,1.1-0.9,1.7v0.1c-0.3,0.5-0.5,1-0.8,1.5
			c-0.1,0.2-0.2,0.4-0.3,0.6c-0.7,1.1-1.3,2.3-2.1,3.4c-0.4,0.6-0.8,1.1-1.2,1.7l0,0c-0.4,0.5-0.8,1.1-1.2,1.6
			c-0.1,0.1-0.1,0.2-0.2,0.2c-0.4,0.5-0.8,1-1.2,1.5c0,0,0,0,0,0.1c-0.6,0.7-1.2,1.4-1.8,2.2s-1.2,1.4-1.9,2.1l-3.2,3.1
			c-0.8,0.8-1.3,1.2-1.7,1.7c-7.7,6.9-16.7,12.3-26.5,15.8c-11.1,4.1-22.8,6.5-34.7,6.9c-0.7,0-1.9,0.1-2.6,0c-0.9-0.1-3.6,0-4.5,0
			c-5,0.1-7.6,0.1-12.5-0.1c-16.9-0.7-32.9-4.8-47.3-14c-7.8-4.8-14.4-11.4-19.2-19.2c-7.1-11.2-9.5-24.7-6.6-37.7
			c0.1-0.4,0.2-0.7,0.2-1.1c0.5-2.4,1.2-4.7,2-7c3.2-9,8.3-17.2,14.9-24.1c3-3.3,6.2-6.4,9.7-9.2c5.4-4.3,11-8.4,17.4-11.3
			c6.7-3,13.8-5.3,21-6.8c9.7-2,19.6-2.9,29.5-2.5c14.5,0.5,28.5,3.1,41.9,9c8.3,3.5,15.8,8.8,21.8,15.6c1.5,1.8,3.2,3.3,4.8,5
			c0.3,0.3,0.5,0.6,0.7,0.9c7.8,10.6,12.1,22.4,11.9,35.7v0.2C232,161.4,231.9,162.3,231.9,163.2L231.9,163.2z M243.4,164.9
			c-0.5,0.6-1,1.1-1.6,1.6c-1.8,1.6-4,2.7-6.3,3.3c-0.9,0.3-1.8,0.9-2.4,1.7c0.9-4,1.4-8.1,1.4-12.2c0-0.5,0.1-1.1,0.1-1.6
			c1.1-0.3,2.2-0.5,3.3-0.5c2.6,0.2,4.8,1.8,5.8,4.2C244.4,162.5,244.2,163.9,243.4,164.9"/>
		<path id="Path_3579" class="st3" d="M230.9,160.4c-1-4.8-4.7-6.8-8.8-8.1c-1.5-0.4-3.1-0.2-4.4,0.4c-2.4,0.9-4.3,2.8-5.3,5.1
			c-0.5,1.1-0.9,2.2-1.3,3.3c-2.4,5.6-6.7,8.6-12.7,8.7c-5.7,0.1-11.3-1.2-16.4-3.9c-0.8-0.5-1.7-0.9-2.5-1.3c-1-0.4-1.6-0.1-1.7,1
			c-0.1,0.7-0.1,1.5-0.1,2.3c0,1.7,0.1,3.4,0.1,5.1c0,3.3-1.1,6.5-3.1,9.1c-2.9,3.9-6.7,5.5-11.4,4.6c-4-0.8-8-1.8-12-2.6
			c-1.3-0.3-2.6-0.4-3.9-0.7c-0.9-0.2-1.7-0.4-2.5-0.6c-2.7-0.8-4.3,0-5,2.7c-0.3,1.5-0.4,3-0.3,4.5c0.2,3.6-1.7,5.3-5.3,4.9
			c-4.4-0.4-8.2-3-10.3-6.9c-2.9-5.3-6.8-10-10.5-14.8c-0.7-1.1-1.9-2-3.1-2.4c-0.2,0.4-0.4,0.8-0.7,1.1c-1.9,2.3-4.1,4.3-6.6,5.8
			c-2.3,1.6-5.3,2-8,1.2c-6.6-1.9-10.6-6.6-11.2-13.4c-0.2-1.9-0.2-3.9-0.2-5.9c0.2-2.5-0.9-4.9-2.9-6.5c-1.3-1-2.6-2-3.9-3
			c-1.8-1.2-4-1.6-6.2-1.1c-2.8,0.5-10.8,4.8-12.8,7c-0.2,0.2-0.4,0.3-0.6,0.4c-0.1,0-0.2,0.1-0.4,0.1c-0.3-0.2-0.5-0.4-0.6-0.7
			c-2.8,12.9-0.5,26.5,6.6,37.7c4.9,7.8,11.4,14.4,19.2,19.2c14.4,9.2,30.4,13.3,47.3,14c5,0.2,7.5,0.2,12.5,0.1
			c0.9,0,3.6-0.1,4.5,0c0.7,0.1,1.9,0,2.6,0c11.9-0.4,23.6-2.8,34.7-6.9c9.7-3.5,18.7-8.9,26.4-15.8c0.5-0.4,0.9-0.9,1.7-1.7
			l3.2-3.1c5.2-5.5,9.4-11.9,12.5-18.8c2.5-5.6,4-11.5,4.4-17.6l0,0C231.8,163,230.9,160.6,230.9,160.4 M215.5,178.3
			c-1.1,2.2-2.4,4.4-3.7,6.5c-3.9,5.5-8.8,10.3-14.4,14c-0.6,0.4-1.1,0.9-1.7,1.4l0,0c-0.5,0.2-0.9,0.4-1.3,0.6
			c-10,6.2-21,10-32.5,12.2c-8.5,1.6-17.1,2.2-25.8,1.9c-14.9-0.6-29.1-3.7-42.4-10.6c-8.3-4.3-15.5-9.9-21.1-17.4
			c-0.5-0.7-1-1.4-1.5-2.2c-0.6-0.8-0.5-2,0.3-2.6l0.1-0.1c0.8-0.5,1.6-0.3,2.5,0.7c0.1,0.1,0.2,0.3,0.3,0.5
			c5.5,8,12.9,13.7,21.4,18.2c8.6,4.5,17.9,7.5,27.5,9.1c9.9,1.7,20,2.1,29.9,1.1c14.2-1.4,27.6-5.3,39.8-12.7
			c8.8-5.4,16-12.4,20.6-21.8c0.2-0.5,0.5-0.9,0.8-1.2c0.2-0.2,0.8-0.4,1-0.3c0.3,0.2,0.6,0.6,0.6,1
			C216,177.1,215.8,177.7,215.5,178.3"/>
		<path id="Path_3580" class="st4" d="M220.1,124.5c-0.2-0.3-0.4-0.6-0.7-0.9c-1.6-1.7-3.3-3.3-4.8-5c-6-6.8-13.4-12.1-21.8-15.6
			c-13.3-5.9-27.4-8.5-41.9-9c-9.9-0.4-19.8,0.5-29.5,2.5c-7.2,1.5-14.2,3.8-21,6.8c-6.4,2.9-12,7-17.4,11.3
			c-3.5,2.8-6.7,5.9-9.7,9.2c-6.6,6.9-11.6,15.2-14.9,24.1c-0.8,2.3-1.5,4.6-2,7c0.2-0.3,0.6-0.6,0.8-0.8
			c3.8-4.2,15.5-10.4,21.5-5.3c1.7,1.4,3.5,2.7,5.1,4.2c1.4,1.3,2.2,3.2,2.2,5.1c0.1,2,0.1,4,0.3,6c0.1,1.3,0.3,2.5,0.6,3.7
			c1.3,5,5,7.5,9.7,8.7c1.6,0.4,3.2,0.1,4.5-0.8c2.4-1.4,4.6-3.2,6.4-5.3c2-2.5,3.9-2.6,6.2-0.4c0.3,0.3,0.6,0.5,0.8,0.8
			c3.7,4.7,7.7,9.2,10.6,14.5c0.6,1.2,1.4,2.3,2.2,3.3c1.7,2.2,4.2,3.6,6.9,3.9c0.6,0.1,1.1,0,1.7-0.1c1.1-0.2,1.3-0.6,1.3-1.7
			c-0.1-1.3-0.1-2.5-0.1-3.8c0.1-1.1,0.3-2.1,0.7-3.1c1.5-3.7,3.7-4.3,6.3-3.8c3,0.6,5.8,1.5,8.8,2.1c4,0.9,8,1.6,12,2.3
			c2.4,0.4,4.7-0.5,6.3-2.2c2.6-2.4,4-5.8,4.1-9.3c0-2.1-0.1-4.2-0.1-6.2c0-4.3,2.3-5.7,6.2-3.8c3.7,2,7.6,3.3,11.8,4
			c2.2,0.3,4.4,0.4,6.6,0.2c3.6-0.2,6.7-2.3,8.3-5.5c0.7-1.3,1.2-2.8,1.8-4.2c1.5-3.9,4.9-6.8,9-7.5c1-0.2,2.1-0.2,3.2,0
			c3.2,0.7,6.1,2.5,8.2,5.1c1,1.5,1.7,3.2,1.9,5C232.2,147,227.9,135.1,220.1,124.5 M118.7,115.9c-1.3,0.8-2.7,1.5-4.2,2
			c-3.6,1-7.4,1.5-11.2,1.3c-1,0.1-1.9-0.2-2.7-0.8c0.4-0.5,0.7-1,1.1-1.4c0.4-0.6,0.8-1.1,1.3-1.6c3.9-2.9,8.2-4.7,13.2-4.5
			c0.6,0,1.2,0.1,1.9,0.3c1,0.2,1.8,1.1,1.9,2.1C120,114.4,119.6,115.4,118.7,115.9 M151.8,169.4c-0.3,2.1-1.7,3.8-3.7,4.4
			c-2.8,0.9-5.7,1.2-8.6,0.9c-1.6-0.1-3.1-0.1-4.7-0.3c-0.9-0.1-1.7-0.3-2.5-0.7c-1.4-0.6-2-2.1-1.6-3.5c0.4-1.7,0.8-3.4,1.4-5.1
			c1.3-3.3,2.7-6.5,4.1-9.8c0.3-0.6,0.5-1.5,1.4-1.2s0.5,1.2,0.3,1.8c-0.9,2.7-1.8,5.4-2.6,8.1c-0.6,1.8-1,3.6-1.5,5.4
			c-0.1,0.5-0.1,1-0.2,1.5c0.3,0.1,0.6,0.2,1,0.3c3.1,0.1,6.2,0.3,9.2,0.4c1.1,0,2.2-0.2,3.3-0.5c0.9-0.2,1.6-0.8,1.9-1.7
			c0.4-1-0.1-1.7-1.1-1.5c-0.6,0.1-1.2,0.3-1.8,0.5c-0.6-1.8,0.2-3,2-3.2c1.9-0.2,3.5,1.2,3.7,3
			C151.9,168.8,151.9,169.1,151.8,169.4 M197.4,118.5c-2.1,0.4-4.3,0.3-6.3-0.5c-1.2-0.4-2.3-1-3.4-1.5c-0.5-0.2-1-0.3-1.7-0.6
			c-0.1-0.2-0.1-0.3-0.2-0.5c-1-2.2-0.2-3.7,2.1-4c0.9-0.2,1.9-0.2,2.8,0c1.7,0.4,3.3,0.8,4.9,1.3c1.3,0.4,2.5,1.3,3.2,2.5
			C199.6,116.9,199.2,118,197.4,118.5"/>
		<path id="Path_3581" class="st4" d="M54.4,153.5c-0.1,0.6-0.2,1.3-0.4,2c-0.9,4.1-1.3,8.4-1.2,12.6c-0.5-0.1-1.1-0.3-1.7-0.3
			c-0.2-0.1-0.5-0.2-0.7-0.2c-2.3-0.3-4.2-2-4.8-4.3c-0.3-1-0.6-2.1-0.8-3.1c-0.4-1.5,0.2-3,1.5-3.8c1.7-1.1,3.6-2.1,5.4-3
			C52.6,152.8,53.6,152.9,54.4,153.5"/>
		<path id="Path_3582" class="st1" d="M53.1,168.2c-0.1,0-0.2,0.1-0.3,0.1v-0.2C52.9,168.1,53,168.1,53.1,168.2"/>
		<path id="Path_3583" class="st1" d="M233,171.8c0-0.1,0-0.2,0.1-0.3C233.1,171.6,233.1,171.7,233,171.8"/>
		<path id="Path_3584" class="st4" d="M243.3,164.9c-0.5,0.6-1,1.1-1.6,1.6c-1.8,1.6-4,2.7-6.3,3.3c-0.9,0.3-1.8,0.9-2.4,1.7
			c0.9-4,1.4-8.1,1.4-12.2c0-0.5,0.1-1.1,0.1-1.6c1.1-0.3,2.2-0.5,3.3-0.5c2.6,0.2,4.8,1.8,5.8,4.2
			C244.4,162.5,244.2,163.9,243.3,164.9"/>
		<path id="Path_3585" class="st1" d="M266.2,160.1c-3,5-6.8,9.6-11.3,13.4c-7.6,6.7-18.8,12.1-28.1,16c-0.7,0.4-1.4,0.8-2,1.3
			c3.9-5.8,6.6-12.2,8.2-19c0.1,0.4,2,0.3,2.5,0.4c0.7,0.2,1.5,0.2,2.2-0.1c3.2-0.9,6-2.8,7.9-5.5c1.3-1.7,1.6-3.9,0.9-5.9
			c-1.4-4.4-5.6-7.2-10.2-6.8c-0.6,0.1-1.2,0.1-1.9,0.2c-0.4-2.3-0.7-4.5-1.1-6.6c-2.8-12.9-9.3-23.7-18.4-33.1
			c-0.7-0.7-6.3-5.1-7.1-5.6c-3.8-2.4-3.9-2.6-10.1-6.5c-9.4-5.1-16.5-6.7-27.5-9.2c-5.9-1.2-11.8-2-17.8-2.1
			c-12.5-0.6-25.1,0.7-37.3,3.9c-0.5,0.2-1.1,0.3-1.7,0.3c-2.7,0.9-8.7,2.8-10.5,3.6c-6.5,3.1-8.3,3.6-14,8
			c-4.6,3.5-8.9,7.2-13.1,11.1c-9.5,9.1-16.7,19.8-20.6,32.5c-0.1,0.3-0.3,0.6-0.5,0.9c-2.1-0.8-2.2-0.9-3.6-0.5
			c-2.6,0.6-5,1.8-7.1,3.4c-1.7,1.2-2.6,3.2-2.4,5.3c0.1,2.3,0.9,4.5,2.3,6.3c0.8,1.1,1.9,1.9,3.2,2.3c1.8,0.5,3.7,0.5,5.6,0.1
			c0.1,5.8,1.2,11.5,3.1,16.9c-0.4-0.4-2.9-1.2-3.4-1.5c-5.7-3.4-11.2-7-16-11.6c-5-4.9-9.4-10.2-12.4-16.6
			c-4.1-8.6-4.5-18.5-0.9-27.4c1.5-3.9,3.6-7.5,6.2-10.8c4.3-5.5,9.4-10.2,15.1-14.2c9.1-6.3,19-11.3,29.4-14.9
			c19.2-6.9,39.1-10.3,59.4-11.3c20.4-1.1,40.8,0.5,60.7,4.8c13.4,2.8,26.4,7.2,38.7,13.2c8.4,4.1,16.2,9.3,23.1,15.6
			c4.7,4.2,8.6,9.3,11.6,14.9c2.3,4.3,3.6,9,4,13.9C271.8,146.6,270,153.9,266.2,160.1"/>
		<path id="Path_3586" class="st5" d="M231.9,163.2c-0.1-0.2-1-2.6-1-2.8c-1-4.8-4.7-6.8-8.8-8.1c-1.5-0.4-3.1-0.2-4.4,0.4
			c-2.4,0.9-4.3,2.8-5.3,5.1c-0.5,1.1-0.9,2.2-1.3,3.3c-2.4,5.6-6.7,8.6-12.7,8.7c-5.7,0.1-11.3-1.2-16.4-3.9
			c-0.8-0.5-1.7-0.9-2.5-1.3c-1-0.4-1.6-0.1-1.7,1c-0.1,0.7-0.1,1.5-0.1,2.3c0,1.7,0.1,3.4,0.1,5.1c0,3.3-1.1,6.5-3.1,9.1
			c-2.9,3.9-6.7,5.5-11.4,4.6c-4-0.8-8-1.8-12-2.6c-1.3-0.3-2.6-0.4-3.9-0.7c-0.9-0.2-1.7-0.4-2.5-0.6c-2.7-0.8-4.3,0-5,2.7
			c-0.3,1.5-0.4,3-0.3,4.5c0.2,3.6-1.7,5.3-5.3,4.9c-4.4-0.4-8.2-3-10.3-6.9c-2.9-5.3-6.8-10-10.5-14.8c-0.7-1.1-1.9-2-3.1-2.4
			c-0.2,0.4-0.4,0.8-0.7,1.1c-1.9,2.3-4.1,4.3-6.6,5.8c-2.3,1.6-5.3,2-8,1.2c-6.6-1.9-10.6-6.6-11.2-13.4c-0.2-1.9-0.2-3.9-0.2-5.9
			c0.2-2.5-0.9-4.9-2.9-6.5c-1.3-1-2.6-2-3.9-3c-1.8-1.2-4-1.6-6.2-1.1c-2.8,0.5-10.8,4.8-12.8,7c-0.2,0.2-0.4,0.3-0.6,0.4
			c-0.1,0-0.2,0.1-0.4,0.1c-0.3-0.2-0.5-0.4-0.6-0.7c-0.1-0.2-0.1-0.5,0-0.7c0-0.1,0.1-0.2,0.2-0.3c0.2-0.3,0.6-0.6,0.8-0.8
			c3.8-4.2,15.5-10.4,21.5-5.3c1.7,1.4,3.5,2.7,5.1,4.2c1.4,1.3,2.2,3.2,2.2,5.1c0.1,2,0.1,4,0.3,6c0.1,1.3,0.3,2.5,0.6,3.7
			c1.3,5,5,7.5,9.7,8.7c1.6,0.4,3.2,0.1,4.5-0.8c2.4-1.4,4.6-3.2,6.4-5.3c2-2.5,3.9-2.6,6.2-0.4c0.3,0.3,0.6,0.5,0.8,0.8
			c3.7,4.7,7.7,9.2,10.6,14.5c0.6,1.2,1.4,2.3,2.2,3.3c1.7,2.2,4.2,3.6,6.9,3.9c0.6,0.1,1.1,0,1.7-0.1c1.1-0.2,1.3-0.6,1.3-1.7
			c-0.1-1.3-0.1-2.5-0.1-3.8c0.1-1.1,0.3-2.1,0.7-3.1c1.5-3.7,3.7-4.3,6.3-3.8c3,0.6,5.8,1.5,8.8,2.1c4,0.9,8,1.6,12,2.3
			c2.4,0.4,4.7-0.5,6.3-2.2c2.6-2.4,4-5.8,4.1-9.3c0-2.1-0.1-4.2-0.1-6.2c0-4.3,2.3-5.7,6.2-3.8c3.7,2,7.6,3.3,11.8,4
			c2.2,0.3,4.4,0.4,6.6,0.2c3.6-0.2,6.7-2.3,8.3-5.5c0.7-1.3,1.2-2.8,1.8-4.2c1.5-3.9,4.9-6.8,9-7.5c1-0.2,2.1-0.2,3.2,0
			c3.2,0.7,6.1,2.5,8.2,5.1c1,1.5,1.7,3.2,1.9,5l0,0C232.2,161.2,232.1,162.2,231.9,163.2"/>
		<path id="Path_3587" class="st4" d="M216,176.5c0,0.6-0.2,1.2-0.5,1.8c-1.1,2.2-2.4,4.4-3.7,6.5c-3.9,5.5-8.8,10.3-14.4,14
			c-0.6,0.4-1.1,0.9-1.7,1.4l0,0c-0.5,0.2-0.9,0.4-1.3,0.6c-10,6.2-21,10-32.5,12.2c-8.5,1.6-17.1,2.2-25.8,1.9
			c-14.9-0.6-29.1-3.7-42.4-10.6c-8.3-4.3-15.5-9.9-21.1-17.4c-0.5-0.7-1-1.4-1.5-2.2c-0.6-0.8-0.5-2,0.3-2.6l0.1-0.1
			c0.8-0.5,1.6-0.3,2.5,0.7c0.1,0.1,0.2,0.3,0.3,0.5c5.5,8,12.9,13.7,21.4,18.2c8.6,4.5,17.9,7.5,27.5,9.1c9.9,1.7,20,2.1,29.9,1.1
			c14.2-1.4,27.6-5.3,39.8-12.7c8.8-5.4,16-12.4,20.6-21.8c0.2-0.5,0.5-0.9,0.8-1.2c0.2-0.2,0.8-0.4,1-0.3
			C215.8,175.7,216,176.1,216,176.5"/>
		<path id="Path_3588" class="st2" d="M151.8,169.4c-0.3,2.1-1.7,3.8-3.7,4.4c-2.8,0.9-5.7,1.2-8.6,0.9c-1.6-0.1-3.1-0.1-4.7-0.3
			c-0.9-0.1-1.7-0.3-2.5-0.7c-1.4-0.6-2-2.1-1.6-3.5c0.4-1.7,0.8-3.4,1.4-5.1c1.3-3.3,2.7-6.5,4.1-9.8c0.3-0.6,0.5-1.5,1.4-1.2
			s0.5,1.2,0.3,1.8c-0.9,2.7-1.8,5.4-2.6,8.1c-0.6,1.8-1,3.6-1.5,5.4c-0.1,0.5-0.1,1-0.2,1.5c0.3,0.1,0.6,0.2,1,0.3
			c3.1,0.1,6.2,0.3,9.2,0.4c1.1,0,2.2-0.2,3.3-0.5c0.9-0.2,1.6-0.8,1.9-1.7c0.4-1-0.1-1.7-1.1-1.5c-0.6,0.1-1.2,0.3-1.8,0.5
			c-0.6-1.8,0.2-3,2-3.2c1.9-0.2,3.5,1.2,3.7,3C151.9,168.8,151.9,169.1,151.8,169.4"/>
		<path id="Path_3589" class="st2" d="M119.8,113.5c-0.1-1-0.9-1.9-1.9-2.1c-0.6-0.2-1.2-0.3-1.8-0.3c-5-0.2-9.2,1.6-13.2,4.5
			c-0.5,0.5-0.9,1-1.3,1.6c-0.4,0.5-0.7,0.9-1.1,1.4c0.8,0.5,1.8,0.8,2.7,0.8c3.8,0.2,7.6-0.3,11.2-1.3c1.5-0.5,2.9-1.2,4.2-2
			C119.6,115.4,120,114.4,119.8,113.5"/>
		<path id="Path_3590" class="st2" d="M198.7,115.2c-0.7-1.2-1.8-2.1-3.2-2.5c-1.6-0.5-3.2-1-4.9-1.3c-0.9-0.2-1.9-0.2-2.8,0
			c-2.4,0.4-3.1,1.8-2.1,4c0.1,0.2,0.2,0.4,0.2,0.5c0.7,0.2,1.2,0.3,1.7,0.6c1.1,0.5,2.3,1.1,3.4,1.5c2,0.8,4.2,1,6.3,0.5
			C199.2,118,199.7,116.9,198.7,115.2"/>
		<path id="Path_3591" class="st6" d="M108.8,139.3c-0.3-0.7-0.5-1.5-0.8-2.2s-0.6-1.4-1-2.4h3.3
			C111.7,137.2,111.3,138.4,108.8,139.3"/>
		<path id="Path_3592" class="st7" d="M108.8,139.3c-0.3-0.7-0.5-1.5-0.8-2.2s-0.6-1.4-1-2.4h3.3
			C111.7,137.2,111.3,138.4,108.8,139.3"/>
		<path id="Path_3593" class="st6" d="M189.5,135c-1.2-0.7-1.3-1.8-0.8-3.2c1.5,0.9,3.5,0.6,4.4,2.5
			C192.3,135.5,190.7,135.8,189.5,135"/>
		<path id="Path_3594" class="st7" d="M193.1,134.3c-0.8,1.1-2.4,1.4-3.6,0.7c-1.2-0.7-1.3-1.8-0.8-3.2
			C190.2,132.7,192.3,129.6,193.1,134.3"/>
		<path id="Path_3595" class="st8" d="M218,235.7c-13.5,4.4,4,19.4,4,19.4l0,0c0.1-0.2,5.1-13.7-2.4-19.4"/>
		<path id="Path_3596" class="st9" d="M218.2,236.2c0,0-10.6-25.2-43.3-27.1"/>
	</g>
</g>
<g id="Group_208">
	<text transform="matrix(1 0 0 1 7.8387 299.9902)" class="st8 st10 st11"> Paal’s</text>
</g>
<g id="Group_208_00000107555358572900694350000005184864154392681390_">
	<text transform="matrix(1 0 0 1 34.8431 358.4385)" class="st8 st10 st12">Portfolio</text>
</g>
</svg>
