<?xml version="1.0" encoding="utf-8"?>
<!-- Generator: Adobe Illustrator 26.3.1, SVG Export Plug-In . SVG Version: 6.00 Build 0)  -->
<svg version="1.1" id="Group_215" xmlns="http://www.w3.org/2000/svg" xmlns:xlink="http://www.w3.org/1999/xlink" x="0px" y="0px"
	 viewBox="0 0 292.1 403.7" style="enable-background:new 0 0 292.1 403.7;" xml:space="preserve">
<style type="text/css">
	.st0{enable-background:new    ;}
	.st1{fill:#FDC675;}
	.st2{fill:#3A3838;}
	.st3{fill:#262626;}
	.st4{fill:#7C5C47;}
	.st5{fill:#634839;}
	.st6{fill:#BC906F;}
	.st7{fill:#6C4A36;}
	.st8{fill:#EAE4E1;}
	.st9{fill:#282625;}
	.st10{fill:none;stroke:#FDC675;stroke-miterlimit:10;}
</style>
<g id="Group_208">
	<g class="st0">
		<path class="st1" d="M77,263.6c-2.5,8.5-7.3,16.2-14.5,21.2c-6.3,4.3-14.2,6-21.4,4.3c0.4,5.4,0.9,10.7,1.5,16
			c0.2,1.1-0.9,1.9-1.8,1.9c-1,0-1.6-0.8-1.6-1.9c-0.7-4.4-1.1-9.1-1.6-13.8c-0.1-1.1-0.2-2.1-0.2-3.3c-0.3-0.1-0.7-0.2-0.9-0.2
			c-0.9-0.4-1.2-1.7-0.7-2.6c0.4-0.4,0.7-0.7,1.3-0.8c-0.9-13.9-1.3-27.9-0.7-41.8c0-2.5,3.7-2.5,3.5,0c-0.1,4.6-0.2,9.3-0.2,13.7
			c0,4.1,0.1,8.1,0.2,12.3c1.8-5.5,4.4-10.9,7.8-15.9c4.9-6.9,12-15.1,21.5-13.1C80,241.9,79.3,255.5,77,263.6z M73.6,247.3
			c-1.4-3.3-4.8-4.5-8.3-4.4c-3.7,0.3-7.1,2.9-9.5,5.4c-2.8,3-5.2,6.5-7.3,10c-4.1,7.2-6.7,15.4-7.7,23.7c0,0.2-0.1,0.4-0.1,0.6
			c0,0.9,0.1,1.9,0.1,2.7c7.7,2.2,16-0.3,22-5.3c6-5.3,9.8-12.8,11.4-20.4C74.9,255.9,75.2,251.1,73.6,247.3z"/>
		<path class="st1" d="M120.5,289c5.5-2.9,10-8.6,12.6-13.9c1-2.1,4.2-0.2,3.1,1.9c-3.6,6.9-9.9,13.7-17.6,16.8
			c-10.9,4.4-14.9-4.9-15.1-13.7c-0.8,1.1-1.9,2.5-2.8,3.5c-3.5,3.9-8.3,7.2-13.7,5.9c-2.4-0.6-4.8-2.1-5.8-4.3
			c-1.2-2.5-1.2-5.3-0.3-7.8c3-9.5,14.7-14.3,23.9-11.4c1,0.2,1.4,1.1,1.3,1.9c0.2-0.7,0.4-1.2,0.6-1.8c0.7-2.2,4.1-1.2,3.5,1.1
			C106,276,104.3,297.4,120.5,289z M105.5,269.1c-0.3,0.5-1,0.8-1.8,0.5c-4.2-1.2-8.6-0.8-12.6,1.2c-3.3,1.9-6.2,4.9-7,8.7
			c-0.4,1.7-0.3,3.7,0.9,5c1.2,1.3,3.1,1.8,4.9,1.7c4.2-0.4,7.6-4.4,10-7.5C102.3,275.8,104.2,272.5,105.5,269.1z"/>
		<path class="st1" d="M172,289c5.5-2.9,10-8.6,12.6-13.9c1-2.1,4.2-0.2,3.1,1.9c-3.6,6.9-9.9,13.7-17.6,16.8
			c-10.9,4.4-14.9-4.9-15.1-13.7c-0.8,1.1-1.9,2.5-2.8,3.5c-3.5,3.9-8.3,7.2-13.7,5.9c-2.4-0.6-4.8-2.1-5.8-4.3
			c-1.2-2.5-1.2-5.3-0.3-7.8c3-9.5,14.7-14.3,23.9-11.4c1,0.2,1.4,1.1,1.3,1.9c0.2-0.7,0.4-1.2,0.6-1.8c0.7-2.2,4.1-1.2,3.5,1.1
			C157.6,276,155.9,297.4,172,289z M157.1,269.1c-0.3,0.5-1,0.8-1.8,0.5c-4.2-1.2-8.6-0.8-12.6,1.2c-3.3,1.9-6.2,4.9-7,8.7
			c-0.4,1.7-0.3,3.7,0.9,5c1.2,1.3,3.1,1.8,4.9,1.7c4.2-0.4,7.6-4.4,10-7.5C153.9,275.8,155.8,272.5,157.1,269.1z"/>
		<path class="st1" d="M184.5,277c-0.4-5.8,0.1-11.8,1.1-17.3c0.8-5.1,2.1-10.1,3.9-14.9c1-2.4,2.1-4.9,3.5-7.1
			c1.2-2.1,2.7-4.4,4.6-6.1c2-1.6,4.8-2.8,7.1-1.2c1.9,1,2.5,3.1,2.6,5.1c0.2,2.2-0.5,4.4-1.1,6.6c-0.7,2.5-1.5,4.8-2.4,7.2
			c-3.6,9.4-9,17.9-15.9,25.1c0.1,0.8,0.2,1.6,0.2,2.2c0.5,20.5,19.9,20.1,27.9-1.3c0.3-0.9,1.7-1.1,2.5-0.7
			c0.9,0.6,1.1,1.6,0.7,2.6C208.6,301.3,186.4,301.6,184.5,277z M188.7,263.2c-0.3,2-0.5,3.9-0.6,5.8c5.4-6.5,9.8-14,12.8-22.1
			c0.8-2.1,1.6-4.2,2.1-6.3c0.6-1.8,1-3.8,0.7-5.4c-0.2-1.2-0.7-2.2-2-1.9c-2,0.7-3.3,3-4.4,4.5
			C192.2,245.4,190.1,254.5,188.7,263.2z"/>
		<path class="st1" d="M222.8,240c1,0,1.9,0.8,1.9,1.8c-0.2,2.1-0.1,4.2,0.2,6.3c0.3,2.1-2.9,2.9-3.4,1c-0.5-2.4-0.7-4.8-0.6-7.3
			C221,240.8,221.8,240,222.8,240z"/>
		<path class="st1" d="M266.8,277.6c-4.6,1.9-9.2,4.2-13.5,6.7c-0.7,0.5-1.4,0.9-2.1,1.5c1.9,1.7,3,4.3,3.3,7.1
			c0.5,4.2-1.4,8.2-4.2,11.2c-2.9,3.1-7.2,5.8-11.4,5.1c-4.6-1-6.2-6.1-5.2-10.2c1.2-4.2,4.4-7.8,7.7-10.7c1-0.9,1.9-1.6,2.9-2.3
			c-2.5-0.7-5.3-1-7.9-1.8c-3.3-1.1-6.6-3-7.8-6.6c-1.6-4,0.7-8.5,3.4-11.5c2.4-2.8,5.9-4.8,9.5-5.7c2.4-0.6,3.3,3,1.1,3.5
			c-4.1,0.9-7.7,3.6-9.6,7.3c-1,1.7-1.6,3.9-0.6,5.8c0.8,1.6,2.5,2.5,3.9,3.1c3.8,1.6,7.7,1.6,11.4,3.1c0.2,0,0.2,0.1,0.5,0.1
			c1.6-1.1,3.1-1.9,4.7-2.9c4.4-2.5,8.8-4.7,13.2-6.6c1-0.3,2.1,0.5,2.4,1.4C268.5,276.3,267.7,277.1,266.8,277.6z M248,287.8
			c-2.1,1.4-4.2,3.1-6.1,5.1c-2.3,2.2-5.6,6.1-4.9,9.7c0.2,1.5,1.2,2.9,3,3c1.7,0.2,3.5-0.7,4.9-1.6c3-2,5.4-5.1,6-8.7
			C251.3,292.5,250.2,289.5,248,287.8z"/>
	</g>
</g>
<g>
	<g id="Mask_Group_214">
		<path id="Path_3576" class="st2" d="M271.8,126.8c-1.8-4.3-4.2-8.3-7.2-11.9c-5.4-6.5-11.8-12.1-19.1-16.5
			c-9-5.6-18.6-10.2-28.6-13.6c-2.1-0.7-4.2-1.4-6-2c-0.1-0.9-0.3-1.8-0.6-2.7c-1.5-2.4-3.1-4.8-4.9-7c-7.5-9.4-17.4-16.5-28.7-20.5
			c-16.3-6.2-34-7.4-51-3.5c-11.9,2.4-23.1,7.7-32.6,15.3c-6,4.7-11,10.7-14.5,17.5c-0.4,0.9-1.2,1.6-2.1,1.9
			c-6.4,2-12.6,4.5-18.6,7.5c-8.2,3.9-15.9,8.9-22.7,14.8c-6.1,5.2-11.1,11.6-14.5,18.9c-3.2,7-4.2,14.8-2.8,22.3
			c1.3,6.7,4.2,13,8.4,18.4c6.5,8.8,15.1,14.9,24.7,19.7c0.5,0.2,0.9,0.4,1.4,0.5c0.8,0.3,1.7,0.6,2.6,0.7c0.3-0.1,1.3,0.1,1.4-0.2
			c0-0.5-0.2-1-0.5-1.3c-0.4-0.4-2.9-1.2-3.4-1.5c-5.7-3.4-11.2-7-16-11.6c-5-4.9-9.4-10.2-12.4-16.6c-4.1-8.6-4.5-18.5-0.9-27.4
			c1.5-3.9,3.6-7.5,6.2-10.8c4.3-5.5,9.4-10.2,15.1-14.2c9.1-6.3,19-11.3,29.4-14.9c19.2-6.9,39.1-10.3,59.4-11.3
			c20.4-1.1,40.8,0.5,60.7,4.8c13.4,2.8,26.4,7.2,38.7,13.2c8.4,4.1,16.2,9.3,23.1,15.6c4.7,4.2,8.6,9.3,11.6,14.9
			c2.3,4.3,3.6,9,4,13.9c0.4,7.3-1.4,14.5-5.2,20.8c-3,5-6.8,9.6-11.3,13.4c-7.6,6.7-18.8,12.1-28.1,16c-0.7,0.4-1.4,0.8-2,1.3
			c-1.1,0.9-2.1,2-1.8,2.7c0.5,1.2,3.4,0.9,4.7,0.3c1.2-0.6,5.8-2.1,7-2.7c7.1-3.5,13.8-7.8,20-12.8c6.8-5.6,12.5-12.1,16.4-20.1
			C275.9,148.4,276.2,136.9,271.8,126.8 M80.7,82.3c0.6-0.9,0.9-1.5,1.3-2c6.6-9.7,15.7-17.4,26.4-22.3c13.5-6.5,28.6-9.3,43.5-8.1
			c13.1,0.8,25.9,4.9,37,11.9c7.1,4.4,13.1,10.3,17.6,17.4c0.5,0.7,0.8,1.5,1.3,2.6C165.2,70.5,123.1,70.5,80.7,82.3"/>
		<path id="Path_3577" class="st3" d="M207.8,81.8c-42.6-11.3-84.7-11.3-127.2,0.5c0.6-0.9,0.9-1.5,1.3-2
			c6.6-9.7,15.7-17.4,26.4-22.3c13.5-6.5,28.6-9.3,43.5-8.1c13.1,0.8,25.9,4.9,37,11.9c7.1,4.4,13.1,10.3,17.6,17.4
			C206.9,79.9,207.3,80.7,207.8,81.8"/>
		<path id="Path_3578" class="st4" d="M246.5,160.7c-1.4-4.4-5.6-7.2-10.2-6.8c-0.6,0.1-1.2,0.1-1.9,0.2c-0.4-2.3-0.7-4.5-1.1-6.6
			c-2.8-12.9-9.3-23.7-18.4-33.1c-0.7-0.7-6.3-5.1-7.1-5.6c-3.8-2.4-3.9-2.6-10.1-6.5c-9.4-5.1-16.5-6.7-27.5-9.2
			c-5.9-1.2-11.8-2-17.8-2.1c-12.5-0.6-25.1,0.7-37.3,3.9c-0.5,0.2-1.1,0.3-1.7,0.3c-2.7,0.9-8.7,2.8-10.5,3.6
			c-6.5,3.1-8.3,3.6-14,8c-4.6,3.5-8.9,7.2-13.1,11.1c-9.5,9.1-16.7,19.8-20.6,32.5c-0.1,0.3-0.3,0.6-0.5,0.9
			c-2.1-0.8-2.2-0.9-3.6-0.5c-2.6,0.6-5,1.8-7.1,3.4c-1.7,1.2-2.6,3.2-2.4,5.3c0.1,2.3,0.9,4.5,2.3,6.3c0.8,1.1,1.9,1.9,3.2,2.3
			c1.8,0.5,3.7,0.5,5.6,0.1c0.1,5.8,1.2,11.5,3.2,16.9c0.2,0.5,0.3,0.9,0.5,1.3c4.4,11.2,12,19.9,21.8,26.7
			c14.7,10.2,31.3,14.6,49,15.8c6.2,0.4,12.3-0.3,18.4,0.2s12.3-0.6,18.4-1.8c18.4-3.5,35-11,49.3-23.4l0.7-0.6l2.5-2.3
			c0.4-0.5,0.9-1,1.3-1.4c1-1.2,2-2.4,3-3.6c0.7-0.9,1.4-1.8,2.1-2.7c0.6-0.9,1.2-1.8,1.8-2.7c3.9-5.8,6.6-12.2,8.2-19
			c0.1,0.4,2,0.3,2.5,0.4c0.7,0.2,1.5,0.2,2.2-0.1c3.2-0.9,6-2.8,7.9-5.5C246.9,165,247.3,162.7,246.5,160.7 M54,155.5
			c-0.9,4.1-1.3,8.4-1.2,12.6c-0.5-0.1-1.1-0.3-1.7-0.3c-0.2-0.1-0.5-0.2-0.7-0.2c-2.3-0.3-4.2-2-4.8-4.3c-0.3-1-0.6-2.1-0.8-3.1
			c-0.4-1.5,0.2-3,1.5-3.8c1.7-1.1,3.6-2.1,5.4-3c0.8-0.4,1.8-0.4,2.6,0.2C54.3,154.1,54.2,154.8,54,155.5 M231.9,163.2
			c-0.4,6.1-1.9,12-4.4,17.6c-0.3,0.6-0.5,1.2-0.8,1.8c0,0.1-0.1,0.2-0.2,0.4c-0.3,0.6-0.6,1.1-0.9,1.7v0.1c-0.3,0.5-0.5,1-0.8,1.5
			c-0.1,0.2-0.2,0.4-0.3,0.6c-0.7,1.1-1.3,2.3-2.1,3.4c-0.4,0.6-0.8,1.1-1.2,1.7l0,0c-0.4,0.5-0.8,1.1-1.2,1.6
			c-0.1,0.1-0.1,0.2-0.2,0.2c-0.4,0.5-0.8,1-1.2,1.5c0,0,0,0,0,0.1c-0.6,0.7-1.2,1.4-1.8,2.2s-1.2,1.4-1.9,2.1l-3.2,3.1
			c-0.8,0.8-1.3,1.2-1.7,1.7c-7.7,6.9-16.7,12.3-26.5,15.8c-11.1,4.1-22.8,6.5-34.7,6.9c-0.7,0-1.9,0.1-2.6,0c-0.9-0.1-3.6,0-4.5,0
			c-5,0.1-7.6,0.1-12.5-0.1c-16.9-0.7-32.9-4.8-47.3-14c-7.8-4.8-14.4-11.4-19.2-19.2c-7.1-11.2-9.5-24.7-6.6-37.7
			c0.1-0.4,0.2-0.7,0.2-1.1c0.5-2.4,1.2-4.7,2-7c3.2-9,8.3-17.2,14.9-24.1c3-3.3,6.2-6.4,9.7-9.2c5.4-4.3,11-8.4,17.4-11.3
			c6.7-3,13.8-5.3,21-6.8c9.7-2,19.6-2.9,29.5-2.5c14.5,0.5,28.5,3.1,41.9,9c8.3,3.5,15.8,8.8,21.8,15.6c1.5,1.8,3.2,3.3,4.8,5
			c0.3,0.3,0.5,0.6,0.7,0.9c7.8,10.6,12.1,22.4,11.9,35.7v0.2C232,161.4,231.9,162.3,231.9,163.2L231.9,163.2z M243.4,164.9
			c-0.5,0.6-1,1.1-1.6,1.6c-1.8,1.6-4,2.7-6.3,3.3c-0.9,0.3-1.8,0.9-2.4,1.7c0.9-4,1.4-8.1,1.4-12.2c0-0.5,0.1-1.1,0.1-1.6
			c1.1-0.3,2.2-0.5,3.3-0.5c2.6,0.2,4.8,1.8,5.8,4.2C244.4,162.5,244.2,163.9,243.4,164.9"/>
		<path id="Path_3579" class="st5" d="M230.9,160.4c-1-4.8-4.7-6.8-8.8-8.1c-1.5-0.4-3.1-0.2-4.4,0.4c-2.4,0.9-4.3,2.8-5.3,5.1
			c-0.5,1.1-0.9,2.2-1.3,3.3c-2.4,5.6-6.7,8.6-12.7,8.7c-5.7,0.1-11.3-1.2-16.4-3.9c-0.8-0.5-1.7-0.9-2.5-1.3c-1-0.4-1.6-0.1-1.7,1
			c-0.1,0.7-0.1,1.5-0.1,2.3c0,1.7,0.1,3.4,0.1,5.1c0,3.3-1.1,6.5-3.1,9.1c-2.9,3.9-6.7,5.5-11.4,4.6c-4-0.8-8-1.8-12-2.6
			c-1.3-0.3-2.6-0.4-3.9-0.7c-0.9-0.2-1.7-0.4-2.5-0.6c-2.7-0.8-4.3,0-5,2.7c-0.3,1.5-0.4,3-0.3,4.5c0.2,3.6-1.7,5.3-5.3,4.9
			c-4.4-0.4-8.2-3-10.3-6.9c-2.9-5.3-6.8-10-10.5-14.8c-0.7-1.1-1.9-2-3.1-2.4c-0.2,0.4-0.4,0.8-0.7,1.1c-1.9,2.3-4.1,4.3-6.6,5.8
			c-2.3,1.6-5.3,2-8,1.2c-6.6-1.9-10.6-6.6-11.2-13.4c-0.2-1.9-0.2-3.9-0.2-5.9c0.2-2.5-0.9-4.9-2.9-6.5c-1.3-1-2.6-2-3.9-3
			c-1.8-1.2-4-1.6-6.2-1.1c-2.8,0.5-10.8,4.8-12.8,7c-0.2,0.2-0.4,0.3-0.6,0.4c-0.1,0-0.2,0.1-0.4,0.1c-0.3-0.2-0.5-0.4-0.6-0.7
			c-2.8,12.9-0.5,26.5,6.6,37.7c4.9,7.8,11.4,14.4,19.2,19.2c14.4,9.2,30.4,13.3,47.3,14c5,0.2,7.5,0.2,12.5,0.1
			c0.9,0,3.6-0.1,4.5,0c0.7,0.1,1.9,0,2.6,0c11.9-0.4,23.6-2.8,34.7-6.9c9.7-3.5,18.7-8.9,26.4-15.8c0.5-0.4,0.9-0.9,1.7-1.7
			l3.2-3.1c5.2-5.5,9.4-11.9,12.5-18.8c2.5-5.6,4-11.5,4.4-17.6l0,0C231.8,163,230.9,160.6,230.9,160.4 M215.5,178.3
			c-1.1,2.2-2.4,4.4-3.7,6.5c-3.9,5.5-8.8,10.3-14.4,14c-0.6,0.4-1.1,0.9-1.7,1.4l0,0c-0.5,0.2-0.9,0.4-1.3,0.6
			c-10,6.2-21,10-32.5,12.2c-8.5,1.6-17.1,2.2-25.8,1.9c-14.9-0.6-29.1-3.7-42.4-10.6c-8.3-4.3-15.5-9.9-21.1-17.4
			c-0.5-0.7-1-1.4-1.5-2.2c-0.6-0.8-0.5-2,0.3-2.6l0.1-0.1c0.8-0.5,1.6-0.3,2.5,0.7c0.1,0.1,0.2,0.3,0.3,0.5
			c5.5,8,12.9,13.7,21.4,18.2c8.6,4.5,17.9,7.5,27.5,9.1c9.9,1.7,20,2.1,29.9,1.1c14.2-1.4,27.6-5.3,39.8-12.7
			c8.8-5.4,16-12.4,20.6-21.8c0.2-0.5,0.5-0.9,0.8-1.2c0.2-0.2,0.8-0.4,1-0.3c0.3,0.2,0.6,0.6,0.6,1
			C216,177.1,215.8,177.7,215.5,178.3"/>
		<path id="Path_3580" class="st6" d="M220.1,124.5c-0.2-0.3-0.4-0.6-0.7-0.9c-1.6-1.7-3.3-3.3-4.8-5c-6-6.8-13.4-12.1-21.8-15.6
			c-13.3-5.9-27.4-8.5-41.9-9c-9.9-0.4-19.8,0.5-29.5,2.5c-7.2,1.5-14.2,3.8-21,6.8c-6.4,2.9-12,7-17.4,11.3
			c-3.5,2.8-6.7,5.9-9.7,9.2c-6.6,6.9-11.6,15.2-14.9,24.1c-0.8,2.3-1.5,4.6-2,7c0.2-0.3,0.6-0.6,0.8-0.8
			c3.8-4.2,15.5-10.4,21.5-5.3c1.7,1.4,3.5,2.7,5.1,4.2c1.4,1.3,2.2,3.2,2.2,5.1c0.1,2,0.1,4,0.3,6c0.1,1.3,0.3,2.5,0.6,3.7
			c1.3,5,5,7.5,9.7,8.7c1.6,0.4,3.2,0.1,4.5-0.8c2.4-1.4,4.6-3.2,6.4-5.3c2-2.5,3.9-2.6,6.2-0.4c0.3,0.3,0.6,0.5,0.8,0.8
			c3.7,4.7,7.7,9.2,10.6,14.5c0.6,1.2,1.4,2.3,2.2,3.3c1.7,2.2,4.2,3.6,6.9,3.9c0.6,0.1,1.1,0,1.7-0.1c1.1-0.2,1.3-0.6,1.3-1.7
			c-0.1-1.3-0.1-2.5-0.1-3.8c0.1-1.1,0.3-2.1,0.7-3.1c1.5-3.7,3.7-4.3,6.3-3.8c3,0.6,5.8,1.5,8.8,2.1c4,0.9,8,1.6,12,2.3
			c2.4,0.4,4.7-0.5,6.3-2.2c2.6-2.4,4-5.8,4.1-9.3c0-2.1-0.1-4.2-0.1-6.2c0-4.3,2.3-5.7,6.2-3.8c3.7,2,7.6,3.3,11.8,4
			c2.2,0.3,4.4,0.4,6.6,0.2c3.6-0.2,6.7-2.3,8.3-5.5c0.7-1.3,1.2-2.8,1.8-4.2c1.5-3.9,4.9-6.8,9-7.5c1-0.2,2.1-0.2,3.2,0
			c3.2,0.7,6.1,2.5,8.2,5.1c1,1.5,1.7,3.2,1.9,5C232.2,147,227.9,135.1,220.1,124.5 M118.7,115.9c-1.3,0.8-2.7,1.5-4.2,2
			c-3.6,1-7.4,1.5-11.2,1.3c-1,0.1-1.9-0.2-2.7-0.8c0.4-0.5,0.7-1,1.1-1.4c0.4-0.6,0.8-1.1,1.3-1.6c3.9-2.9,8.2-4.7,13.2-4.5
			c0.6,0,1.2,0.1,1.9,0.3c1,0.2,1.8,1.1,1.9,2.1C120,114.4,119.6,115.4,118.7,115.9 M151.8,169.4c-0.3,2.1-1.7,3.8-3.7,4.4
			c-2.8,0.9-5.7,1.2-8.6,0.9c-1.6-0.1-3.1-0.1-4.7-0.3c-0.9-0.1-1.7-0.3-2.5-0.7c-1.4-0.6-2-2.1-1.6-3.5c0.4-1.7,0.8-3.4,1.4-5.1
			c1.3-3.3,2.7-6.5,4.1-9.8c0.3-0.6,0.5-1.5,1.4-1.2s0.5,1.2,0.3,1.8c-0.9,2.7-1.8,5.4-2.6,8.1c-0.6,1.8-1,3.6-1.5,5.4
			c-0.1,0.5-0.1,1-0.2,1.5c0.3,0.1,0.6,0.2,1,0.3c3.1,0.1,6.2,0.3,9.2,0.4c1.1,0,2.2-0.2,3.3-0.5c0.9-0.2,1.6-0.8,1.9-1.7
			c0.4-1-0.1-1.7-1.1-1.5c-0.6,0.1-1.2,0.3-1.8,0.5c-0.6-1.8,0.2-3,2-3.2c1.9-0.2,3.5,1.2,3.7,3
			C151.9,168.8,151.9,169.1,151.8,169.4 M197.4,118.5c-2.1,0.4-4.3,0.3-6.3-0.5c-1.2-0.4-2.3-1-3.4-1.5c-0.5-0.2-1-0.3-1.7-0.6
			c-0.1-0.2-0.1-0.3-0.2-0.5c-1-2.2-0.2-3.7,2.1-4c0.9-0.2,1.9-0.2,2.8,0c1.7,0.4,3.3,0.8,4.9,1.3c1.3,0.4,2.5,1.3,3.2,2.5
			C199.6,116.9,199.2,118,197.4,118.5"/>
		<path id="Path_3581" class="st6" d="M54.4,153.5c-0.1,0.6-0.2,1.3-0.4,2c-0.9,4.1-1.3,8.4-1.2,12.6c-0.5-0.1-1.1-0.3-1.7-0.3
			c-0.2-0.1-0.5-0.2-0.7-0.2c-2.3-0.3-4.2-2-4.8-4.3c-0.3-1-0.6-2.1-0.8-3.1c-0.4-1.5,0.2-3,1.5-3.8c1.7-1.1,3.6-2.1,5.4-3
			C52.6,152.8,53.6,152.9,54.4,153.5"/>
		<path id="Path_3582" class="st3" d="M53.1,168.2c-0.1,0-0.2,0.1-0.3,0.1v-0.2C52.9,168.1,53,168.1,53.1,168.2"/>
		<path id="Path_3583" class="st3" d="M233,171.8c0-0.1,0-0.2,0.1-0.3C233.1,171.6,233.1,171.7,233,171.8"/>
		<path id="Path_3584" class="st6" d="M243.3,164.9c-0.5,0.6-1,1.1-1.6,1.6c-1.8,1.6-4,2.7-6.3,3.3c-0.9,0.3-1.8,0.9-2.4,1.7
			c0.9-4,1.4-8.1,1.4-12.2c0-0.5,0.1-1.1,0.1-1.6c1.1-0.3,2.2-0.5,3.3-0.5c2.6,0.2,4.8,1.8,5.8,4.2
			C244.4,162.5,244.2,163.9,243.3,164.9"/>
		<path id="Path_3585" class="st3" d="M266.2,160.1c-3,5-6.8,9.6-11.3,13.4c-7.6,6.7-18.8,12.1-28.1,16c-0.7,0.4-1.4,0.8-2,1.3
			c3.9-5.8,6.6-12.2,8.2-19c0.1,0.4,2,0.3,2.5,0.4c0.7,0.2,1.5,0.2,2.2-0.1c3.2-0.9,6-2.8,7.9-5.5c1.3-1.7,1.6-3.9,0.9-5.9
			c-1.4-4.4-5.6-7.2-10.2-6.8c-0.6,0.1-1.2,0.1-1.9,0.2c-0.4-2.3-0.7-4.5-1.1-6.6c-2.8-12.9-9.3-23.7-18.4-33.1
			c-0.7-0.7-6.3-5.1-7.1-5.6c-3.8-2.4-3.9-2.6-10.1-6.5c-9.4-5.1-16.5-6.7-27.5-9.2c-5.9-1.2-11.8-2-17.8-2.1
			c-12.5-0.6-25.1,0.7-37.3,3.9c-0.5,0.2-1.1,0.3-1.7,0.3c-2.7,0.9-8.7,2.8-10.5,3.6c-6.5,3.1-8.3,3.6-14,8
			c-4.6,3.5-8.9,7.2-13.1,11.1c-9.5,9.1-16.7,19.8-20.6,32.5c-0.1,0.3-0.3,0.6-0.5,0.9c-2.1-0.8-2.2-0.9-3.6-0.5
			c-2.6,0.6-5,1.8-7.1,3.4c-1.7,1.2-2.6,3.2-2.4,5.3c0.1,2.3,0.9,4.5,2.3,6.3c0.8,1.1,1.9,1.9,3.2,2.3c1.8,0.5,3.7,0.5,5.6,0.1
			c0.1,5.8,1.2,11.5,3.1,16.9c-0.4-0.4-2.9-1.2-3.4-1.5c-5.7-3.4-11.2-7-16-11.6c-5-4.9-9.4-10.2-12.4-16.6
			c-4.1-8.6-4.5-18.5-0.9-27.4c1.5-3.9,3.6-7.5,6.2-10.8c4.3-5.5,9.4-10.2,15.1-14.2c9.1-6.3,19-11.3,29.4-14.9
			c19.2-6.9,39.1-10.3,59.4-11.3c20.4-1.1,40.8,0.5,60.7,4.8c13.4,2.8,26.4,7.2,38.7,13.2c8.4,4.1,16.2,9.3,23.1,15.6
			c4.7,4.2,8.6,9.3,11.6,14.9c2.3,4.3,3.6,9,4,13.9C271.8,146.6,270,153.9,266.2,160.1"/>
		<path id="Path_3586" class="st7" d="M231.9,163.2c-0.1-0.2-1-2.6-1-2.8c-1-4.8-4.7-6.8-8.8-8.1c-1.5-0.4-3.1-0.2-4.4,0.4
			c-2.4,0.9-4.3,2.8-5.3,5.1c-0.5,1.1-0.9,2.2-1.3,3.3c-2.4,5.6-6.7,8.6-12.7,8.7c-5.7,0.1-11.3-1.2-16.4-3.9
			c-0.8-0.5-1.7-0.9-2.5-1.3c-1-0.4-1.6-0.1-1.7,1c-0.1,0.7-0.1,1.5-0.1,2.3c0,1.7,0.1,3.4,0.1,5.1c0,3.3-1.1,6.5-3.1,9.1
			c-2.9,3.9-6.7,5.5-11.4,4.6c-4-0.8-8-1.8-12-2.6c-1.3-0.3-2.6-0.4-3.9-0.7c-0.9-0.2-1.7-0.4-2.5-0.6c-2.7-0.8-4.3,0-5,2.7
			c-0.3,1.5-0.4,3-0.3,4.5c0.2,3.6-1.7,5.3-5.3,4.9c-4.4-0.4-8.2-3-10.3-6.9c-2.9-5.3-6.8-10-10.5-14.8c-0.7-1.1-1.9-2-3.1-2.4
			c-0.2,0.4-0.4,0.8-0.7,1.1c-1.9,2.3-4.1,4.3-6.6,5.8c-2.3,1.6-5.3,2-8,1.2c-6.6-1.9-10.6-6.6-11.2-13.4c-0.2-1.9-0.2-3.9-0.2-5.9
			c0.2-2.5-0.9-4.9-2.9-6.5c-1.3-1-2.6-2-3.9-3c-1.8-1.2-4-1.6-6.2-1.1c-2.8,0.5-10.8,4.8-12.8,7c-0.2,0.2-0.4,0.3-0.6,0.4
			c-0.1,0-0.2,0.1-0.4,0.1c-0.3-0.2-0.5-0.4-0.6-0.7c-0.1-0.2-0.1-0.5,0-0.7c0-0.1,0.1-0.2,0.2-0.3c0.2-0.3,0.6-0.6,0.8-0.8
			c3.8-4.2,15.5-10.4,21.5-5.3c1.7,1.4,3.5,2.7,5.1,4.2c1.4,1.3,2.2,3.2,2.2,5.1c0.1,2,0.1,4,0.3,6c0.1,1.3,0.3,2.5,0.6,3.7
			c1.3,5,5,7.5,9.7,8.7c1.6,0.4,3.2,0.1,4.5-0.8c2.4-1.4,4.6-3.2,6.4-5.3c2-2.5,3.9-2.6,6.2-0.4c0.3,0.3,0.6,0.5,0.8,0.8
			c3.7,4.7,7.7,9.2,10.6,14.5c0.6,1.2,1.4,2.3,2.2,3.3c1.7,2.2,4.2,3.6,6.9,3.9c0.6,0.1,1.1,0,1.7-0.1c1.1-0.2,1.3-0.6,1.3-1.7
			c-0.1-1.3-0.1-2.5-0.1-3.8c0.1-1.1,0.3-2.1,0.7-3.1c1.5-3.7,3.7-4.3,6.3-3.8c3,0.6,5.8,1.5,8.8,2.1c4,0.9,8,1.6,12,2.3
			c2.4,0.4,4.7-0.5,6.3-2.2c2.6-2.4,4-5.8,4.1-9.3c0-2.1-0.1-4.2-0.1-6.2c0-4.3,2.3-5.7,6.2-3.8c3.7,2,7.6,3.3,11.8,4
			c2.2,0.3,4.4,0.4,6.6,0.2c3.6-0.2,6.7-2.3,8.3-5.5c0.7-1.3,1.2-2.8,1.8-4.2c1.5-3.9,4.9-6.8,9-7.5c1-0.2,2.1-0.2,3.2,0
			c3.2,0.7,6.1,2.5,8.2,5.1c1,1.5,1.7,3.2,1.9,5l0,0C232.2,161.2,232.1,162.2,231.9,163.2"/>
		<path id="Path_3587" class="st6" d="M216,176.5c0,0.6-0.2,1.2-0.5,1.8c-1.1,2.2-2.4,4.4-3.7,6.5c-3.9,5.5-8.8,10.3-14.4,14
			c-0.6,0.4-1.1,0.9-1.7,1.4l0,0c-0.5,0.2-0.9,0.4-1.3,0.6c-10,6.2-21,10-32.5,12.2c-8.5,1.6-17.1,2.2-25.8,1.9
			c-14.9-0.6-29.1-3.7-42.4-10.6c-8.3-4.3-15.5-9.9-21.1-17.4c-0.5-0.7-1-1.4-1.5-2.2c-0.6-0.8-0.5-2,0.3-2.6l0.1-0.1
			c0.8-0.5,1.6-0.3,2.5,0.7c0.1,0.1,0.2,0.3,0.3,0.5c5.5,8,12.9,13.7,21.4,18.2c8.6,4.5,17.9,7.5,27.5,9.1c9.9,1.7,20,2.1,29.9,1.1
			c14.2-1.4,27.6-5.3,39.8-12.7c8.8-5.4,16-12.4,20.6-21.8c0.2-0.5,0.5-0.9,0.8-1.2c0.2-0.2,0.8-0.4,1-0.3
			C215.8,175.7,216,176.1,216,176.5"/>
		<path id="Path_3588" class="st4" d="M151.8,169.4c-0.3,2.1-1.7,3.8-3.7,4.4c-2.8,0.9-5.7,1.2-8.6,0.9c-1.6-0.1-3.1-0.1-4.7-0.3
			c-0.9-0.1-1.7-0.3-2.5-0.7c-1.4-0.6-2-2.1-1.6-3.5c0.4-1.7,0.8-3.4,1.4-5.1c1.3-3.3,2.7-6.5,4.1-9.8c0.3-0.6,0.5-1.5,1.4-1.2
			s0.5,1.2,0.3,1.8c-0.9,2.7-1.8,5.4-2.6,8.1c-0.6,1.8-1,3.6-1.5,5.4c-0.1,0.5-0.1,1-0.2,1.5c0.3,0.1,0.6,0.2,1,0.3
			c3.1,0.1,6.2,0.3,9.2,0.4c1.1,0,2.2-0.2,3.3-0.5c0.9-0.2,1.6-0.8,1.9-1.7c0.4-1-0.1-1.7-1.1-1.5c-0.6,0.1-1.2,0.3-1.8,0.5
			c-0.6-1.8,0.2-3,2-3.2c1.9-0.2,3.5,1.2,3.7,3C151.9,168.8,151.9,169.1,151.8,169.4"/>
		<path id="Path_3589" class="st4" d="M119.8,113.5c-0.1-1-0.9-1.9-1.9-2.1c-0.6-0.2-1.2-0.3-1.8-0.3c-5-0.2-9.2,1.6-13.2,4.5
			c-0.5,0.5-0.9,1-1.3,1.6c-0.4,0.5-0.7,0.9-1.1,1.4c0.8,0.5,1.8,0.8,2.7,0.8c3.8,0.2,7.6-0.3,11.2-1.3c1.5-0.5,2.9-1.2,4.2-2
			C119.6,115.4,120,114.4,119.8,113.5"/>
		<path id="Path_3590" class="st4" d="M198.7,115.2c-0.7-1.2-1.8-2.1-3.2-2.5c-1.6-0.5-3.2-1-4.9-1.3c-0.9-0.2-1.9-0.2-2.8,0
			c-2.4,0.4-3.1,1.8-2.1,4c0.1,0.2,0.2,0.4,0.2,0.5c0.7,0.2,1.2,0.3,1.7,0.6c1.1,0.5,2.3,1.1,3.4,1.5c2,0.8,4.2,1,6.3,0.5
			C199.2,118,199.7,116.9,198.7,115.2"/>
		<path id="Path_3591" class="st8" d="M108.8,139.3c-0.3-0.7-0.5-1.5-0.8-2.2s-0.6-1.4-1-2.4h3.3
			C111.7,137.2,111.3,138.4,108.8,139.3"/>
		<path id="Path_3592" class="st9" d="M108.8,139.3c-0.3-0.7-0.5-1.5-0.8-2.2s-0.6-1.4-1-2.4h3.3
			C111.7,137.2,111.3,138.4,108.8,139.3"/>
		<path id="Path_3593" class="st8" d="M189.5,135c-1.2-0.7-1.3-1.8-0.8-3.2c1.5,0.9,3.5,0.6,4.4,2.5
			C192.3,135.5,190.7,135.8,189.5,135"/>
		<path id="Path_3594" class="st9" d="M193.1,134.3c-0.8,1.1-2.4,1.4-3.6,0.7c-1.2-0.7-1.3-1.8-0.8-3.2
			C190.2,132.7,192.3,129.6,193.1,134.3"/>
		<path id="Path_3595" class="st1" d="M221.8,238.7c-13.8,3.3,6,17.7,6,17.7l0,0C227.9,256.2,231.5,239.6,221.8,238.7"/>
		<path id="Path_3596" class="st10" d="M219.7,239.1c0,0-12.2-28.2-44.9-30.1"/>
	</g>
</g>
<g id="Group_208_00000107555358572900694350000005184864154392681390_">
	<g class="st0">
		<path class="st1" d="M66.7,330c-1.9,6.6-5.7,12.7-11.3,16.6c-5,3.3-11.1,4.7-16.7,3.3c0.3,4.2,0.7,8.4,1.2,12.5
			c0.1,0.8-0.7,1.5-1.4,1.5c-0.8,0-1.2-0.6-1.3-1.5c-0.6-3.5-0.8-7.1-1.2-10.8c-0.1-0.8-0.1-1.7-0.1-2.6c-0.3-0.1-0.5-0.1-0.7-0.2
			c-0.7-0.3-0.9-1.4-0.6-2c0.3-0.3,0.6-0.5,1-0.6c-0.7-10.9-1-21.8-0.6-32.7c0-1.9,2.9-1.9,2.8,0c-0.1,3.6-0.1,7.3-0.1,10.7
			c0,3.2,0.1,6.4,0.1,9.6c1.4-4.3,3.5-8.6,6.1-12.4c3.8-5.4,9.4-11.8,16.8-10.2C69,313,68.4,323.6,66.7,330z M64,317.3
			c-1.1-2.6-3.7-3.5-6.5-3.4c-2.9,0.3-5.5,2.3-7.5,4.2c-2.2,2.3-4.1,5.1-5.7,7.8c-3.2,5.7-5.3,12-6,18.5c0,0.2-0.1,0.3-0.1,0.5
			c0,0.7,0.1,1.5,0.1,2.1c6,1.7,12.5-0.3,17.2-4.1c4.7-4.2,7.7-10,8.9-16C65,323.9,65.3,320.2,64,317.3z"/>
		<path class="st1" d="M97.6,341.6c-2.6,2.8-8.6,4.4-12.1,4.8c-0.1,0.2-0.1,0.5-0.3,0.8c-1.4,2.7-3.7,5.7-6.8,6.6
			c-3.3,1-6.1-1.2-7.5-4.1c-1-2.7-1.4-5.7,0.1-8.1c-1.2-1.7-1.9-3.7-1.5-6c0.5-3.2,3.2-6,5.9-7.4c2.9-1.4,6.6-1.4,9,0.9
			c2.3,2.3,2.8,6,2.8,8.9c0,1.8-0.3,3.7-0.7,5.4c2.5-0.3,7.1-1.8,9.1-4.2C96.7,338,99.3,339.8,97.6,341.6z M72.7,338.7
			c1,2,3,3.3,5.1,3.9c1.9,0.7,3.8,0.9,5.8,0.9c0.9-2.6,1.2-5.5,0.7-8.1c-0.5-2.3-1.2-4.7-3.7-5.4c-2.3-0.5-4.6,0.8-6.2,2.4
			C72.9,334.1,71.8,336.5,72.7,338.7z M82.4,346.4c-3.2-0.2-6.6-0.9-9.1-2.9c-0.9,1.9,0,4.6,1,6.1c0.6,0.9,1.5,1.6,2.8,1.5
			C79.4,350.8,81.2,348.5,82.4,346.4z"/>
		<path class="st1" d="M119.6,340.2c-2.4,1.4-5.5,2.3-8.2,1.1c-1.2-0.5-2.1-1.5-2.8-2.6c-0.6-0.9-1.1-2.1-1.9-2.8
			c-2.1-2.1-3.2,0.8-4.1,2.7c-1.1,2.6-1.8,5.3-2.5,8c-0.7,3-1.4,5.9-2.1,8.8c-0.3,1.7-2.7,1.3-2.8-0.3c-0.4-9.7,0.5-19.4,2.3-28.8
			c0.1-0.8,1-1.2,1.7-1c0.8,0.3,1.2,1,1,1.8c-0.8,5-1.5,10.2-1.8,15.3c0.6-2.3,1.4-4.4,2.4-6.4c0.6-1.1,1.2-2.4,2.4-3.2
			c1.2-0.8,2.7-0.8,4.1-0.1c1.1,0.6,2.1,1.7,2.7,2.9c0.6,0.9,1.1,2,2,2.7c1.7,1.4,4.4,0.4,6.2-0.6
			C120,336.9,121.3,339.3,119.6,340.2z"/>
		<path class="st1" d="M133,350.9c-2.4,2.1-5.1,3.5-7.9,3.3c-11.4-1-5.1-27.9-4-32.7c-2.7,0-4.7-0.1-7.4-0.3
			c-1.8-0.1-1.4-2.8,0.5-2.8c2.7,0.1,5,0.3,7.7,0.2c0.8-3.6,2.6-10,3.9-14c0.3-0.8,1.4-1.1,2.1-0.9c0.6,0.3,1.2,1,0.9,1.8
			c-1.4,3.7-3,9.2-4,13.1l0.6-0.1c4.2-0.1,8.5-0.4,12.7-0.8c0.7-0.1,1.3,0.8,1.2,1.4c-0.1,0.8-0.9,1.4-1.7,1.5
			c-4.2,0.4-9.2,0.6-13.4,0.7c-1.4,4.6-7.2,31.5,2.7,29.9c1.7-0.3,3.3-1.2,4.8-2.4c3-2.5,5.3-5.7,7.1-9.4c0.8-1.7,3.2-0.6,2.3,1.2
			C139.1,344.6,136.5,347.9,133,350.9z"/>
		<path class="st1" d="M144.9,340.4c6.9,0.6,13.9-0.5,20.3-3c0.7-0.2,1.5,0.3,1.7,1c0.3,0.8-0.2,1.5-1,1.8c-6.8,2.6-14,3.6-21.2,3
			c3.9,1.7,7.1,4.7,9.1,8.6c1.9,3.9,2.8,10.2-1.7,12.7c-4.9,2.6-8.7-3.2-10.6-7c-2-4.3-2.8-9.3-3.1-14.2c-0.2-5.5,0.6-10.9,2.1-16.1
			c1.4-4.3,3.3-8.6,6.5-12.1c2.9-3.3,7.7-7,12.3-5.4c2.4,0.7,3.9,2.8,4.2,5.2c0.3,2.4-0.9,4.8-2,6.9
			C157.8,329.5,151.9,335.9,144.9,340.4z M159.9,318.8c0.7-1.5,1.4-3.9,0.2-5.3c-1.2-1.4-3.3-1.4-5-0.8c-1.9,0.6-3.5,2-5,3.3
			c-1.4,1.5-2.6,3.2-3.7,4.8c-2.1,3.7-3.5,7.9-4.2,12.1c-0.5,2.1-0.6,4.2-0.7,6.4c0,0,0-0.1,0.1-0.1c0.9-0.5,1.8-1,2.6-1.7
			C150.9,333,156.6,326.3,159.9,318.8z M147.6,348.3c-1.4-1.2-3-2.1-4.6-2.7c-0.6-0.2-1.1-0.4-1.6-0.7c0.1,0.9,0.1,1.9,0.3,2.8
			c0.5,4.1,1.8,8.2,4.2,11.6c0.9,1.2,2.3,3.3,4.1,3c1.9-0.5,2.6-2.4,2.6-4.2C152.5,354.3,150.3,350.8,147.6,348.3z"/>
		<path class="st1" d="M192.5,341.6c-2.6,2.8-8.6,4.4-12.1,4.8c-0.1,0.2-0.1,0.5-0.3,0.8c-1.4,2.7-3.7,5.7-6.8,6.6
			c-3.3,1-6.1-1.2-7.5-4.1c-1-2.7-1.4-5.7,0.1-8.1c-1.2-1.7-1.9-3.7-1.5-6c0.5-3.2,3.2-6,5.9-7.4c2.9-1.4,6.6-1.4,9,0.9
			c2.3,2.3,2.8,6,2.8,8.9c0,1.8-0.3,3.7-0.7,5.4c2.5-0.3,7.1-1.8,9.1-4.2C191.6,338,194.1,339.8,192.5,341.6z M167.6,338.7
			c1,2,3,3.3,5.1,3.9c1.9,0.7,3.8,0.9,5.8,0.9c0.9-2.6,1.2-5.5,0.7-8.1c-0.5-2.3-1.2-4.7-3.7-5.4c-2.3-0.5-4.6,0.8-6.2,2.4
			C167.7,334.1,166.6,336.5,167.6,338.7z M177.2,346.4c-3.2-0.2-6.6-0.9-9.1-2.9c-0.9,1.9,0,4.6,1,6.1c0.6,0.9,1.5,1.6,2.8,1.5
			C174.3,350.8,176.1,348.5,177.2,346.4z"/>
		<path class="st1" d="M190.6,340.5c-0.3-4.5,0.1-9.2,0.8-13.5c0.6-4,1.6-7.9,3.1-11.6c0.8-1.9,1.6-3.8,2.7-5.5
			c1-1.7,2.1-3.5,3.6-4.8c1.5-1.3,3.7-2.2,5.5-1c1.5,0.8,1.9,2.4,2.1,4c0.2,1.7-0.4,3.5-0.8,5.1c-0.5,1.9-1.2,3.7-1.9,5.7
			c-2.8,7.3-7.1,14-12.4,19.6c0.1,0.6,0.1,1.2,0.1,1.7c0.4,16,15.6,15.7,21.8-1c0.3-0.7,1.4-0.8,1.9-0.5c0.7,0.5,0.8,1.3,0.6,2
			C209.4,359.5,192,359.7,190.6,340.5z M193.8,329.7c-0.3,1.5-0.4,3-0.5,4.6c4.2-5.1,7.7-10.9,10-17.3c0.6-1.6,1.2-3.3,1.6-4.9
			c0.5-1.4,0.8-3,0.6-4.2c-0.1-0.9-0.5-1.7-1.5-1.5c-1.5,0.6-2.6,2.3-3.4,3.5C196.6,315.8,194.9,322.9,193.8,329.7z"/>
		<path class="st1" d="M220.2,350.8c-2.2-1-3.5-3.2-4.4-5.4c-0.8-2.5-0.6-5.3-0.3-8c0.1-0.8,1.1-1.2,1.7-1c0.8,0.1,1.2,1,1,1.7
			c-0.4,2.4-0.5,4.9,0.5,7.1c0.8,1.7,2.1,3,3.9,3.3c1.9,0.5,3.9-0.1,5.6-1c3.7-1.9,6.8-5.1,9.1-8.4c0.4-0.6,1.2-1,2-0.5
			c0.6,0.3,0.9,1.4,0.5,1.9c-1.7,2.4-3.5,4.6-5.7,6.4C230.4,350.3,225.1,353.3,220.2,350.8z M217.3,328.8c1.9,0,1.9,2.9,0,2.9
			S215.5,328.8,217.3,328.8z"/>
		<path class="st1" d="M265.3,341.6c-2.6,2.8-8.6,4.4-12.1,4.8c-0.1,0.2-0.1,0.5-0.3,0.8c-1.4,2.7-3.7,5.7-6.8,6.6
			c-3.3,1-6.1-1.2-7.5-4.1c-1-2.7-1.4-5.7,0.1-8.1c-1.2-1.7-1.9-3.7-1.5-6c0.5-3.2,3.2-6,5.9-7.4c2.9-1.4,6.6-1.4,9,0.9
			c2.3,2.3,2.8,6,2.8,8.9c0,1.8-0.3,3.7-0.7,5.4c2.5-0.3,7.1-1.8,9.1-4.2C264.4,338,266.9,339.8,265.3,341.6z M240.4,338.7
			c1,2,3,3.3,5.1,3.9c1.9,0.7,3.8,0.9,5.8,0.9c0.9-2.6,1.2-5.5,0.7-8.1c-0.5-2.3-1.2-4.7-3.7-5.4c-2.3-0.5-4.6,0.8-6.2,2.4
			C240.5,334.1,239.4,336.5,240.4,338.7z M250,346.4c-3.2-0.2-6.6-0.9-9.1-2.9c-0.9,1.9,0,4.6,1,6.1c0.6,0.9,1.5,1.6,2.8,1.5
			C247.1,350.8,248.9,348.5,250,346.4z"/>
	</g>
</g>
</svg>
