<svg id="Group_215" data-name="Group 215" xmlns="http://www.w3.org/2000/svg" xmlns:xlink="http://www.w3.org/1999/xlink" width="715.902" height="261.496" viewBox="0 0 715.902 261.496">
  <defs>
    <clipPath id="clip-path">
      <rect id="Rectangle_61" data-name="Rectangle 61" width="715.902" height="261.496" fill="none"/>
    </clipPath>
    <clipPath id="clip-path-2">
      <rect id="Rectangle_60" data-name="Rectangle 60" width="757.147" height="73.672" fill="none"/>
    </clipPath>
  </defs>
  <g id="Mask_Group_214" data-name="Mask Group 214" clip-path="url(#clip-path)">
    <path id="Path_3576" data-name="Path 3576" d="M524.552,79.928a48.506,48.506,0,0,0-7.214-11.934,77.791,77.791,0,0,0-19.056-16.537A135.84,135.84,0,0,0,469.652,37.9c-2.075-.728-4.168-1.406-5.984-2.017a8.555,8.555,0,0,0-.611-2.661c-1.532-2.385-3.1-4.754-4.854-6.98a65.056,65.056,0,0,0-28.722-20.52,88.6,88.6,0,0,0-50.95-3.548,76.694,76.694,0,0,0-32.555,15.265A52.335,52.335,0,0,0,331.49,34.92a3.3,3.3,0,0,1-2.134,1.883,141.205,141.205,0,0,0-18.562,7.473A100.32,100.32,0,0,0,288.048,59.1a56.415,56.415,0,0,0-14.512,18.914,36.987,36.987,0,0,0-2.845,22.336,44.374,44.374,0,0,0,8.4,18.42c6.486,8.779,15.081,14.9,24.713,19.725a9.186,9.186,0,0,0,1.406.536,15.921,15.921,0,0,0,2.611.736c.326-.084,1.314.059,1.414-.209a2.2,2.2,0,0,0-.511-1.347c-.4-.385-2.946-1.205-3.431-1.5-5.674-3.423-11.248-6.955-16.026-11.633-5-4.887-9.407-10.185-12.361-16.579a33.833,33.833,0,0,1-.929-27.358,43.116,43.116,0,0,1,6.185-10.8,68.734,68.734,0,0,1,15.123-14.177A121.78,121.78,0,0,1,326.72,41.3c19.2-6.9,39.083-10.3,59.385-11.29a229.984,229.984,0,0,1,60.7,4.812,165.277,165.277,0,0,1,38.706,13.231A95.7,95.7,0,0,1,508.6,63.684a54.339,54.339,0,0,1,11.557,14.855,35.3,35.3,0,0,1,4,13.892,35.843,35.843,0,0,1-5.172,20.78,55.032,55.032,0,0,1-11.306,13.382c-7.582,6.7-18.763,12.068-28.078,15.959a10.006,10.006,0,0,0-2.05,1.306c-1.1.887-2.1,1.983-1.824,2.653.477,1.18,3.431.937,4.687.3,1.18-.594,5.816-2.067,7-2.661a107.011,107.011,0,0,0,20.018-12.829c6.8-5.59,12.528-12.068,16.361-20.077a36.972,36.972,0,0,0,.762-31.316M333.424,35.338c.552-.887.9-1.456,1.264-2.009a64.174,64.174,0,0,1,26.379-22.3A85.235,85.235,0,0,1,404.6,2.968a78.88,78.88,0,0,1,37.024,11.884,54.948,54.948,0,0,1,17.616,17.382c.452.728.787,1.531,1.347,2.611-42.631-11.256-84.735-11.3-127.165.494" transform="translate(-65.204 0)" fill="#3a3838"/>
    <path id="Path_3577" data-name="Path 3577" d="M472.936,35.375c-42.631-11.256-84.735-11.3-127.165.494.552-.887.9-1.456,1.264-2.009a64.175,64.175,0,0,1,26.379-22.3A85.235,85.235,0,0,1,416.948,3.5a78.881,78.881,0,0,1,37.024,11.884,54.948,54.948,0,0,1,17.616,17.382c.452.728.787,1.532,1.347,2.611" transform="translate(-77.551 -0.531)" fill="#262626"/>
    <path id="Path_3578" data-name="Path 3578" d="M504.062,122.365a9.925,9.925,0,0,0-10.2-6.821c-.6.05-1.214.1-1.875.159-.385-2.293-.653-4.477-1.113-6.611-2.8-12.888-9.264-23.734-18.445-33.057-.653-.669-6.285-5.055-7.08-5.557-3.791-2.368-3.85-2.594-10.11-6.536-9.407-5.13-16.461-6.729-27.475-9.189a101.008,101.008,0,0,0-17.8-2.142A122.714,122.714,0,0,0,372.7,56.519a4.576,4.576,0,0,1-1.665.293c-2.728.912-8.687,2.82-10.453,3.649-6.5,3.055-8.31,3.59-14.026,8.026a169.706,169.706,0,0,0-13.131,11.1c-9.54,9.122-16.713,19.817-20.6,32.546a4.662,4.662,0,0,1-.5.921c-2.059-.8-2.234-.862-3.565-.527a19.173,19.173,0,0,0-7.114,3.406,5.809,5.809,0,0,0-2.368,5.281,11.173,11.173,0,0,0,2.3,6.293,6.381,6.381,0,0,0,3.164,2.293,12.326,12.326,0,0,0,5.6.117,51.591,51.591,0,0,0,3.155,16.855c.159.452.335.9.51,1.347,4.435,11.2,11.984,19.91,21.784,26.722,14.712,10.243,31.333,14.612,49.016,15.792,6.151.41,12.277-.251,18.445.234s12.319-.628,18.395-1.791c18.437-3.532,35.015-11.005,49.251-23.4l.7-.611,2.477-2.31c.444-.5.862-.954,1.255-1.431,1-1.2,2.042-2.377,3.046-3.573.728-.87,1.448-1.757,2.117-2.678.636-.87,1.247-1.757,1.824-2.653a58.4,58.4,0,0,0,8.243-18.972c.1.418,2.034.293,2.477.393a4.527,4.527,0,0,0,2.218-.05,14.471,14.471,0,0,0,7.934-5.482,6.4,6.4,0,0,0,.879-5.942m-192.509-5.272a58.061,58.061,0,0,0-1.222,12.62,15.182,15.182,0,0,0-1.665-.335,3.93,3.93,0,0,0-.72-.218,5.7,5.7,0,0,1-4.762-4.31,26.477,26.477,0,0,1-.787-3.113,3.414,3.414,0,0,1,1.481-3.808c1.749-1.1,3.59-2.075,5.44-3a2.416,2.416,0,0,1,2.594.184c-.117.644-.226,1.322-.36,1.983m177.838,7.724a53.179,53.179,0,0,1-4.41,17.616c-.26.6-.536,1.2-.82,1.783-.05.117-.109.243-.167.36-.276.577-.561,1.147-.862,1.707a.26.26,0,0,1-.05.109q-.389.753-.8,1.481c-.1.192-.209.377-.326.569q-.979,1.72-2.067,3.373c-.377.577-.761,1.147-1.163,1.716a.145.145,0,0,1-.033.042c-.377.536-.762,1.071-1.155,1.6-.059.075-.117.159-.176.234-.385.51-.778,1.013-1.172,1.515-.017.017-.033.042-.05.059-.586.728-1.18,1.448-1.791,2.151s-1.23,1.406-1.875,2.1l-3.155,3.08c-.8.77-1.255,1.23-1.741,1.674A81.135,81.135,0,0,1,441.128,181.8a111.47,111.47,0,0,1-34.689,6.913c-.661.025-1.883.059-2.552,0-.87-.067-3.607-.017-4.477,0-4.98.109-7.557.142-12.511-.067-16.905-.72-32.873-4.82-47.267-14.035a59.832,59.832,0,0,1-19.24-19.207,50.242,50.242,0,0,1-6.645-37.685c.075-.36.151-.711.234-1.071a63.4,63.4,0,0,1,2.034-7A69.063,69.063,0,0,1,330.885,85.5a88.781,88.781,0,0,1,9.708-9.239c5.415-4.31,10.988-8.419,17.374-11.29a103.771,103.771,0,0,1,20.964-6.846,120.481,120.481,0,0,1,29.5-2.519c14.478.519,28.538,3.1,41.861,9a59.9,59.9,0,0,1,21.776,15.641c1.506,1.766,3.23,3.348,4.846,5.021a9.093,9.093,0,0,1,.7.887c7.783,10.637,12.085,22.445,11.9,35.71v.226c-.017.912-.059,1.816-.126,2.72Zm11.482,1.707a11.165,11.165,0,0,1-1.59,1.615A16.462,16.462,0,0,1,493,131.47a5.051,5.051,0,0,0-2.368,1.665,58.6,58.6,0,0,0,1.439-12.227c.008-.544.092-1.088.134-1.615a13.669,13.669,0,0,1,3.272-.527,6.839,6.839,0,0,1,5.833,4.218,3.179,3.179,0,0,1-.435,3.54" transform="translate(-69.963 -8.56)" fill="#7c5c47"/>
    <path id="Path_3579" data-name="Path 3579" d="M490.995,133.373c-1.046-4.779-4.67-6.779-8.846-8.109a6.342,6.342,0,0,0-4.435.427,9.743,9.743,0,0,0-5.3,5.122c-.494,1.1-.879,2.226-1.339,3.331-2.377,5.649-6.653,8.561-12.746,8.729a33.345,33.345,0,0,1-16.369-3.892,26.424,26.424,0,0,0-2.536-1.255c-1.038-.393-1.573-.084-1.749,1.013a11.969,11.969,0,0,0-.092,2.26c.025,1.7.109,3.4.142,5.1a14.751,14.751,0,0,1-3.113,9.13c-2.854,3.9-6.653,5.49-11.39,4.553-4.017-.8-7.992-1.774-11.993-2.628-1.28-.276-2.6-.41-3.891-.653-.862-.167-1.707-.385-2.544-.636-2.72-.812-4.327-.042-4.954,2.72a16.2,16.2,0,0,0-.259,4.5c.209,3.64-1.682,5.339-5.314,4.887A12.934,12.934,0,0,1,384,161.115c-2.937-5.331-6.77-10.009-10.486-14.779a6.111,6.111,0,0,0-3.147-2.427,11.308,11.308,0,0,1-.7,1.146,27.664,27.664,0,0,1-6.637,5.841,9.152,9.152,0,0,1-7.95,1.163c-6.595-1.85-10.57-6.553-11.214-13.415a47.1,47.1,0,0,1-.151-5.85,7.3,7.3,0,0,0-2.871-6.452c-1.3-1-2.569-2.034-3.925-2.954a7.886,7.886,0,0,0-6.151-1.138c-2.845.544-10.838,4.787-12.838,7a3.039,3.039,0,0,1-.619.435,1.474,1.474,0,0,1-.368.1,1.284,1.284,0,0,1-.594-.711,50.242,50.242,0,0,0,6.645,37.685,59.833,59.833,0,0,0,19.24,19.206c14.394,9.214,30.362,13.315,47.267,14.035,4.954.209,7.532.176,12.511.067.87-.017,3.607-.067,4.477,0,.669.059,1.891.025,2.552,0a111.471,111.471,0,0,0,34.689-6.913,81.137,81.137,0,0,0,26.446-15.817c.485-.444.937-.9,1.741-1.674l3.155-3.08a66.921,66.921,0,0,0,12.511-18.8,53.179,53.179,0,0,0,4.41-17.616v-.008c-.084-.209-.962-2.611-1-2.787m-15.374,17.909a75.2,75.2,0,0,1-3.749,6.544,55.155,55.155,0,0,1-14.436,14.018c-.594.41-1.13.912-1.69,1.373l.025-.025a9.708,9.708,0,0,0-1.339.619c-10.034,6.226-21.006,9.976-32.546,12.177a114.185,114.185,0,0,1-25.768,1.908c-14.855-.586-29.09-3.691-42.363-10.587-8.268-4.3-15.524-9.85-21.064-17.449a20.03,20.03,0,0,1-1.456-2.2,1.851,1.851,0,0,1,.444-2.67c.82-.5,1.632-.276,2.469.678.126.142.234.3.343.452,5.465,8.009,12.9,13.725,21.366,18.2a92.865,92.865,0,0,0,27.517,9.089,109.47,109.47,0,0,0,29.944,1.1c14.16-1.389,27.559-5.264,39.786-12.712,8.837-5.39,16.035-12.378,20.612-21.818a4.239,4.239,0,0,1,.837-1.247c.226-.218.778-.393.979-.268a1.386,1.386,0,0,1,.611,1.021,4.34,4.34,0,0,1-.519,1.791" transform="translate(-72.563 -19.911)" fill="#634839"/>
    <path id="Path_3580" data-name="Path 3580" d="M480.487,86.746a9.077,9.077,0,0,0-.7-.887c-1.615-1.674-3.339-3.255-4.846-5.021A59.9,59.9,0,0,0,453.163,65.2c-13.323-5.892-27.383-8.478-41.861-9a120.48,120.48,0,0,0-29.5,2.519,103.768,103.768,0,0,0-20.964,6.846c-6.385,2.871-11.959,6.98-17.374,11.29a88.783,88.783,0,0,0-9.708,9.239,69.062,69.062,0,0,0-14.871,24.144,63.362,63.362,0,0,0-2.034,7c.234-.293.561-.569.77-.8,3.808-4.235,15.491-10.361,21.508-5.272,1.674,1.414,3.465,2.712,5.08,4.21a7.047,7.047,0,0,1,2.209,5.072c.084,2.017.109,4.034.268,6.042a22.221,22.221,0,0,0,.619,3.716c1.314,5.046,4.988,7.524,9.733,8.712a5.771,5.771,0,0,0,4.544-.787,25.616,25.616,0,0,0,6.377-5.281c2.025-2.452,3.875-2.561,6.235-.427a8.08,8.08,0,0,1,.8.812c3.716,4.687,7.691,9.189,10.595,14.47a24.075,24.075,0,0,0,2.168,3.322,9.983,9.983,0,0,0,6.9,3.858,5.4,5.4,0,0,0,1.682-.059c1.088-.226,1.306-.577,1.255-1.7a31.711,31.711,0,0,1-.109-3.774,10.113,10.113,0,0,1,.678-3.113c1.532-3.674,3.682-4.343,6.31-3.833,2.954.577,5.841,1.5,8.8,2.126,4,.854,8.009,1.649,12.043,2.327a7,7,0,0,0,6.344-2.234,12.746,12.746,0,0,0,4.051-9.273c-.008-2.075-.142-4.159-.109-6.235.05-4.3,2.268-5.7,6.168-3.8a37.92,37.92,0,0,0,11.75,3.992,36.086,36.086,0,0,0,6.586.243,9.681,9.681,0,0,0,8.268-5.5c.711-1.322,1.188-2.77,1.783-4.159a12,12,0,0,1,9.022-7.549,7.936,7.936,0,0,1,3.172.025,14.421,14.421,0,0,1,8.176,5.113,11.061,11.061,0,0,1,1.866,4.971c.184-13.265-4.117-25.073-11.9-35.71m-101.364-8.6a19.261,19.261,0,0,1-4.235,2.025,35.925,35.925,0,0,1-11.214,1.322,4.463,4.463,0,0,1-2.745-.753c.393-.51.728-.962,1.08-1.414a7.73,7.73,0,0,1,1.28-1.582c3.908-2.854,8.2-4.67,13.156-4.469a7.291,7.291,0,0,1,1.85.293A2.464,2.464,0,0,1,380.17,75.7a2.224,2.224,0,0,1-1.046,2.444m33.082,53.469a5.4,5.4,0,0,1-3.674,4.41,20.634,20.634,0,0,1-8.561.937c-1.573-.084-3.147-.126-4.712-.293a7.372,7.372,0,0,1-2.511-.653,2.8,2.8,0,0,1-1.59-3.456,36.274,36.274,0,0,1,1.431-5.08c1.264-3.289,2.67-6.519,4.051-9.766.251-.586.452-1.54,1.356-1.205.854.318.519,1.163.31,1.816-.862,2.695-1.758,5.381-2.594,8.084-.561,1.8-1.046,3.624-1.532,5.448a10.113,10.113,0,0,0-.167,1.506,4.324,4.324,0,0,0,.962.31c3.08.142,6.159.326,9.239.368a14.272,14.272,0,0,0,3.331-.544,2.66,2.66,0,0,0,1.908-1.691c.4-.988-.092-1.665-1.138-1.5a12.088,12.088,0,0,0-1.757.527c-.619-1.783.176-3.013,1.967-3.155a3.389,3.389,0,0,1,3.682,3.933m45.56-50.891a11.034,11.034,0,0,1-6.285-.527c-1.18-.393-2.293-1.013-3.44-1.506-.5-.209-1.029-.335-1.7-.552-.067-.159-.142-.335-.218-.51-.962-2.218-.234-3.657,2.142-4.042a7.889,7.889,0,0,1,2.8.017,47.5,47.5,0,0,1,4.887,1.347,5.519,5.519,0,0,1,3.163,2.527c.929,1.624.444,2.8-1.356,3.247" transform="translate(-72.834 -9.154)" fill="#bc906f"/>
    <path id="Path_3581" data-name="Path 3581" d="M312.508,127.223c-.117.644-.226,1.322-.36,1.983a58.059,58.059,0,0,0-1.222,12.62,15.172,15.172,0,0,0-1.665-.335,3.933,3.933,0,0,0-.72-.218,5.7,5.7,0,0,1-4.762-4.31,26.487,26.487,0,0,1-.787-3.113,3.413,3.413,0,0,1,1.481-3.808c1.749-1.1,3.59-2.075,5.44-3a2.415,2.415,0,0,1,2.594.184" transform="translate(-70.558 -20.674)" fill="#bc906f"/>
    <path id="Path_3582" data-name="Path 3582" d="M312.742,144.883c-.084.033-.167.059-.251.084v-.2a.637.637,0,0,1,.251.117" transform="translate(-72.123 -23.613)" fill="#262626"/>
    <path id="Path_3583" data-name="Path 3583" d="M527.84,149.161a.429.429,0,0,1,.067-.285c-.017.092-.042.192-.067.285" transform="translate(-107.249 -24.284)" fill="#262626"/>
    <path id="Path_3584" data-name="Path 3584" d="M538.174,139.441a11.162,11.162,0,0,1-1.59,1.615,16.462,16.462,0,0,1-6.285,3.331,5.051,5.051,0,0,0-2.368,1.665,58.609,58.609,0,0,0,1.439-12.227c.008-.544.092-1.088.134-1.615a13.668,13.668,0,0,1,3.272-.527,6.839,6.839,0,0,1,5.833,4.218,3.179,3.179,0,0,1-.435,3.54" transform="translate(-107.264 -21.477)" fill="#bc906f"/>
    <path id="Path_3585" data-name="Path 3585" d="M519.661,119a55.031,55.031,0,0,1-11.306,13.382c-7.582,6.7-18.763,12.068-28.078,15.959a10.007,10.007,0,0,0-2.05,1.306,58.4,58.4,0,0,0,8.243-18.972c.1.418,2.034.293,2.477.393a4.527,4.527,0,0,0,2.218-.05,14.471,14.471,0,0,0,7.934-5.482,6.4,6.4,0,0,0,.879-5.942,9.925,9.925,0,0,0-10.2-6.821c-.6.05-1.214.1-1.875.159-.385-2.293-.653-4.477-1.113-6.611-2.8-12.888-9.264-23.734-18.445-33.057-.653-.67-6.285-5.055-7.08-5.557-3.791-2.368-3.85-2.594-10.11-6.536-9.407-5.13-16.461-6.729-27.475-9.189a101.007,101.007,0,0,0-17.8-2.142,122.714,122.714,0,0,0-37.267,3.908,4.576,4.576,0,0,1-1.665.293c-2.728.912-8.687,2.82-10.453,3.649-6.5,3.055-8.31,3.59-14.026,8.026a169.718,169.718,0,0,0-13.131,11.1c-9.54,9.122-16.713,19.817-20.6,32.546a4.664,4.664,0,0,1-.5.921c-2.059-.8-2.234-.862-3.565-.527a19.174,19.174,0,0,0-7.113,3.406,5.809,5.809,0,0,0-2.368,5.281,11.173,11.173,0,0,0,2.3,6.293,6.381,6.381,0,0,0,3.163,2.293,12.326,12.326,0,0,0,5.6.117A51.592,51.592,0,0,0,309.4,144c-.4-.385-2.946-1.205-3.431-1.5-5.674-3.423-11.248-6.954-16.026-11.633-5-4.887-9.407-10.185-12.361-16.579a33.833,33.833,0,0,1-.929-27.358,43.117,43.117,0,0,1,6.185-10.8,68.736,68.736,0,0,1,15.123-14.177,121.779,121.779,0,0,1,29.433-14.871c19.2-6.9,39.083-10.3,59.385-11.29a229.984,229.984,0,0,1,60.7,4.812A165.278,165.278,0,0,1,486.185,53.84a95.7,95.7,0,0,1,23.09,15.633,54.336,54.336,0,0,1,11.557,14.855,35.3,35.3,0,0,1,4,13.892A35.845,35.845,0,0,1,519.661,119" transform="translate(-65.879 -5.79)" fill="#262626"/>
    <path id="Path_3586" data-name="Path 3586" d="M492.208,135.756c-.084-.209-.962-2.611-1-2.787-1.046-4.779-4.67-6.779-8.846-8.109a6.342,6.342,0,0,0-4.436.427,9.742,9.742,0,0,0-5.3,5.122c-.494,1.1-.879,2.226-1.339,3.331-2.377,5.649-6.653,8.561-12.746,8.729a33.345,33.345,0,0,1-16.369-3.891,26.424,26.424,0,0,0-2.536-1.255c-1.038-.393-1.573-.084-1.749,1.013a11.964,11.964,0,0,0-.092,2.26c.025,1.7.109,3.4.142,5.105a14.752,14.752,0,0,1-3.113,9.13c-2.854,3.9-6.653,5.49-11.39,4.553-4.017-.8-7.992-1.774-11.993-2.628-1.28-.276-2.6-.41-3.892-.653-.862-.167-1.707-.385-2.544-.636-2.72-.812-4.327-.042-4.954,2.72a16.2,16.2,0,0,0-.259,4.5c.209,3.64-1.682,5.339-5.314,4.887a12.934,12.934,0,0,1-10.269-6.862c-2.937-5.331-6.77-10.009-10.486-14.779a6.111,6.111,0,0,0-3.147-2.427,11.318,11.318,0,0,1-.7,1.147,27.664,27.664,0,0,1-6.637,5.841,9.152,9.152,0,0,1-7.95,1.163c-6.595-1.85-10.57-6.553-11.214-13.415a47.1,47.1,0,0,1-.151-5.85,7.3,7.3,0,0,0-2.871-6.452c-1.3-1-2.569-2.034-3.925-2.954a7.886,7.886,0,0,0-6.151-1.138c-2.845.544-10.838,4.787-12.838,7a3.041,3.041,0,0,1-.619.435,1.472,1.472,0,0,1-.368.1,1.284,1.284,0,0,1-.594-.711,1.144,1.144,0,0,1,.042-.745,1.332,1.332,0,0,1,.193-.326c.234-.293.561-.569.77-.8,3.808-4.235,15.491-10.361,21.508-5.272,1.674,1.414,3.465,2.712,5.08,4.21a7.047,7.047,0,0,1,2.209,5.071c.084,2.017.109,4.034.268,6.042a22.208,22.208,0,0,0,.619,3.716c1.314,5.046,4.988,7.524,9.733,8.712a5.771,5.771,0,0,0,4.544-.787,25.617,25.617,0,0,0,6.377-5.281c2.025-2.452,3.875-2.561,6.235-.427a8.092,8.092,0,0,1,.8.812c3.716,4.687,7.691,9.189,10.595,14.47a24.074,24.074,0,0,0,2.168,3.322,9.983,9.983,0,0,0,6.9,3.858,5.4,5.4,0,0,0,1.682-.059c1.088-.226,1.306-.577,1.255-1.7a31.685,31.685,0,0,1-.109-3.774,10.113,10.113,0,0,1,.678-3.113c1.531-3.674,3.682-4.343,6.31-3.833,2.954.577,5.841,1.5,8.8,2.126,4,.854,8.009,1.649,12.043,2.327a7,7,0,0,0,6.344-2.234,12.746,12.746,0,0,0,4.051-9.273c-.008-2.076-.142-4.159-.109-6.235.05-4.3,2.268-5.7,6.168-3.8a37.922,37.922,0,0,0,11.75,3.992,36.088,36.088,0,0,0,6.586.243,9.681,9.681,0,0,0,8.268-5.5c.711-1.322,1.188-2.77,1.783-4.159a12,12,0,0,1,9.022-7.549,7.936,7.936,0,0,1,3.172.025,14.421,14.421,0,0,1,8.176,5.113,11.061,11.061,0,0,1,1.866,4.971v.017a6.542,6.542,0,0,1-.126,2.929" transform="translate(-72.78 -19.507)" fill="#6c4a36"/>
    <path id="Path_3587" data-name="Path 3587" d="M479.2,154.629a4.34,4.34,0,0,1-.519,1.791,75.176,75.176,0,0,1-3.749,6.544,55.157,55.157,0,0,1-14.436,14.018c-.594.41-1.13.912-1.69,1.373l.025-.025a9.706,9.706,0,0,0-1.339.619c-10.034,6.226-21.006,9.976-32.546,12.177a114.187,114.187,0,0,1-25.768,1.908c-14.855-.586-29.09-3.691-42.363-10.587-8.268-4.3-15.524-9.85-21.064-17.449a20.012,20.012,0,0,1-1.456-2.2,1.851,1.851,0,0,1,.444-2.67c.82-.5,1.632-.276,2.469.678.126.142.234.3.343.452,5.465,8.009,12.9,13.725,21.366,18.2a92.866,92.866,0,0,0,27.517,9.089,109.471,109.471,0,0,0,29.944,1.1c14.16-1.389,27.559-5.264,39.785-12.712,8.838-5.39,16.035-12.378,20.613-21.818a4.241,4.241,0,0,1,.837-1.247c.226-.218.778-.393.979-.268a1.387,1.387,0,0,1,.611,1.021" transform="translate(-75.621 -25.049)" fill="#bc906f"/>
    <path id="Path_3588" data-name="Path 3588" d="M426.667,143.368a5.4,5.4,0,0,1-3.674,4.41,20.634,20.634,0,0,1-8.561.937c-1.573-.084-3.147-.126-4.712-.293a7.372,7.372,0,0,1-2.511-.653,2.8,2.8,0,0,1-1.59-3.456,36.274,36.274,0,0,1,1.431-5.08c1.264-3.289,2.67-6.519,4.051-9.766.251-.586.452-1.54,1.356-1.205.854.318.519,1.163.31,1.816-.862,2.695-1.758,5.381-2.594,8.084-.561,1.8-1.046,3.624-1.531,5.448a10.108,10.108,0,0,0-.167,1.506,4.325,4.325,0,0,0,.962.31c3.08.142,6.159.326,9.239.368a14.269,14.269,0,0,0,3.331-.544,2.66,2.66,0,0,0,1.908-1.691c.4-.987-.092-1.665-1.138-1.5a12.086,12.086,0,0,0-1.757.527c-.619-1.783.176-3.013,1.967-3.155a3.389,3.389,0,0,1,3.682,3.933" transform="translate(-87.295 -20.91)" fill="#7c5c47"/>
    <path id="Path_3589" data-name="Path 3589" d="M388.761,79.04a2.464,2.464,0,0,0-1.875-2.134,7.29,7.29,0,0,0-1.849-.293c-4.954-.2-9.248,1.615-13.156,4.469a7.725,7.725,0,0,0-1.28,1.582c-.352.452-.686.9-1.08,1.414a4.463,4.463,0,0,0,2.745.753,35.924,35.924,0,0,0,11.214-1.322,19.257,19.257,0,0,0,4.235-2.025,2.224,2.224,0,0,0,1.046-2.444" transform="translate(-81.425 -12.494)" fill="#7c5c47"/>
    <path id="Path_3590" data-name="Path 3590" d="M484.238,80.855a5.519,5.519,0,0,0-3.163-2.527,47.5,47.5,0,0,0-4.887-1.347,7.889,7.889,0,0,0-2.8-.017c-2.377.385-3.1,1.824-2.142,4.042.075.176.151.352.218.511.67.218,1.2.343,1.7.552,1.147.494,2.26,1.113,3.44,1.506a11.034,11.034,0,0,0,6.285.527c1.8-.444,2.285-1.624,1.356-3.247" transform="translate(-97.95 -12.535)" fill="#7c5c47"/>
    <path id="Path_3591" data-name="Path 3591" d="M379.052,109.472c-.259-.728-.51-1.465-.787-2.193s-.569-1.423-.954-2.393h3.3c1.389,2.527.988,3.674-1.557,4.586" transform="translate(-82.696 -17.108)" fill="#eae4e1"/>
    <path id="Path_3592" data-name="Path 3592" d="M379.052,109.472c-.259-.728-.51-1.465-.787-2.193s-.569-1.423-.954-2.393h3.3c1.389,2.527.988,3.674-1.557,4.586" transform="translate(-82.696 -17.108)" fill="#282625"/>
    <path id="Path_3593" data-name="Path 3593" d="M475.577,104.615c-1.205-.661-1.331-1.808-.8-3.189,1.523.879,3.54.6,4.427,2.519a2.7,2.7,0,0,1-3.624.67" transform="translate(-98.545 -16.544)" fill="#eae4e1"/>
    <path id="Path_3594" data-name="Path 3594" d="M479.2,103.912a2.7,2.7,0,0,1-3.624.67c-1.205-.661-1.331-1.808-.8-3.189,1.523.879,3.586-2.152,4.427,2.519" transform="translate(-98.545 -16.511)" fill="#282625"/>
    <g id="Group_213" data-name="Group 213" transform="translate(0 187.824)" style="isolation: isolate">
      <g id="Group_212" data-name="Group 212">
        <g id="Group_211" data-name="Group 211" clip-path="url(#clip-path-2)">
          <g id="Group_210" data-name="Group 210" style="isolation: isolate">
            <g id="Group_209" data-name="Group 209">
              <g id="Group_208" data-name="Group 208" clip-path="url(#clip-path-2)">
                <text id="Welcome_to_Paal_s_Portfolio_" data-name="Welcome to Paal’s Portfolio!" transform="translate(0.396 50.912)" fill="#fdc675" font-size="60" font-family="Flyover"><tspan x="0" y="0">Welcome to Paal’s Portfolio!</tspan></text>
              </g>
            </g>
          </g>
        </g>
      </g>
    </g>
    <path id="Path_3595" data-name="Path 3595" d="M1.891,0S-4.661,6.147,6.627,19.235c0,0,4.081-15.512-4.736-19.235" transform="translate(440.449 187.824) rotate(23)" fill="#fdc675"/>
    <path id="Path_3596" data-name="Path 3596" d="M543.478,217.342s-.342-36.169-48.627-43.666" transform="translate(-101.868 -28.329)" fill="none" stroke="#fdc675" stroke-miterlimit="10" stroke-width="1"/>
  </g>
</svg>
