<svg xmlns="http://www.w3.org/2000/svg" width="31.173" height="27.796" viewBox="0 0 31.173 27.796">
  <g id="Group_79" data-name="Group 79" transform="translate(31.173) rotate(90)">
    <path id="Path_1577" data-name="Path 1577" d="M1.823,5.106,1.78,0A3.934,3.934,0,0,0,.055.793.3.3,0,0,0,0,.856.537.537,0,0,0,.061.817L1.31,5.156h0a3.951,3.951,0,0,1,.512-.05Z" transform="translate(1.585 17.366) rotate(-90)" fill="#325841"/>
    <path id="Path_1578" data-name="Path 1578" d="M0,.916v0Z" transform="translate(6.691 15.543) rotate(-90)" fill="#2c6a4c"/>
    <path id="Path_1579" data-name="Path 1579" d="M6.985.767a1.385,1.385,0,0,0-.2-.587S3.691-1.262,1.019,4.012C-.692,7.388.1,9.357.887,10.336l.02.022s0,0,0,0l.009.01a1.825,1.825,0,0,0,.122.14l.026.03a3.582,3.582,0,0,0,.431.393l0,0a2.24,2.24,0,0,0,.254.174l.014.009.005,0-.013-.071a1.889,1.889,0,0,0-.21-.582A6.177,6.177,0,0,1,2,3.7,10.934,10.934,0,0,1,3.97,1.436,3.208,3.208,0,0,1,5.706.67a4.768,4.768,0,0,1,1.28.1Z" transform="translate(0 24.772) rotate(-90)" fill="#fedfaf"/>
    <path id="Path_1580" data-name="Path 1580" d="M6.711,1.718,6.237.106h0a4.767,4.767,0,0,0-1.28-.1A3.208,3.208,0,0,0,3.219.775,10.934,10.934,0,0,0,1.248,3.039a6.177,6.177,0,0,0-.29,7.036c.02.127.042.256.067.387.128.088.269.19.422.31a7.1,7.1,0,0,1,.671.595A6.591,6.591,0,0,1,3.03,5.681a9.942,9.942,0,0,1,3.623-3.9,0,0,0,0,0,0,0,0,0,0,0,0,0,0c.018-.022.037-.042.055-.063Z" transform="translate(0.661 24.022) rotate(-90)" fill="#f9c66a"/>
    <path id="Path_1581" data-name="Path 1581" d="M.74.793C.733.745.727.7.722.647L.671.595A7.1,7.1,0,0,0,0,0,5.907,5.907,0,0,0,.74.793Z" transform="translate(11.434 22.576) rotate(-90)" fill="#f9c66a"/>
    <path id="Path_1582" data-name="Path 1582" d="M.195.3C.133.192.071.094.006,0,0,.183,0,.37,0,.562Z" transform="translate(13.159 20.994) rotate(-90)" fill="#ed383a"/>
    <path id="Path_1583" data-name="Path 1583" d="M6.139,4.338,4.891,0a.535.535,0,0,1-.061.039,0,0,0,0,1,0,0,0,0,0,0,1,0,0A9.942,9.942,0,0,0,1.2,3.94,6.591,6.591,0,0,0,.291,9.626l.051.052a7.659,7.659,0,0,1,.867,1.078c.148-4.569,2.835-5.91,4.378-6.3.209-.054.4-.089.553-.114Z" transform="translate(2.402 22.196) rotate(-90)" fill="#de3e45"/>
    <path id="Path_1584" data-name="Path 1584" d="M.069.2C.063.15.056.1.051.052L0,0C.022.068.046.135.069.2Z" transform="translate(12.028 21.905) rotate(-90)" fill="#ed383a"/>
    <path id="Path_1585" data-name="Path 1585" d="M7.219,11.946l-.01-.035-.214-.732A9.719,9.719,0,0,1,4.34,7.439a6.87,6.87,0,0,1,.084-4.884c.014-.042.029-.084.044-.125.008-.021.016-.041.022-.061.027-.072.054-.141.08-.205l.008-.02c.013-.034.027-.068.042-.1s.03-.072.046-.108c.064-.146.132-.3.207-.444.007-.014.01-.021.01-.021s-.042-.056-.116-.145C4.413.9,3.312-.255,2.19.051.826.423,0,2.861,0,5.051c0,6.678,6.691,7.067,6.691,7.067l.076.02c.108-.06.25-.136.421-.217l.031.026Z" transform="translate(7.05 31.173) rotate(-90)" fill="#de3e45"/>
    <path id="Path_1586" data-name="Path 1586" d="M4.167,10.448l-.01-.008c-.037-.027-.165-.125-.354-.289l-.024-.021c-.078-.068-.167-.148-.263-.237l.007.02A9.719,9.719,0,0,1,.868,6.173,6.87,6.87,0,0,1,.951,1.29C.966,1.248.98,1.206,1,1.164c.008-.021.016-.041.022-.061.027-.072.054-.141.08-.205l.008-.02c.013-.034.027-.068.042-.1S1.178.7,1.193.668c.064-.146.132-.3.207-.444A.234.234,0,0,1,1.41.2S1.434.124,1.294.057A.78.78,0,0,0,1.106,0C.762-.065-.743,3.636.456,6.348a8.98,8.98,0,0,0,3.26,4.306l.031.026-.01-.035c.125-.06.265-.123.421-.184Z" transform="translate(8.315 27.701) rotate(-90)" fill="#fedfaf"/>
    <path id="Path_1587" data-name="Path 1587" d="M3.078,2.452s.222-.563.641-.22c-.009-.012-.069-.089-.171-.208l-.026-.03a1.832,1.832,0,0,1-.122-.14l-.009-.01s0,0,0,0l-.02-.022A6.063,6.063,0,0,0,.963,0a.233.233,0,0,0-.01.021C.878.17.81.319.746.465.73.5.715.537.7.574S.671.642.658.676L.65.7C.624.759.6.829.571.9.564.922.556.941.549.962.533,1,.518,1.046.5,1.088A6.87,6.87,0,0,0,.42,5.971a9.719,9.719,0,0,0,2.655,3.74l-.007-.02c.1.089.184.169.263.237l.024.021c.115.1.233.192.354.289l.01.008.008.005A7.477,7.477,0,0,1,6.7,9.7c.007-.037.009-.056.009-.056C4.937,9.192,1.775,7.66,3.078,2.452Z" transform="translate(8.517 27.253) rotate(-90)" fill="#f9c66a"/>
    <path id="Path_1588" data-name="Path 1588" d="M.207,0C.179.054.1.209,0,.444.064.3.132.149.207,0Z" transform="translate(8.538 26.507) rotate(-90)" fill="#f9c66a"/>
    <path id="Path_1589" data-name="Path 1589" d="M.263.237C.184.169.1.089,0,0L.007.02C.09.093.176.166.263.237Z" transform="translate(18.209 24.185) rotate(-90)" fill="#f9c66a"/>
    <path id="Path_1590" data-name="Path 1590" d="M.122.14C.085.1.044.051,0,0A1.828,1.828,0,0,0,.122.14Z" transform="translate(10.372 23.854) rotate(-90)" fill="#f9c66a"/>
    <path id="Path_1591" data-name="Path 1591" d="M3.49,3.082c0-.192,0-.379.005-.562a7.66,7.66,0,0,0-.867-1.078c.005.048.012.1.018.146a5.907,5.907,0,0,1-.74-.793c-.153-.12-.294-.222-.422-.31l-.005,0L1.465.473A2.239,2.239,0,0,1,1.211.3l0,0C1.1.226,1.015.166.949.112h0C.529-.233.307.331.307.331-1,5.539,2.166,7.071,3.935,7.518c.118.029.23.055.333.075.158.012.319.03.482.056A5.832,5.832,0,0,1,3.566,4.391Q3.5,3.7,3.49,3.082Z" transform="translate(10.639 24.482) rotate(-90)" fill="#de3e45"/>
    <path id="Path_1592" data-name="Path 1592" d="M.254.174C.161.108.076.052,0,0A2.24,2.24,0,0,0,.254.174Z" transform="translate(10.938 23.271) rotate(-90)" fill="#ed383a"/>
    <path id="Path_1593" data-name="Path 1593" d="M.74.793C.733.745.727.7.722.647L.671.595A7.1,7.1,0,0,0,0,0,5.907,5.907,0,0,0,.74.793Z" transform="translate(11.434 22.576) rotate(-90)" fill="#ed383a"/>
    <path id="Path_1594" data-name="Path 1594" d="M.195.3C.133.192.071.094.006,0,0,.183,0,.37,0,.562Z" transform="translate(13.159 20.994) rotate(-90)" fill="#ed383a"/>
    <path id="Path_1595" data-name="Path 1595" d="M.766.106C.671.086.576.071.482.056.319.03.158.012,0,0,.2.042.375.067.5.082.671.1.766.106.766.106Z" transform="translate(18.231 20.213) rotate(-90)" fill="#ed383a"/>
    <path id="Path_1596" data-name="Path 1596" d="M2.673,9.285c-.865-5.24,2.447-5.6,2.776-5.626V0a3.952,3.952,0,0,0-.512.05h0c-.157.025-.344.06-.553.114C2.84.558.153,1.9.005,6.468c.064.094.127.192.188.3L0,7.03q.008.618.076,1.308A5.832,5.832,0,0,0,1.261,11.6c.094.014.188.03.284.05a13.84,13.84,0,0,1,3.732,1.179c.111-.022.173-.039.173-.039v-.5C5.195,12.276,3.137,12.1,2.673,9.285Z" transform="translate(6.691 20.992) rotate(-90)" fill="#a02c40"/>
    <path id="Path_1597" data-name="Path 1597" d="M.195.3C.133.192.071.094.006,0,0,.183,0,.37,0,.562Z" transform="translate(13.159 20.994) rotate(-90)" fill="#b0293d"/>
    <path id="Path_1598" data-name="Path 1598" d="M.284.05C.188.03.094.014,0,0,.008.009.016.017.022.026.188.046.284.05.284.05Z" transform="translate(18.287 19.731) rotate(-90)" fill="#b0293d"/>
    <path id="Path_1599" data-name="Path 1599" d="M2.92,8.627V0C2.591.022-.722.386.144,5.626.608,8.44,2.665,8.617,2.92,8.627Z" transform="translate(10.35 18.463) rotate(-90)" fill="#b0293d"/>
    <path id="Path_1600" data-name="Path 1600" d="M6.383.018a.028.028,0,0,1,.054.011c-.016,1.009-.3,6.359-4.4,6.359A2.134,2.134,0,0,1,0,5.107S.5,4.06,2.871,3.283A5.592,5.592,0,0,0,6.383.018Z" transform="translate(21.409 22.098) rotate(-90)" fill="#325841"/>
    <path id="Path_1601" data-name="Path 1601" d="M12.757,2.127a10.212,10.212,0,0,1-5.082,2.72l-.048.005c-.167.022-.329.035-.489.041l-.116,0h-.09c-.182.005-.366,0-.553-.009a7.218,7.218,0,0,1-4.961-2.5c-.018-.021-.035-.043-.052-.065l0,0L1.33,2.276c-.037-.047-.073-.094-.107-.141-.018-.022-.033-.046-.048-.068a4.108,4.108,0,0,1-.333-.574.08.08,0,0,1-.007-.016c-.01-.021-.02-.042-.029-.061s-.022-.05-.033-.075l-.01-.024C.436.536.491-.035.408,0a0,0,0,0,0,0,0A.046.046,0,0,0,.391.016L.381.028C-1.377,2.4,3.361,5.74,6.207,5.74A9.2,9.2,0,0,0,7.93,5.585h0c.193-.037.379-.078.558-.125l.009,0a6.478,6.478,0,0,0,4.247-3.306s0,0,0-.005a.054.054,0,0,0,0-.01s0,0,0-.005a0,0,0,0,0,0,0Z" transform="translate(19.335 28.405) rotate(-90)" fill="#fedfaf"/>
    <path id="Path_1602" data-name="Path 1602" d="M12.349,2.484V1.322a.646.646,0,0,1-.072.112c-.4.936-1.7,2.221-5.854,1.195A4.685,4.685,0,0,1,3.525.681C1.165-.524.171.205,0,.358.082.322.027.893.354,1.675l.01.024c.01.025.021.05.033.075s.018.041.029.061a.08.08,0,0,0,.007.016,5.055,5.055,0,0,0,.333.574c.016.022.03.046.048.068.034.047.071.094.107.141l.031.041,0,0c.017.022.034.044.052.065a7.218,7.218,0,0,0,4.961,2.5c.187.01.371.014.553.009h.09l.116,0c.166-.008.329-.021.489-.041L7.267,5.2A10.212,10.212,0,0,0,12.349,2.484Z" transform="translate(18.978 27.996) rotate(-90)" fill="#f9c66a"/>
    <path id="Path_1603" data-name="Path 1603" d="M0,.028a4.975,4.975,0,0,0,.382,1.29C.055.536.11-.035.027,0a0,0,0,0,0,0,0L.01.016Z" transform="translate(19.335 28.024) rotate(-90)" fill="#f9c66a"/>
    <path id="Path_1604" data-name="Path 1604" d="M5.082,0A10.212,10.212,0,0,1,0,2.72,8.529,8.529,0,0,0,5.081,0,0,0,0,0,0,5.082,0Z" transform="translate(21.462 20.73) rotate(-90)" fill="#f9c66a"/>
    <path id="Path_1605" data-name="Path 1605" d="M2.946,8.631V0L2.92,0C2.591.025-.722.388.144,5.629c.464,2.814,2.522,2.991,2.776,3Z" transform="translate(10.347 18.463) rotate(-90)" fill="#e15c8f"/>
    <path id="Path_1606" data-name="Path 1606" d="M.993,4.537S-1.242,1.995.993,0Z" transform="translate(13.716 16.51) rotate(-90)" fill="#fedfaf"/>
    <path id="Path_1607" data-name="Path 1607" d="M9.065,1.278a.616.616,0,0,1-.286-.053A13.044,13.044,0,0,0,5.2.127s-.1,0-.261-.024c-.129-.016-.3-.041-.5-.082C4.322.012,4.208.005,4.1,0a7.477,7.477,0,0,0-2.97.556.067.067,0,0,0-.017.008C.953.627.813.69.688.75L.7.785.667.759C.5.84.354.916.246.976.086,1.067,0,1.125,0,1.125a2.407,2.407,0,0,0,.18.324A4.684,4.684,0,0,0,3.078,3.4C7.227,4.423,8.528,3.138,8.932,2.2a1.791,1.791,0,0,0,.133-.925Z" transform="translate(18.21 24.651) rotate(-90)" fill="#de3e45"/>
    <path id="Path_1608" data-name="Path 1608" d="M.031.035.021,0A.145.145,0,0,0,0,.009L.031.035Z" transform="translate(18.96 23.985) rotate(-90)" fill="#ed383a"/>
    <path id="Path_1609" data-name="Path 1609" d="M.766.106C.671.086.576.071.482.056.319.03.158.012,0,0,.2.042.375.067.5.082.671.1.766.106.766.106Z" transform="translate(18.231 20.213) rotate(-90)" fill="#ed383a"/>
    <path id="Path_1610" data-name="Path 1610" d="M0,5.106.043,0A3.935,3.935,0,0,1,1.769.793a.3.3,0,0,1,.055.063A.537.537,0,0,1,1.762.817L.514,5.156h0A3.951,3.951,0,0,0,0,5.106Z" transform="translate(1.585 15.63) rotate(-90)" fill="#325841"/>
    <path id="Path_1611" data-name="Path 1611" d="M0,.916v0Z" transform="translate(6.691 15.631) rotate(-90)" fill="#2c6a4c"/>
    <path id="Path_1612" data-name="Path 1612" d="M0,.767A1.385,1.385,0,0,1,.2.18S3.294-1.262,5.966,4.012c1.711,3.376.922,5.345.132,6.324l-.02.022s0,0,0,0l-.009.01a1.828,1.828,0,0,1-.122.14l-.026.03a3.582,3.582,0,0,1-.431.393l0,0a2.239,2.239,0,0,1-.254.174l-.014.009-.005,0,.013-.071a1.889,1.889,0,0,1,.21-.582A6.177,6.177,0,0,0,4.987,3.7,10.934,10.934,0,0,0,3.016,1.436,3.208,3.208,0,0,0,1.28.67,4.768,4.768,0,0,0,0,.767Z" transform="translate(0 13.385) rotate(-90)" fill="#fedfaf"/>
    <path id="Path_1613" data-name="Path 1613" d="M0,1.718.473.106h0a4.767,4.767,0,0,1,1.28-.1A3.208,3.208,0,0,1,3.491.775,10.934,10.934,0,0,1,5.463,3.039a6.177,6.177,0,0,1,.29,7.036c-.02.127-.042.256-.067.387-.128.088-.269.19-.422.31a7.1,7.1,0,0,0-.671.595,6.591,6.591,0,0,0-.912-5.686,9.942,9.942,0,0,0-3.623-3.9,0,0,0,0,1,0,0,0,0,0,0,1,0,0C.037,1.758.018,1.739,0,1.718Z" transform="translate(0.661 13.861) rotate(-90)" fill="#f9c66a"/>
    <path id="Path_1614" data-name="Path 1614" d="M0,.793C.007.745.013.7.018.647L.069.595A7.1,7.1,0,0,1,.74,0,5.907,5.907,0,0,1,0,.793Z" transform="translate(11.434 9.337) rotate(-90)" fill="#f9c66a"/>
    <path id="Path_1615" data-name="Path 1615" d="M0,.3c.061-.1.124-.2.188-.3C.195.183.2.37.193.562Z" transform="translate(13.159 10.374) rotate(-90)" fill="#ed383a"/>
    <path id="Path_1616" data-name="Path 1616" d="M0,4.338,1.248,0A.536.536,0,0,0,1.31.039a0,0,0,0,0,0,0,0,0,0,0,0,0,0,9.942,9.942,0,0,1,3.623,3.9,6.591,6.591,0,0,1,.912,5.686L5.8,9.678a7.659,7.659,0,0,0-.867,1.078C4.783,6.188,2.1,4.847.553,4.452.344,4.4.157,4.363,0,4.338Z" transform="translate(2.402 15.116) rotate(-90)" fill="#de3e45"/>
    <path id="Path_1617" data-name="Path 1617" d="M0,.2C.007.15.013.1.018.052L.069,0C.047.068.024.135,0,.2Z" transform="translate(12.028 9.337) rotate(-90)" fill="#ed383a"/>
    <path id="Path_1618" data-name="Path 1618" d="M0,11.946l.01-.035.214-.732A9.719,9.719,0,0,0,2.88,7.439,6.87,6.87,0,0,0,2.8,2.555c-.014-.042-.029-.084-.044-.125-.008-.021-.016-.041-.022-.061-.027-.072-.054-.141-.08-.205l-.008-.02c-.013-.034-.027-.068-.042-.1s-.03-.072-.046-.108c-.064-.146-.132-.3-.207-.444-.007-.014-.01-.021-.01-.021s.042-.056.116-.145C2.807.9,3.907-.255,5.03.051c1.363.373,2.19,2.81,2.19,5,0,6.678-6.691,7.067-6.691,7.067l-.076.02C.344,12.077.2,12,.031,11.92L0,11.946Z" transform="translate(7.05 7.22) rotate(-90)" fill="#de3e45"/>
    <path id="Path_1619" data-name="Path 1619" d="M0,10.448l.01-.008c.037-.027.165-.125.354-.289l.024-.021c.078-.068.167-.148.263-.237l-.007.02A9.719,9.719,0,0,0,3.3,6.173,6.87,6.87,0,0,0,3.216,1.29c-.014-.042-.029-.084-.044-.125-.008-.021-.016-.041-.022-.061C3.122,1.031,3.1.962,3.069.9L3.061.878C3.048.844,3.034.81,3.02.776S2.989.7,2.974.668C2.91.521,2.842.372,2.767.223A.231.231,0,0,0,2.757.2S2.733.124,2.873.057A.78.78,0,0,1,3.061,0c.344-.065,1.848,3.635.65,6.348a8.98,8.98,0,0,1-3.26,4.306L.42,10.68l.01-.035c-.125-.06-.265-.123-.421-.184Z" transform="translate(8.315 7.639) rotate(-90)" fill="#fedfaf"/>
    <path id="Path_1620" data-name="Path 1620" d="M3.629,2.452s-.222-.563-.641-.22c.009-.012.069-.089.171-.208l.026-.03a1.83,1.83,0,0,0,.122-.14l.009-.01s0,0,0,0l.02-.022A6.063,6.063,0,0,1,5.744,0a.233.233,0,0,1,.01.021c.075.149.142.3.207.444.016.037.031.072.046.108s.029.068.042.1L6.056.7c.026.064.052.133.08.205.007.021.014.041.022.061.016.042.03.084.044.125a6.87,6.87,0,0,1,.084,4.884,9.719,9.719,0,0,1-2.655,3.74l.007-.02c-.1.089-.184.169-.263.237l-.024.021c-.115.1-.233.192-.354.289l-.01.008-.008.005A7.477,7.477,0,0,0,.009,9.7C0,9.659,0,9.639,0,9.639,1.77,9.192,4.932,7.66,3.629,2.452Z" transform="translate(8.517 10.626) rotate(-90)" fill="#f9c66a"/>
    <path id="Path_1621" data-name="Path 1621" d="M0,0C.027.054.107.209.207.444.142.3.075.149,0,0Z" transform="translate(8.538 4.872) rotate(-90)" fill="#f9c66a"/>
    <path id="Path_1622" data-name="Path 1622" d="M0,.237C.078.169.167.089.263,0L.256.02C.173.093.086.166,0,.237Z" transform="translate(18.209 7.251) rotate(-90)" fill="#f9c66a"/>
    <path id="Path_1623" data-name="Path 1623" d="M0,.14C.037.1.077.051.122,0A1.828,1.828,0,0,1,0,.14Z" transform="translate(10.372 7.44) rotate(-90)" fill="#f9c66a"/>
    <path id="Path_1624" data-name="Path 1624" d="M1.261,3.082c0-.192,0-.379-.005-.562a7.66,7.66,0,0,1,.867-1.078c-.005.048-.012.1-.018.146a5.907,5.907,0,0,0,.74-.793c.153-.12.294-.222.422-.31l.005,0L3.286.473A2.241,2.241,0,0,0,3.54.3l0,0c.1-.071.192-.131.259-.184h0c.418-.344.641.22.641.22,1.3,5.208-1.859,6.74-3.629,7.187-.118.029-.23.055-.333.075C.324,7.6.163,7.622,0,7.648A5.832,5.832,0,0,0,1.186,4.391Q1.254,3.7,1.261,3.082Z" transform="translate(10.639 11.442) rotate(-90)" fill="#de3e45"/>
    <path id="Path_1625" data-name="Path 1625" d="M0,.174C.093.108.178.052.254,0A2.238,2.238,0,0,1,0,.174Z" transform="translate(10.938 8.155) rotate(-90)" fill="#ed383a"/>
    <path id="Path_1626" data-name="Path 1626" d="M0,.793C.007.745.013.7.018.647L.069.595A7.1,7.1,0,0,1,.74,0,5.907,5.907,0,0,1,0,.793Z" transform="translate(11.434 9.337) rotate(-90)" fill="#ed383a"/>
    <path id="Path_1627" data-name="Path 1627" d="M0,.3c.061-.1.124-.2.188-.3C.195.183.2.37.193.562Z" transform="translate(13.159 10.374) rotate(-90)" fill="#ed383a"/>
    <path id="Path_1628" data-name="Path 1628" d="M0,.106C.1.086.19.071.284.056.447.03.608.012.766,0c-.2.042-.375.067-.5.082C.1.1,0,.106,0,.106Z" transform="translate(18.231 11.725) rotate(-90)" fill="#ed383a"/>
    <path id="Path_1629" data-name="Path 1629" d="M2.776,9.285C3.642,4.044.329,3.681,0,3.659V0A3.952,3.952,0,0,1,.512.05h0c.157.025.344.06.553.114C2.609.558,5.3,1.9,5.444,6.468c-.064.094-.127.192-.188.3l.193.267q-.008.618-.076,1.308A5.832,5.832,0,0,1,4.188,11.6c-.094.014-.188.03-.284.05A13.84,13.84,0,0,0,.173,12.825C.061,12.8,0,12.785,0,12.785v-.5C.255,12.276,2.312,12.1,2.776,9.285Z" transform="translate(6.691 15.63) rotate(-90)" fill="#a02c40"/>
    <path id="Path_1630" data-name="Path 1630" d="M0,.3c.061-.1.124-.2.188-.3C.195.183.2.37.193.562Z" transform="translate(13.159 10.374) rotate(-90)" fill="#b0293d"/>
    <path id="Path_1631" data-name="Path 1631" d="M0,.05C.1.03.19.014.284,0,.276.009.268.017.261.026.1.046,0,.05,0,.05Z" transform="translate(18.287 11.725) rotate(-90)" fill="#b0293d"/>
    <path id="Path_1632" data-name="Path 1632" d="M0,8.627V0C.329.022,3.642.386,2.776,5.626,2.312,8.44.255,8.617,0,8.627Z" transform="translate(10.35 15.63) rotate(-90)" fill="#b0293d"/>
    <path id="Path_1633" data-name="Path 1633" d="M.054.018A.028.028,0,0,0,0,.028C.016,1.038.3,6.388,4.4,6.388a2.134,2.134,0,0,0,2.04-1.281s-.5-1.047-2.871-1.824A5.592,5.592,0,0,1,.054.018Z" transform="translate(21.409 15.511) rotate(-90)" fill="#325841"/>
    <path id="Path_1634" data-name="Path 1634" d="M0,2.127a10.212,10.212,0,0,0,5.082,2.72l.048.005c.167.022.329.035.489.041l.116,0h.09c.182.005.366,0,.553-.009a7.218,7.218,0,0,0,4.961-2.5c.018-.021.035-.043.052-.065l0,0,.031-.041c.037-.047.073-.094.107-.141.018-.022.033-.046.048-.068a4.109,4.109,0,0,0,.333-.574.079.079,0,0,0,.007-.016c.01-.021.02-.042.029-.061s.022-.05.033-.075c0-.008.007-.016.01-.024.327-.782.272-1.353.354-1.316a0,0,0,0,1,0,0,.046.046,0,0,1,.016.013l.01.012C14.134,2.4,9.4,5.74,6.55,5.74a9.2,9.2,0,0,1-1.723-.156h0c-.193-.037-.379-.078-.558-.125l-.009,0A6.478,6.478,0,0,1,.01,2.151s0,0,0-.005a.054.054,0,0,1,0-.01s0,0,0-.005a0,0,0,0,1,0,0Z" transform="translate(19.335 15.525) rotate(-90)" fill="#fedfaf"/>
    <path id="Path_1635" data-name="Path 1635" d="M0,2.484V1.322a.645.645,0,0,0,.072.112c.4.936,1.7,2.221,5.854,1.195A4.685,4.685,0,0,0,8.823.681C11.184-.524,12.178.205,12.349.358c-.082-.037-.027.535-.354,1.316l-.01.024c-.01.025-.021.05-.033.075s-.018.041-.029.061a.081.081,0,0,1-.007.016,5.055,5.055,0,0,1-.333.574c-.016.022-.03.046-.048.068-.034.047-.071.094-.107.141l-.031.041,0,0c-.017.022-.034.044-.052.065a7.218,7.218,0,0,1-4.961,2.5c-.187.01-.371.014-.553.009h-.09l-.116,0c-.166-.008-.329-.021-.489-.041L5.082,5.2A10.212,10.212,0,0,1,0,2.484Z" transform="translate(18.978 15.525) rotate(-90)" fill="#f9c66a"/>
    <path id="Path_1636" data-name="Path 1636" d="M.382.028A4.975,4.975,0,0,1,0,1.318C.327.536.272-.035.354,0a0,0,0,0,1,0,0L.371.016Z" transform="translate(19.335 3.531) rotate(-90)" fill="#f9c66a"/>
    <path id="Path_1637" data-name="Path 1637" d="M0,0A10.212,10.212,0,0,0,5.082,2.72,8.529,8.529,0,0,1,0,0,0,0,0,0,1,0,0Z" transform="translate(21.462 15.525) rotate(-90)" fill="#f9c66a"/>
    <path id="Path_1638" data-name="Path 1638" d="M0,8.631V0L.026,0C.356.025,3.668.388,2.8,5.629,2.339,8.443.281,8.619.026,8.63Z" transform="translate(10.347 15.656) rotate(-90)" fill="#e15c8f"/>
    <path id="Path_1639" data-name="Path 1639" d="M0,4.3S2.118,1.89,0,0Z" transform="translate(13.835 15.63) rotate(-90)" fill="#fedfaf"/>
    <path id="Path_1640" data-name="Path 1640" d="M.014,1.278A.616.616,0,0,0,.3,1.225,13.044,13.044,0,0,1,3.875.127s.1,0,.261-.024c.129-.016.3-.041.5-.082.116-.009.23-.016.342-.018a7.477,7.477,0,0,1,2.97.556.068.068,0,0,1,.017.008c.156.061.3.124.421.184l-.01.035L8.413.759c.171.081.312.157.421.217.159.09.246.149.246.149a2.4,2.4,0,0,1-.18.324A4.684,4.684,0,0,1,6,3.4C1.852,4.423.551,3.138.147,2.2a1.791,1.791,0,0,1-.133-.925Z" transform="translate(18.21 15.601) rotate(-90)" fill="#de3e45"/>
    <path id="Path_1641" data-name="Path 1641" d="M0,.035.01,0A.145.145,0,0,1,.031.009L0,.035Z" transform="translate(18.96 7.22) rotate(-90)" fill="#ed383a"/>
    <path id="Path_1642" data-name="Path 1642" d="M0,.106C.1.086.19.071.284.056.447.03.608.012.766,0c-.2.042-.375.067-.5.082C.1.1,0,.106,0,.106Z" transform="translate(18.231 11.725) rotate(-90)" fill="#ed383a"/>
  </g>
</svg>
