<?xml version="1.0" encoding="utf-8"?>
<!-- Generator: Adobe Illustrator 26.3.1, SVG Export Plug-In . SVG Version: 6.00 Build 0)  -->
<svg version="1.1" id="Layer_1" xmlns="http://www.w3.org/2000/svg" xmlns:xlink="http://www.w3.org/1999/xlink" x="0px" y="0px"
	 viewBox="0 0 31.2 27.8" style="enable-background:new 0 0 31.2 27.8;" xml:space="preserve">
<style type="text/css">
	.st0{fill:#325841;}
	.st1{fill:#2C6A4C;}
	.st2{fill:#FDC675;}
	.st3{fill:#F9C66A;}
	.st4{fill:#DE3E45;}
	.st5{fill:#FEDFAF;}
	.st6{fill:#A02C40;}
	.st7{fill:#B0293D;}
	.st8{fill:#E15C8F;}
</style>
<g id="Group_79" transform="translate(31.173) rotate(90)">
	<path class="st0" d="M6.7,15.5L6.7,15.5C6.7,15.6,6.7,15.6,6.7,15.5c0,0.2,0,0.4,0.1,0.5l-4.3,1.2c0,0,0,0,0,0.1c0,0,0,0-0.1,0
		c-0.4-0.5-0.7-1.1-0.8-1.7L6.7,15.5z"/>
	<path id="Path_1578" class="st1" d="M7.6,15.5L7.6,15.5z"/>
	<path class="st2" d="M2.4,17.3C2.4,17.3,2.4,17.3,2.4,17.3c1,1.6,2.4,2.8,4,3.7c0.7,0.5,1.5,0.8,2.3,1c0.3,0.1,0.7,0.1,1,0.1
		c0.8,0.1,1.6,0,2.4-0.3c-0.2,0.2-0.4,0.4-0.6,0.7c-0.1,0.2-0.2,0.3-0.3,0.4c0,0,0,0-0.1,0c-0.1,0-0.2,0-0.3,0
		c-0.1,0-0.2,0.1-0.2,0.1c0.2-0.1,0.4-0.2,0.5-0.2l0.1,0v0c0,0-0.1,0.1-0.1,0.1c0,0-0.1,0.1-0.1,0.1c-0.1,0.1-0.2,0.2-0.3,0.4
		c0,0,0,0-0.1,0.1l0,0c0,0-0.1,0.1-0.1,0.1l0,0l0,0c-1,0.8-3,1.6-6.3-0.1C-1.3,21.1,0.2,18,0.2,18c0.2-0.1,0.4-0.2,0.6-0.2L2.4,17.3
		z"/>
	<path class="st3" d="M12.2,21.8c-0.2,0.3-0.5,0.5-0.8,0.7c0.2-0.2,0.4-0.5,0.6-0.7l0,0C12.1,21.9,12.2,21.8,12.2,21.8z"/>
	<path id="Path_1582" class="st4" d="M13.5,20.8c-0.1,0.1-0.2,0.1-0.3,0.2c0.2,0,0.4,0,0.6,0L13.5,20.8z"/>
	<path class="st4" d="M6.7,16.1c0,0.1,0,0.2,0,0.3c0,0.1,0,0.2,0.1,0.3c0,0.1,0,0.1,0.1,0.2c0.5,1.6,1.9,4,6.2,4.2
		c-0.4,0.3-0.8,0.5-1.1,0.9l0,0c-0.8,0.2-1.6,0.3-2.4,0.3c-0.3,0-0.7-0.1-1-0.1c-0.8-0.2-1.6-0.5-2.3-1c-1.6-0.8-3-2.1-3.9-3.6
		c0,0,0,0,0-0.1L6.7,16.1z"/>
	<path id="Path_1584" class="st4" d="M12.2,21.8c-0.1,0-0.1,0-0.1,0L12,21.9C12.1,21.9,12.2,21.9,12.2,21.8z"/>
	<path class="st4" d="M19,24c0.1,0.2,0.2,0.3,0.2,0.4l0,0.1c0,0-0.4,6.7-7.1,6.7c-2.2,0-4.6-0.8-5-2.2c-0.3-1.1,0.8-2.2,1.3-2.6
		c0,0.1,0,0.1-0.1,0.2c-0.1,0.4,3.6,1.9,6.4,0.7C16.4,26.6,17.9,25.5,19,24z"/>
	<path class="st4" d="M19,24L19,24L19,24C19,24,19,24,19,24L19,24z"/>
	<path class="st5" d="M8.5,26.3L8.5,26.3c0,0,0,0-0.1,0.1h0C8.4,26.3,8.5,26.3,8.5,26.3z"/>
	<path class="st5" d="M19,24L19,24C19,24,19,24,19,24L19,24z"/>
	<path class="st2" d="M18.2,20.5C18.2,20.5,18.2,20.5,18.2,20.5c0,0.3,0.1,0.6,0.1,0.9c0,0.5,0.1,1,0.3,1.4c0.1,0.2,0.1,0.5,0.2,0.7
		v0c0.1,0.2,0.1,0.3,0.2,0.4c0,0,0,0,0,0c-1.1,1.5-2.6,2.6-4.3,3.3c-2.7,1.2-6.4-0.3-6.4-0.7c0-0.1,0-0.1,0.1-0.2v0h0
		c0.1-0.1,0.1-0.1,0.1-0.1c0.4-1,1-1.8,1.8-2.4l0,0l0,0c0.1,0,0.1-0.1,0.1-0.1l0,0c0,0,0.1-0.1,0.1-0.1c0.1-0.1,0.1-0.1,0.1-0.1
		c-0.1,0.1-0.1,0.2-0.1,0.3c0,0.2,0.3,0.4,0.3,0.4C16.2,25.5,17.7,22.3,18.2,20.5z"/>
	<path class="st3" d="M18.2,21.4c0.1,0.5,0.1,1,0.3,1.4C18.4,22.4,18.3,21.9,18.2,21.4z"/>
	<path class="st3" d="M18.2,20.6L18.2,20.6c0,0.3,0,0.6,0,0.9C18.2,21.1,18.2,20.8,18.2,20.6z"/>
	<path class="st4" d="M18.3,19.7c0,0.2,0,0.3-0.1,0.5c0,0.1,0,0.2-0.1,0.3c-0.5,1.8-2,4.9-7.2,3.6c0,0-0.3-0.1-0.3-0.4
		c0-0.1,0-0.2,0.1-0.3c0.1-0.1,0.1-0.1,0.2-0.3c0,0,0.1-0.1,0.1-0.1c0,0,0.1-0.1,0.1-0.1l0,0v0c0.1-0.1,0.2-0.3,0.3-0.4
		c0.3-0.2,0.6-0.5,0.8-0.7c-0.1,0-0.1,0-0.2,0c0.3-0.3,0.7-0.6,1.1-0.9c0.2,0,0.4,0,0.6,0c0.4,0,0.8,0,1.3-0.1
		C16.2,20.9,17.4,20.4,18.3,19.7z"/>
	<path class="st4" d="M12.2,21.8c-0.2,0.3-0.5,0.5-0.8,0.7c0.2-0.2,0.4-0.5,0.6-0.7l0,0C12.1,21.9,12.2,21.8,12.2,21.8z"/>
	<path id="Path_1594" class="st4" d="M13.5,20.8c-0.1,0.1-0.2,0.1-0.3,0.2c0.2,0,0.4,0,0.6,0L13.5,20.8z"/>
	<path id="Path_1595" class="st4" d="M18.3,19.4c0,0.1,0,0.2-0.1,0.3c0,0.2,0,0.3-0.1,0.5c0-0.2,0.1-0.4,0.1-0.5
		C18.3,19.5,18.3,19.4,18.3,19.4z"/>
	<path id="Path_1596" class="st6" d="M16,18.3c-5.2,0.9-5.6-2.4-5.6-2.8H6.7c0,0.2,0,0.3,0.1,0.5l0,0c0,0.2,0.1,0.3,0.1,0.6
		c0.4,1.5,1.7,4.2,6.3,4.4c0.1-0.1,0.2-0.1,0.3-0.2l0.3,0.2c0.4,0,0.8,0,1.3-0.1c1.2-0.1,2.3-0.5,3.3-1.2c0-0.1,0-0.2,0.1-0.3
		c0.2-1.3,0.6-2.6,1.2-3.7c0-0.1,0-0.2,0-0.2H19C19,15.8,18.8,17.9,16,18.3z"/>
	<path id="Path_1597" class="st7" d="M13.5,20.8c-0.1,0.1-0.2,0.1-0.3,0.2c0.2,0,0.4,0,0.6,0L13.5,20.8z"/>
	<path id="Path_1598" class="st7" d="M18.3,19.4c0,0.1,0,0.2-0.1,0.3c0,0,0,0,0,0C18.3,19.5,18.3,19.4,18.3,19.4z"/>
	<path class="st7" d="M10.4,15.5h3.6c0,0-0.1,0.1-0.1,0.1c0,0,0,0,0,0c1.7,1.7,3.6,0.4,4.2,0c0,0,0,0,0,0c0,0,0,0,0,0
		c0,0,0,0-0.1-0.1h1c0,0,0,0,0,0c0,0,0,0,0,0.1c0,0,0,0,0,0c0,0.5-0.4,2.2-3,2.7c-2.6,0.4-4-0.2-4.8-1c0,0-0.1-0.1-0.1-0.1
		c0,0-0.1-0.1-0.1-0.1c0,0-0.1-0.1-0.1-0.1c-0.1-0.1-0.1-0.2-0.2-0.3c-0.2-0.3-0.3-0.6-0.3-0.8c0-0.1,0-0.2,0-0.3
		C10.4,15.6,10.4,15.6,10.4,15.5C10.4,15.6,10.4,15.6,10.4,15.5C10.4,15.6,10.4,15.6,10.4,15.5z"/>
	<path class="st0" d="M21.4,15.7L21.4,15.7C21.5,15.7,21.5,15.7,21.4,15.7c1.2,0,6.4,0.4,6.4,4.4c0,0.9-0.5,1.7-1.3,2
		c0,0-1-0.5-1.8-2.9c-0.4-1.3-1.3-2.5-2.6-3.2L22,16c-0.1-0.1-0.3-0.1-0.4-0.2c0,0,0,0,0,0h0C21.5,15.8,21.5,15.7,21.4,15.7
		C21.4,15.7,21.4,15.7,21.4,15.7C21.4,15.7,21.4,15.7,21.4,15.7z"/>
	<path class="st5" d="M21.5,15.7C21.5,15.7,21.5,15.7,21.5,15.7c0.2,0.1,0.4,0.2,0.5,0.3c-0.1-0.1-0.3-0.1-0.4-0.2c0,0,0,0,0,0h0
		C21.6,15.8,21.6,15.8,21.5,15.7C21.5,15.7,21.5,15.7,21.5,15.7z"/>
	<path class="st2" d="M20.3,15.6h1.2c0,0,0,0,0,0h0c0,0,0,0,0,0c0,0,0,0,0,0c0.1,0,0.1,0,0.2,0.1h0c0,0,0,0,0,0
		c0.1,0,0.3,0.1,0.4,0.2l0.1,0.1c1.3,0.9,2.3,2.3,2.7,3.9c0,0.2,0.1,0.4,0.1,0.6c0.1,0.6,0.2,1.2,0.1,1.7c0,2.8-3.3,7.6-5.7,5.8l0,0
		l0,0h0c0,0,0,0,0,0s0,0,0,0c-0.2-0.2-0.8-1.2,0.3-3.5c1-0.7,1.7-1.7,2-2.9c1-4.2-0.3-5.5-1.2-5.9C20.4,15.7,20.3,15.7,20.3,15.6z"
		/>
	<path class="st3" d="M21.4,15.7L21.4,15.7c0.1,0,0.1,0.1,0.1,0.1c0,0,0,0,0,0h0C21.5,15.8,21.5,15.7,21.4,15.7
		C21.4,15.7,21.4,15.7,21.4,15.7C21.4,15.7,21.4,15.7,21.4,15.7z"/>
	<path class="st8" d="M10.4,15.5h3.6c0,0,0,0,0,0c0,0-0.1,0.1-0.1,0.1c0,0,0,0,0,0c1.7,1.7,3.6,0.4,4.2,0c0,0,0,0,0,0c0,0,0,0,0,0
		c0,0,0,0-0.1-0.1c0,0,0,0,0,0h1v0c0,0,0,0,0,0c0,0,0,0,0,0.1c0,0,0,0,0,0c0,0.5-0.4,2.2-3,2.7c-2.6,0.4-4-0.2-4.8-1
		c0,0-0.1-0.1-0.1-0.1c-0.1-0.1-0.1-0.2-0.2-0.3s-0.1-0.2-0.2-0.3c-0.2-0.3-0.3-0.6-0.3-0.8c0-0.1,0-0.2,0-0.3c0,0,0,0,0,0
		C10.4,15.6,10.4,15.6,10.4,15.5C10.4,15.6,10.4,15.6,10.4,15.5L10.4,15.5z"/>
	<path class="st5" d="M18,15.5C18,15.5,18,15.5,18,15.5l0.2,0c0,0,0,0,0,0C18.2,15.6,18.2,15.6,18,15.5C18.1,15.6,18.1,15.6,18,15.5
		z"/>
	<path class="st5" d="M13.7,15.5h0.2c0,0,0,0,0,0c0,0-0.1,0.1-0.1,0.1h0C13.8,15.6,13.8,15.6,13.7,15.5
		C13.7,15.5,13.7,15.5,13.7,15.5z"/>
	<path class="st4" d="M19.5,15.6c0.1,0,0.2,0,0.3,0c0.2,0,0.4,0.1,0.6,0.1c0.9,0.4,2.2,1.7,1.2,5.9c-0.2,1.2-1,2.2-2,2.9
		c-0.1,0.1-0.2,0.1-0.3,0.2c0,0,0-0.1-0.1-0.2c-0.1-0.1-0.1-0.2-0.2-0.4l0,0l0,0c-0.1-0.1-0.1-0.3-0.2-0.4v0
		c-0.1-0.2-0.2-0.4-0.2-0.7c-0.1-0.5-0.2-0.9-0.3-1.4c0-0.3,0-0.6,0-0.9c0-0.1,0-0.2,0-0.3c0-0.2,0.1-0.4,0.1-0.5c0-0.2,0-0.3,0-0.3
		c0,0,0,0,0,0c0-0.1,0-0.1,0-0.2c0.2-1.2,0.6-2.3,1.1-3.4C19.5,15.8,19.5,15.7,19.5,15.6C19.5,15.6,19.5,15.6,19.5,15.6z"/>
	<path class="st4" d="M19,24L19,24C19,24,19,24,19,24L19,24z"/>
	<path id="Path_1609" class="st4" d="M18.3,19.4c0,0.1,0,0.2-0.1,0.3c0,0.2,0,0.3-0.1,0.5c0-0.2,0.1-0.4,0.1-0.5
		C18.3,19.5,18.3,19.4,18.3,19.4z"/>
	<path class="st0" d="M2.4,13.8C2.4,13.9,2.4,13.9,2.4,13.8l4.3,1.3c0,0.1,0,0.3,0,0.4c0,0,0,0,0,0v0.1l-5.1-0.1
		C1.7,15,2,14.4,2.4,13.8C2.4,13.9,2.4,13.8,2.4,13.8z"/>
	<path id="Path_1611" class="st1" d="M7.6,15.6L7.6,15.6z"/>
	<path class="st5" d="M10.4,7.3c0.1,0,0.1,0.1,0.1,0.1l0,0l0,0C10.5,7.4,10.4,7.4,10.4,7.3L10.4,7.3z"/>
	<polygon class="st5" points="10.4,7.3 10.4,7.3 10.4,7.3 	"/>
	<path class="st5" d="M10.3,7.2C10.3,7.2,10.3,7.3,10.3,7.2L10.3,7.2L10.3,7.2C10.3,7.3,10.3,7.3,10.3,7.2z"/>
	<path class="st2" d="M4,7.4c-5.3,2.7-3.8,5.8-3.8,5.8c0.2,0.1,0.4,0.2,0.6,0.2l1.6,0.5c0,0,0,0,0,0c0,0,0,0,0,0
		c1-1.5,2.3-2.8,3.9-3.6c0.6-0.4,1.2-0.7,1.8-0.9c1.2-0.4,2.6-0.4,3.9,0c-0.2-0.2-0.4-0.4-0.6-0.7c-0.1-0.1-0.2-0.3-0.3-0.4h0v0h0
		c0,0,0-0.1-0.1-0.1c0,0,0-0.1-0.1-0.1c0,0,0,0,0,0c-0.1-0.1-0.2-0.3-0.4-0.4l0,0c0-0.1-0.1-0.1-0.1-0.1v0h0v0l0,0c0,0,0,0-0.1-0.1
		C9.3,6.5,7.3,5.7,4,7.4z M11,8.2c-0.1,0-0.2,0-0.3,0c-0.1,0-0.2-0.1-0.2-0.1C10.7,8.1,10.9,8.1,11,8.2z"/>
	<path class="st3" d="M11.4,8.6c0.3,0.2,0.6,0.5,0.8,0.7c-0.1,0-0.1,0-0.1,0h0v0l0,0v0C11.8,9.1,11.6,8.8,11.4,8.6z"/>
	<path id="Path_1615" class="st4" d="M13.5,10.4c-0.1-0.1-0.2-0.1-0.3-0.2c0.2,0,0.4,0,0.6,0L13.5,10.4z"/>
	<path class="st4" d="M12,9.3L12,9.3L12,9.3c0.4,0.4,0.7,0.7,1.1,0.9c-0.6,0-1.1,0.1-1.6,0.2c-0.5,0.1-0.9,0.2-1.3,0.4
		c-0.2,0.1-0.4,0.2-0.6,0.2c-0.3,0.2-0.6,0.4-0.9,0.6c-1.2,0.9-1.8,2.2-2,3c0,0.2-0.1,0.4-0.1,0.5l-4.3-1.2c0,0,0,0,0,0c0,0,0,0,0,0
		c1-1.5,2.3-2.8,3.9-3.6c0.6-0.4,1.2-0.7,1.8-0.9C9.4,8.9,10.7,8.9,12,9.3z"/>
	<path id="Path_1617" class="st4" d="M12.2,9.3c-0.1,0-0.1,0-0.1,0L12,9.3C12.1,9.3,12.2,9.3,12.2,9.3z"/>
	<path class="st4" d="M19,7.2L19,7.2L19,7.2L19,7.2C19,7.2,19,7.2,19,7.2z"/>
	<path class="st4" d="M12.1,0c6.7,0,7.1,6.7,7.1,6.7l0,0.1C19.1,6.9,19.1,7,19,7.2c-1.1-1.5-2.6-2.6-4.3-3.3
		c-2.7-1.2-6.4,0.3-6.4,0.7c0,0.1,0,0.1,0.1,0.2C7.9,4.4,6.8,3.3,7.1,2.2C7.5,0.8,9.9,0,12.1,0z"/>
	<path class="st5" d="M19,7.2L19,7.2L19,7.2L19,7.2C19,7.2,19,7.2,19,7.2z"/>
	<polygon class="st5" points="18.8,7.6 18.8,7.6 18.8,7.6 	"/>
	<path class="st5" d="M18.7,7.6C18.7,7.6,18.7,7.6,18.7,7.6L18.7,7.6C18.7,7.6,18.7,7.6,18.7,7.6z"/>
	<path class="st5" d="M18.4,7.2C18.4,7.2,18.4,7.2,18.4,7.2L18.4,7.2C18.4,7.2,18.4,7.2,18.4,7.2z"/>
	<path class="st5" d="M8.4,4.8L8.4,4.8c0.1,0.1,0.2,0.1,0.2,0.1h0C8.5,4.9,8.4,4.9,8.4,4.8z"/>
	<path class="st5" d="M9.2,4.6C9.2,4.6,9.1,4.6,9.2,4.6C9.1,4.6,9.1,4.6,9,4.6C9.1,4.6,9.1,4.6,9.2,4.6C9.1,4.6,9.2,4.6,9.2,4.6z"/>
	<path class="st5" d="M9.5,4.5C9.5,4.5,9.4,4.5,9.5,4.5C9.4,4.5,9.3,4.5,9.2,4.6h0l0,0C9.3,4.5,9.4,4.5,9.5,4.5
		C9.4,4.5,9.5,4.5,9.5,4.5z"/>
	<path class="st2" d="M8.3,4.6c0,0.1,0,0.1,0.1,0.2v0h0c0.1,0.1,0.1,0.1,0.1,0.1c0.4,0.9,1,1.7,1.8,2.3c0,0,0,0,0.1,0l0,0l0,0
		c0.1,0,0.1,0.1,0.1,0.1l0,0c0.1,0.1,0.2,0.2,0.2,0.2c-0.1-0.1-0.1-0.2-0.1-0.3c0-0.1,0-0.2,0.1-0.2c0,0,0.1-0.1,0.1-0.1
		c0,0,0,0,0.1,0c0,0,0,0,0,0v0c0.2,0,0.4-0.1,0.6-0.1c0.2,0,0.4-0.1,0.6-0.1c0.6-0.1,1.2-0.1,1.7,0c0,0,0.1,0,0.1,0
		c0.2,0,0.4,0,0.5,0.1h0c0.6,0.1,1.1,0.3,1.5,0.6c0.4,0.3,0.8,0.6,1,0.9c0.6,0.7,0.9,1.6,1.1,2.2c0,0,0,0,0,0c0-0.2,0-0.4,0-0.7
		c0,0,0,0,0,0c0-0.2,0-0.3,0.1-0.5c0-0.2,0-0.4,0.1-0.5c0.1-0.4,0.2-0.8,0.4-1.2v0h0v0h0c0,0,0,0,0,0c0,0,0,0,0,0l0,0c0,0,0,0,0,0
		c0.1-0.2,0.1-0.3,0.2-0.4c0,0,0,0,0,0v0c-1.1-1.5-2.6-2.6-4.3-3.3C11.9,2.7,8.2,4.2,8.3,4.6z M18.4,7.3L18.4,7.3
		C18.4,7.2,18.4,7.2,18.4,7.3C18.4,7.2,18.4,7.2,18.4,7.3z M9.5,4.5C9.5,4.5,9.4,4.5,9.5,4.5c-0.1,0-0.2,0.1-0.3,0.1h0
		c0,0-0.1,0-0.1,0c0,0,0,0-0.1,0c0,0,0,0,0.1,0c0,0,0.1,0,0.1,0l0,0C9.3,4.5,9.4,4.5,9.5,4.5C9.4,4.5,9.5,4.5,9.5,4.5
		c0,0,0.1,0,0.1,0C9.6,4.4,9.5,4.5,9.5,4.5z"/>
	<path class="st3" d="M18.2,10c0,0.2,0,0.3,0,0.5v0.1h0C18.2,10.4,18.2,10.2,18.2,10z"/>
	<polygon class="st3" points="18.8,7.6 18.8,7.6 18.8,7.6 	"/>
	<path class="st3" d="M18.7,7.6C18.7,7.6,18.7,7.6,18.7,7.6L18.7,7.6C18.7,7.6,18.7,7.6,18.7,7.6z"/>
	<path class="st3" d="M10.4,7.3c0.1,0,0.1,0.1,0.1,0.1l0,0l0,0C10.5,7.4,10.4,7.4,10.4,7.3L10.4,7.3z"/>
	<polygon class="st3" points="10.4,7.3 10.4,7.3 10.4,7.3 	"/>
	<path class="st3" d="M10.3,7.2C10.3,7.2,10.3,7.3,10.3,7.2L10.3,7.2L10.3,7.2C10.3,7.3,10.3,7.3,10.3,7.2z"/>
	<path class="st3" d="M18.4,7.2C18.4,7.2,18.4,7.2,18.4,7.2L18.4,7.2C18.4,7.2,18.4,7.2,18.4,7.2z"/>
	<path id="Path_1623" class="st3" d="M10.5,7.4c0,0-0.1-0.1-0.1-0.1C10.4,7.4,10.5,7.4,10.5,7.4z"/>
	<path class="st4" d="M13.9,6.7c0,0,0.1,0,0.1,0c0.2,0,0.4,0,0.5,0.1h0c0.6,0.1,1.1,0.4,1.5,0.6c0.4,0.3,0.8,0.6,1,0.9
		c0.6,0.7,0.9,1.6,1.1,2.2v0c0,0.1,0,0.2,0.1,0.3c0,0,0,0,0,0c0,0,0,0,0,0V11c0,0,0,0,0,0c0,0.1,0,0.1,0,0.2l0,0.2
		c-0.9-0.7-2.1-1.1-3.3-1.2c-0.5,0-0.9-0.1-1.3-0.1h0c-0.2,0-0.4,0-0.6,0c-0.4-0.2-0.7-0.5-1.1-0.9c0,0,0.1,0,0.1,0
		c-0.2-0.3-0.5-0.5-0.8-0.7c-0.1-0.1-0.2-0.3-0.3-0.4l0,0v0c0,0-0.1-0.1-0.1-0.1c0,0,0-0.1-0.1-0.1c0,0,0,0,0,0
		c-0.1-0.1-0.1-0.2-0.2-0.2c-0.1-0.1-0.1-0.2-0.1-0.3c0-0.1,0-0.2,0.1-0.2c0,0,0.1-0.1,0.1-0.1c0,0,0,0,0.1,0c0,0,0,0,0,0
		c0.2,0,0.4-0.1,0.6-0.1c0.2,0,0.4-0.1,0.6-0.1C12.8,6.7,13.4,6.7,13.9,6.7z"/>
	<path class="st4" d="M11.4,8.6c0.3,0.2,0.6,0.5,0.8,0.7c-0.1,0-0.1,0-0.1,0h0v0l0,0v0C11.8,9.1,11.6,8.8,11.4,8.6z"/>
	<path id="Path_1627" class="st4" d="M13.5,10.4c-0.1-0.1-0.2-0.1-0.3-0.2c0.2,0,0.4,0,0.6,0L13.5,10.4z"/>
	<path id="Path_1628" class="st4" d="M18.3,11.7c0-0.1,0-0.2-0.1-0.3c0-0.2,0-0.3-0.1-0.5c0,0.2,0.1,0.4,0.1,0.5
		C18.3,11.6,18.3,11.7,18.3,11.7z"/>
	<path id="Path_1629" class="st6" d="M16,12.9c-5.2-0.9-5.6,2.4-5.6,2.8H6.7c0-0.2,0-0.3,0.1-0.5l0,0c0-0.2,0.1-0.3,0.1-0.6
		c0.4-1.5,1.7-4.2,6.3-4.4c0.1,0.1,0.2,0.1,0.3,0.2l0.3-0.2c0.4,0,0.8,0,1.3,0.1c1.2,0.1,2.3,0.5,3.3,1.2c0,0.1,0,0.2,0.1,0.3
		c0.2,1.3,0.6,2.5,1.2,3.7c0,0.1,0,0.2,0,0.2H19C19,15.4,18.8,13.3,16,12.9z"/>
	<path id="Path_1630" class="st7" d="M13.5,10.4c-0.1-0.1-0.2-0.1-0.3-0.2c0.2,0,0.4,0,0.6,0L13.5,10.4z"/>
	<path id="Path_1631" class="st7" d="M18.3,11.7c0-0.1,0-0.2-0.1-0.3c0,0,0,0,0,0C18.3,11.6,18.3,11.7,18.3,11.7z"/>
	<path class="st7" d="M14.4,12.7c0.5,0,1,0,1.6,0.1c2.5,0.4,2.9,2.1,3,2.7v0c0,0,0,0,0,0c0,0,0,0,0,0.1h-0.9c0,0,0,0,0,0
		c0,0,0,0-0.1-0.1c0,0,0,0,0,0c-0.5-0.4-2.5-1.6-4,0c0,0,0,0,0,0c0,0-0.1,0.1-0.1,0.1h-3.5c0,0,0,0,0-0.1v0c0,0,0,0,0,0
		c0-0.2,0.1-0.5,0.3-0.9c0-0.1,0.1-0.2,0.1-0.3c0.1-0.1,0.1-0.2,0.2-0.3c0,0,0.1-0.1,0.1-0.1c0,0,0.1-0.1,0.1-0.1
		c0.1-0.1,0.2-0.2,0.3-0.2c0,0,0,0,0,0c0.1-0.1,0.2-0.2,0.3-0.2c0.1-0.1,0.2-0.1,0.4-0.2c0,0,0,0,0,0c0.1-0.1,0.3-0.1,0.4-0.2h0
		c0.2-0.1,0.3-0.1,0.5-0.1c0.2,0,0.4-0.1,0.6-0.1C13.9,12.7,14.1,12.7,14.4,12.7z"/>
	<path class="st0" d="M26.5,9.1c0.8,0.3,1.3,1.2,1.3,2c0,4-5.2,4.4-6.3,4.4c0,0,0,0,0,0h0c0,0,0,0,0,0c0,0,0,0,0,0
		c0.1,0,0.1,0,0.2-0.1c0,0,0,0,0,0c0.2-0.1,0.4-0.2,0.6-0.3c1.2-0.7,2.1-1.8,2.5-3.1C25.5,9.6,26.5,9.1,26.5,9.1z"/>
	<path class="st5" d="M22.2,15.1c-0.2,0.2-0.5,0.3-0.7,0.4c0,0,0,0,0,0h0c0,0,0.1-0.1,0.1-0.1c0,0,0,0,0,0
		C21.8,15.3,22,15.2,22.2,15.1z"/>
	<path class="st5" d="M21.5,4c0,0,0.1,0.1,0.1,0.1l0,0l0,0C21.6,4.1,21.5,4,21.5,4z"/>
	<path class="st5" d="M20.7,3.5C20.7,3.6,20.7,3.6,20.7,3.5C20.8,3.6,20.8,3.6,20.7,3.5C20.8,3.6,20.8,3.6,20.7,3.5
		C20.7,3.6,20.7,3.6,20.7,3.5z"/>
	<path class="st5" d="M19.5,3.2C19.5,3.2,19.5,3.2,19.5,3.2C19.6,3.2,19.6,3.2,19.5,3.2C19.6,3.3,19.6,3.3,19.5,3.2
		C19.6,3.2,19.5,3.2,19.5,3.2C19.5,3.2,19.5,3.2,19.5,3.2z"/>
	<path class="st3" d="M19.6,3.3L19.6,3.3L19.6,3.3C19.5,3.2,19.6,3.2,19.6,3.3z"/>
	<path class="st2" d="M19.4,3.2L19.4,3.2L19.4,3.2C19.3,3.2,19.3,3.2,19.4,3.2c-0.2,0.2-0.9,1.2,0.3,3.6c1,0.7,1.7,1.7,2,2.9
		c1,4.2-0.3,5.5-1.2,5.9c0,0-0.1,0-0.1,0.1h1.2l0,0h0c0,0,0,0,0,0c0,0,0,0,0,0c0.1,0,0.1,0,0.2-0.1c0,0,0,0,0,0
		c0.2-0.1,0.4-0.2,0.6-0.3c1.3-0.9,2.2-2.2,2.6-3.8v0c0-0.2,0.1-0.4,0.1-0.6c0.1-0.6,0.2-1.1,0.1-1.7C25.1,6.1,21.7,1.4,19.4,3.2z
		 M21.6,4.1L21.6,4.1L21.6,4.1c0,0-0.1-0.1-0.1-0.1C21.5,4,21.6,4.1,21.6,4.1z M19.6,3.3C19.6,3.2,19.5,3.2,19.6,3.3
		C19.5,3.2,19.5,3.2,19.6,3.3C19.5,3.2,19.5,3.2,19.6,3.3C19.6,3.2,19.6,3.2,19.6,3.3C19.6,3.3,19.6,3.3,19.6,3.3z M20.7,3.6
		C20.8,3.6,20.8,3.6,20.7,3.6C20.8,3.6,20.8,3.6,20.7,3.6C20.7,3.6,20.7,3.6,20.7,3.6C20.7,3.6,20.7,3.6,20.7,3.6z"/>
	<path class="st3" d="M21.6,15.4c0,0-0.1,0.1-0.1,0.1h0c0,0,0,0,0,0c0,0,0,0,0,0C21.5,15.4,21.5,15.4,21.6,15.4z"/>
	<path class="st3" d="M21.5,4c0,0,0.1,0.1,0.1,0.1l0,0l0,0C21.6,4.1,21.5,4,21.5,4z"/>
	<path class="st3" d="M20.7,3.5C20.7,3.6,20.7,3.6,20.7,3.5C20.8,3.6,20.8,3.6,20.7,3.5C20.8,3.6,20.8,3.6,20.7,3.5
		C20.7,3.6,20.7,3.6,20.7,3.5z"/>
	<path class="st3" d="M19.5,3.2L19.5,3.2C19.6,3.2,19.6,3.2,19.5,3.2C19.6,3.3,19.6,3.3,19.5,3.2C19.6,3.2,19.5,3.2,19.5,3.2z"/>
	<path class="st3" d="M19.3,3.2L19.3,3.2L19.3,3.2C19.3,3.2,19.3,3.2,19.3,3.2C19.3,3.2,19.3,3.2,19.3,3.2
		C19.3,3.2,19.3,3.2,19.3,3.2z"/>
	<path class="st3" d="M21.6,15.4c0,0-0.1,0.1-0.1,0.2h0C21.5,15.5,21.6,15.4,21.6,15.4C21.6,15.4,21.6,15.4,21.6,15.4z"/>
	<path class="st8" d="M14.4,12.7c0.5,0,1,0,1.6,0.1c2.5,0.4,2.9,2.1,3,2.7v0c0,0,0,0,0,0c0,0,0,0,0,0.1v0h-0.9c0,0,0,0,0,0
		c0,0,0,0,0,0c0,0,0,0-0.1-0.1c0,0,0,0,0,0c-0.5-0.4-2.5-1.6-4,0c0,0,0,0,0,0c0,0-0.1,0.1-0.1,0.1c0,0,0,0,0,0h-3.5v0c0,0,0,0,0-0.1
		v0c0,0,0,0,0,0c0-0.2,0.1-0.5,0.3-0.9c0-0.1,0.1-0.2,0.1-0.3c0.1-0.1,0.1-0.2,0.2-0.3c0,0,0.1-0.1,0.1-0.1c0,0,0.1-0.1,0.1-0.1
		c0.1-0.1,0.2-0.2,0.3-0.2c0,0,0,0,0,0c0.1-0.1,0.2-0.2,0.3-0.2c0.1-0.1,0.2-0.1,0.4-0.2c0,0,0,0,0,0c0.1-0.1,0.3-0.1,0.4-0.2h0
		c0.2-0.1,0.3-0.1,0.5-0.1c0.2,0,0.4-0.1,0.6-0.1C13.9,12.7,14.1,12.7,14.4,12.7z"/>
	<path class="st5" d="M18,15.5C18,15.5,18,15.5,18,15.5c0.1,0.1,0.1,0.1,0.1,0.1c0,0,0,0,0,0c0,0,0,0,0,0c-0.6,0.4-2.6,1.7-4.2,0
		c0,0,0,0,0,0c0,0,0-0.1,0.1-0.1c0,0,0,0,0,0C15.5,13.9,17.4,15.1,18,15.5z"/>
	<path class="st5" d="M18.1,15.6C18.1,15.6,18.1,15.6,18.1,15.6L18.1,15.6C18.1,15.6,18.1,15.6,18.1,15.6z"/>
	<path class="st4" d="M19.3,6.5c0.1,0.1,0.2,0.1,0.3,0.2c1,0.7,1.7,1.7,2,2.9c1,4.2-0.3,5.5-1.2,5.9c-0.2,0.1-0.4,0.1-0.6,0.1
		c-0.1,0-0.2,0-0.3,0c0-0.1,0-0.2-0.1-0.3c-0.2-0.5-0.5-1.1-0.6-1.7c-0.1-0.2-0.1-0.5-0.2-0.7c0-0.1-0.1-0.3-0.1-0.4
		c0,0,0-0.1,0-0.1c0-0.2-0.1-0.5-0.1-0.7c0,0,0-0.1,0-0.3c0-0.1,0-0.1,0-0.2c0-0.1,0-0.1,0-0.2c0,0,0,0,0,0c0,0,0,0,0-0.1v0
		c0,0,0,0,0,0c0-0.1,0-0.2,0-0.3v0c0-0.2,0-0.4,0-0.7c0,0,0,0,0,0c0-0.2,0-0.3,0.1-0.5c0-0.2,0.1-0.4,0.1-0.5
		c0.1-0.4,0.2-0.8,0.4-1.2v0c0,0,0,0,0,0c0.1-0.2,0.1-0.3,0.2-0.4l0,0h0l0,0v0c0.1-0.2,0.2-0.3,0.2-0.4C19.3,6.6,19.3,6.5,19.3,6.5z
		"/>
	<path class="st4" d="M19,7.2L19,7.2L19,7.2L19,7.2C19,7.2,19,7.2,19,7.2z"/>
	<path id="Path_1642" class="st4" d="M18.3,11.7c0-0.1,0-0.2-0.1-0.3c0-0.2,0-0.3-0.1-0.5c0,0.2,0.1,0.4,0.1,0.5
		C18.3,11.6,18.3,11.7,18.3,11.7z"/>
</g>
</svg>
