<svg xmlns="http://www.w3.org/2000/svg" width="123.988" height="123.988" viewBox="0 0 123.988 123.988">
  <g id="Icon_feather-image" data-name="Icon feather-image" transform="translate(-1.5 -1.5)">
    <path id="Path_3597" data-name="Path 3597" d="M17.472,4.5h90.8a12.972,12.972,0,0,1,12.972,12.972v90.8a12.972,12.972,0,0,1-12.972,12.972h-90.8A12.972,12.972,0,0,1,4.5,108.274v-90.8A12.972,12.972,0,0,1,17.472,4.5Z" transform="translate(0 0)" fill="none" stroke="#1c1d1d" stroke-linecap="round" stroke-linejoin="round" stroke-width="6"/>
    <path id="Path_3598" data-name="Path 3598" d="M29.958,20.229A9.729,9.729,0,1,1,20.229,10.5,9.729,9.729,0,0,1,29.958,20.229Z" transform="translate(19.943 19.943)" fill="none" stroke="#1c1d1d" stroke-linecap="round" stroke-linejoin="round" stroke-width="6"/>
    <path id="Path_3599" data-name="Path 3599" d="M111.274,47.429,78.845,15,7.5,86.345" transform="translate(9.972 34.901)" fill="none" stroke="#1c1d1d" stroke-linecap="round" stroke-linejoin="round" stroke-width="6"/>
  </g>
</svg>
