<?xml version="1.0" encoding="utf-8"?>
<!-- Generator: Adobe Illustrator 26.3.1, SVG Export Plug-In . SVG Version: 6.00 Build 0)  -->
<svg version="1.1" id="Layer_1" xmlns="http://www.w3.org/2000/svg" xmlns:xlink="http://www.w3.org/1999/xlink" x="0px" y="0px"
	 viewBox="0 0 31.2 27.8" style="enable-background:new 0 0 31.2 27.8;" xml:space="preserve">
<style type="text/css">
	.st0{fill:#2C6A4C;}
	.st1{fill:#FDC675;}
	.st2{fill:#F9C66A;}
	.st3{fill:#ED383A;}
	.st4{fill:#B0293D;}
	.st5{fill:#ED568E;}
	.st6{fill:#F4FAE4;}
</style>
<g id="Group_216" transform="translate(184.942) rotate(90)">
	<path id="Path_1577" class="st0" d="M6.8,169.3l-5,0c0,0,0,0.6,0.8,1.7c0,0,0,0,0.1,0.1c0,0,0,0,0-0.1l4.3-1.2v0
		C6.8,169.6,6.8,169.5,6.8,169.3L6.8,169.3z"/>
	<path id="Path_1578" class="st0" d="M7.7,169.3l-0.9,0L7.7,169.3L7.7,169.3z"/>
	<g id="Group_217">
		<g id="Group_218">
			<path id="Path_1579" class="st1" d="M0.9,171.5c-0.2,0-0.4,0.1-0.6,0.2c0,0-1.4,3.1,3.8,5.7c3.3,1.7,5.3,0.9,6.2,0.1c0,0,0,0,0,0
				c0,0,0,0,0,0c0,0,0,0,0,0c0,0,0.1-0.1,0.1-0.1l0,0c0.1-0.1,0.3-0.3,0.4-0.4c0,0,0,0,0,0c0.1-0.1,0.1-0.2,0.2-0.2c0,0,0,0,0,0
				c0,0,0,0,0,0c0,0,0,0-0.1,0c-0.2,0-0.4,0.1-0.6,0.2c-1.5,0.8-3.9,1.4-6.7-0.4c-0.8-0.5-1.6-1.2-2.2-1.9c-0.4-0.5-0.7-1.1-0.8-1.7
				C0.8,172.4,0.8,171.9,0.9,171.5L0.9,171.5z"/>
			<path id="Path_1580" class="st1" d="M2.5,171l-1.6,0.5v0c-0.1,0.4-0.1,0.8-0.1,1.3c0.1,0.6,0.3,1.2,0.8,1.7
				c0.7,0.7,1.4,1.4,2.2,1.9c3,2,5.5,1.2,7,0.3c0.1,0,0.3,0,0.4-0.1c0.1-0.1,0.2-0.3,0.3-0.4c0.2-0.2,0.4-0.5,0.6-0.7
				c-1.3,0.4-3.2,0.6-5.6-0.9C6.4,174.7,4.4,173.8,2.5,171C2.6,171.1,2.6,171.1,2.5,171C2.6,171.1,2.5,171.1,2.5,171L2.5,171z"/>
		</g>
	</g>
	<path id="Path_1581" class="st2" d="M12.2,175.5c0,0-0.1,0-0.1,0c0,0,0,0-0.1,0c-0.2,0.2-0.4,0.4-0.6,0.7
		C11.7,176,12,175.8,12.2,175.5z"/>
	<path id="Path_1582" class="st3" d="M13.5,174.5c-0.1,0.1-0.2,0.1-0.3,0.2c0.2,0,0.4,0,0.6,0L13.5,174.5z"/>
	<path id="Path_1583" class="st3" d="M6.8,169.8L2.5,171c0,0,0,0,0,0.1c0,0,0,0,0,0c0,0,0,0,0,0c1.8,2.7,3.9,3.6,3.9,3.6
		c2.4,1.5,4.3,1.3,5.6,0.9c0,0,0,0,0.1,0c0.3-0.3,0.7-0.6,1.1-0.9c-4.5-0.1-5.8-2.8-6.2-4.3C6.9,170.1,6.9,170,6.8,169.8L6.8,169.8z
		"/>
	<path id="Path_1584" class="st3" d="M12.2,175.5c0,0-0.1,0-0.1,0c0,0,0,0-0.1,0C12.1,175.6,12.2,175.5,12.2,175.5z"/>
	<path id="Path_1585" class="st3" d="M18.9,177.6L18.9,177.6l-0.8,0.2c-0.9,1-1.9,1.8-3.7,2.6c-1.7,0.8-3.7,0.3-4.8-0.1
		c0,0-0.1,0-0.1,0c0,0,0,0-0.1,0c-0.1,0-0.1-0.1-0.2-0.1l0,0c0,0-0.1,0-0.1,0c0,0-0.1,0-0.1,0c-0.1-0.1-0.3-0.1-0.4-0.2c0,0,0,0,0,0
		s-0.1,0-0.1,0.1c-0.4,0.3-1.6,1.4-1.3,2.5c0.4,1.3,2.8,2.2,4.9,2.2c6.6,0,7-6.6,7-6.6l0-0.1C19.1,177.9,19,177.8,18.9,177.6
		C18.9,177.6,18.9,177.6,18.9,177.6L18.9,177.6z"/>
	<path id="Path_1586" class="st1" d="M18.7,177.2C18.7,177.2,18.7,177.2,18.7,177.2c0,0-0.1,0.2-0.3,0.4c0,0,0,0,0,0
		c-0.1,0.1-0.1,0.2-0.2,0.3l0,0c-0.9,1-1.9,1.8-3.7,2.6c-1.7,0.8-3.7,0.3-4.8-0.1c0,0-0.1,0-0.1,0c0,0,0,0-0.1,0
		c-0.1,0-0.1-0.1-0.2-0.1l0,0c0,0-0.1,0-0.1,0c0,0-0.1,0-0.1,0c-0.1-0.1-0.3-0.1-0.4-0.2c0,0,0,0,0,0c0,0-0.1,0-0.1,0.1
		c0,0.1,0,0.1-0.1,0.2c-0.1,0.3,3.6,1.8,6.3,0.6c2.1-0.9,2.6-1.2,4.3-3.2c0,0,0,0,0,0l0,0C18.8,177.5,18.8,177.4,18.7,177.2
		L18.7,177.2z"/>
	<path id="Path_1587" class="st1" d="M11,177.8c0,0-0.6-0.2-0.2-0.6c0,0-0.1,0.1-0.2,0.2l0,0c0,0-0.1,0.1-0.1,0.1c0,0,0,0,0,0
		c0,0,0,0,0,0c0,0,0,0,0,0c-0.6,0.5-1.6,1.5-1.8,2.4c0,0,0,0,0,0c0.1,0.1,0.3,0.1,0.4,0.2c0,0,0.1,0,0.1,0c0,0,0.1,0,0.1,0l0,0
		c0.1,0,0.1,0.1,0.2,0.1c0,0,0,0,0.1,0c0,0,0.1,0,0.1,0c1.2,0.4,3.1,0.8,4.8,0.1c1.8-0.8,2.8-1.6,3.7-2.6l0,0
		c0.1-0.1,0.2-0.2,0.2-0.3c0,0,0,0,0,0c0.1-0.1,0.2-0.2,0.3-0.3c0,0,0,0,0,0c0,0,0,0,0,0c-0.4-0.9-0.6-1.9-0.5-2.9c0,0-0.1,0-0.1,0
		C17.7,176,16.1,179.1,11,177.8L11,177.8z"/>
	<path id="Path_1588" class="st2" d="M8.6,179.9c0.1,0,0.2,0.1,0.4,0.2C8.9,180.1,8.8,180,8.6,179.9z"/>
	<path id="Path_1589" class="st2" d="M18.4,177.6c-0.1,0.1-0.1,0.2-0.2,0.3l0,0C18.2,177.7,18.3,177.7,18.4,177.6z"/>
	<path id="Path_1590" class="st2" d="M10.6,177.4c0,0-0.1,0.1-0.1,0.1C10.5,177.5,10.5,177.4,10.6,177.4z"/>
	<path id="Path_1591" class="st3" d="M13.7,174.7c-0.2,0-0.4,0-0.6,0c-0.4,0.3-0.7,0.5-1.1,0.9c0,0,0.1,0,0.1,0
		c-0.2,0.3-0.5,0.5-0.8,0.7c-0.1,0.2-0.2,0.3-0.3,0.4c0,0,0,0,0,0c0,0,0,0,0,0c-0.1,0.1-0.1,0.2-0.2,0.2c0,0,0,0,0,0
		c-0.1,0.1-0.1,0.2-0.2,0.3l0,0c-0.3,0.4,0.2,0.6,0.2,0.6c5.1,1.3,6.7-1.8,7.1-3.6c0-0.1,0.1-0.2,0.1-0.3c0-0.2,0-0.3,0.1-0.5
		c-0.7,0.6-1.7,1-3.2,1.2C14.6,174.7,14.1,174.7,13.7,174.7L13.7,174.7z"/>
	<path id="Path_1592" class="st3" d="M11.1,176.7c-0.1,0.1-0.1,0.2-0.2,0.2C11,176.9,11.1,176.8,11.1,176.7z"/>
	<path id="Path_1593" class="st3" d="M12.2,175.5c0,0-0.1,0-0.1,0c0,0,0,0-0.1,0c-0.2,0.2-0.4,0.4-0.6,0.7
		C11.7,176,12,175.8,12.2,175.5z"/>
	<path id="Path_1594" class="st3" d="M13.5,174.5c-0.1,0.1-0.2,0.1-0.3,0.2c0.2,0,0.4,0,0.6,0L13.5,174.5z"/>
	<path id="Path_1595" class="st3" d="M18.3,173.2c0,0.1,0,0.2,0,0.3c0,0.2,0,0.3-0.1,0.5c0-0.2,0.1-0.4,0.1-0.5
		C18.3,173.3,18.3,173.2,18.3,173.2z"/>
	<path id="Path_1596" class="st4" d="M16,172c-5.2,0.9-5.5-2.4-5.6-2.7H6.8c0,0.2,0,0.3,0,0.5v0c0,0.2,0.1,0.3,0.1,0.5
		c0.4,1.5,1.7,4.2,6.2,4.3c0.1-0.1,0.2-0.1,0.3-0.2l0.3,0.2c0.4,0,0.8,0,1.3-0.1c1.5-0.2,2.5-0.6,3.2-1.2c0-0.1,0-0.2,0-0.3
		c0.4-2.2,1-3.3,1.2-3.7c0-0.1,0-0.2,0-0.2h-0.5C18.9,169.6,18.7,171.6,16,172z"/>
	<path id="Path_1597" class="st4" d="M13.5,174.5c-0.1,0.1-0.2,0.1-0.3,0.2c0.2,0,0.4,0,0.6,0L13.5,174.5z"/>
	<path id="Path_1598" class="st4" d="M18.3,173.2c0,0.1,0,0.2,0,0.3c0,0,0,0,0,0C18.3,173.3,18.3,173.2,18.3,173.2z"/>
	<path id="Path_1599" class="st4" d="M18.9,169.3h-8.5c0,0.3,0.4,3.6,5.6,2.7C18.7,171.6,18.9,169.6,18.9,169.3z"/>
	<path id="Path_1600" class="st0" d="M21.3,169.5C21.3,169.5,21.3,169.4,21.3,169.5C21.3,169.4,21.3,169.4,21.3,169.5
		c1,0,6.3,0.2,6.3,4.3c0,0.9-0.5,1.7-1.3,2c0,0-1-0.5-1.8-2.8C24.1,171.4,22.9,170.1,21.3,169.5z"/>
	<path id="Path_1601" class="st1" d="M21.4,169.4c1.8,2,2.5,3.7,2.7,5c0,0,0,0,0,0c0,0.2,0,0.3,0,0.5l0,0.1c0,0,0,0.1,0,0.1
		c0,0.2,0,0.4,0,0.5c-0.1,1.4-0.8,3.6-2.5,4.9c0,0,0,0-0.1,0.1l0,0c0,0,0,0,0,0c0,0-0.1,0.1-0.1,0.1c0,0,0,0-0.1,0
		c-0.2,0.1-0.4,0.2-0.6,0.3c0,0,0,0,0,0c0,0,0,0-0.1,0c0,0,0,0-0.1,0c0,0,0,0,0,0c-0.8,0.3-1.3,0.3-1.3,0.4c0,0,0,0,0,0c0,0,0,0,0,0
		c0,0,0,0,0,0c2.3,1.7,5.6-2.9,5.6-5.8c0-0.6,0-1.1-0.2-1.7v0c0-0.2-0.1-0.4-0.1-0.6c0,0,0,0,0,0C23.9,170.6,21.6,169.5,21.4,169.4
		C21.4,169.4,21.4,169.4,21.4,169.4C21.4,169.4,21.4,169.4,21.4,169.4C21.4,169.4,21.4,169.4,21.4,169.4
		C21.4,169.4,21.4,169.4,21.4,169.4L21.4,169.4z"/>
	<path id="Path_1602" class="st1" d="M21.4,169.4h-1.1c0,0,0.1,0,0.1,0.1c0.9,0.4,2.2,1.7,1.2,5.8c-0.4,1.7-1.4,2.5-1.9,2.9
		c-1.2,2.3-0.5,3.3-0.3,3.5c0-0.1,0.5,0,1.3-0.3c0,0,0,0,0,0c0,0,0,0,0.1,0c0,0,0,0,0.1,0c0,0,0,0,0,0c0.2-0.1,0.4-0.2,0.6-0.3
		c0,0,0,0,0.1,0c0,0,0.1-0.1,0.1-0.1c0,0,0,0,0,0l0,0c0,0,0,0,0.1-0.1c1.6-1.3,2.4-3.5,2.5-4.9c0-0.2,0-0.4,0-0.5c0,0,0-0.1,0-0.1
		l0-0.1c0-0.2,0-0.3,0-0.5c0,0,0,0,0,0C23.9,173.1,23.1,171.4,21.4,169.4z"/>
	<path id="Path_1603" class="st2" d="M19.3,181.6c0.4-0.1,0.9-0.2,1.3-0.4C19.8,181.6,19.2,181.5,19.3,181.6
		C19.3,181.6,19.3,181.6,19.3,181.6C19.3,181.6,19.3,181.6,19.3,181.6C19.3,181.6,19.3,181.6,19.3,181.6z"/>
	<path id="Path_1604" class="st2" d="M21.4,169.4c1.8,2,2.5,3.7,2.7,5C23.7,171.4,21.5,169.5,21.4,169.4
		C21.4,169.4,21.4,169.4,21.4,169.4z"/>
	<path id="Path_1605" class="st5" d="M18.9,169.3h-8.5c0,0,0,0,0,0c0,0.3,0.4,3.6,5.6,2.7C18.7,171.6,18.9,169.6,18.9,169.3
		C18.9,169.3,18.9,169.3,18.9,169.3z"/>
	<path id="Path_1606" class="st6" d="M18.2,169.3c0,0-2.5,2.2-4.5,0H18.2z"/>
	<path id="Path_1607" class="st3" d="M19.4,169.3c0,0.1,0,0.2-0.1,0.3c-0.2,0.4-0.6,1.3-1.1,3.5c0,0,0,0.1,0,0.3
		c0,0.1,0,0.3-0.1,0.5c0,0.1,0,0.2,0,0.3c0,1,0.2,2,0.5,2.9c0,0,0,0,0,0c0.1,0.2,0.1,0.3,0.2,0.4l0,0c0,0,0,0,0,0
		c0.1,0.2,0.2,0.3,0.2,0.4c0.1,0.2,0.1,0.2,0.1,0.2c0.1-0.1,0.2-0.1,0.3-0.2c0.5-0.3,1.5-1.2,1.9-2.9c1-4.1-0.3-5.4-1.2-5.8
		C20,169.3,19.7,169.3,19.4,169.3L19.4,169.3z"/>
	<path id="Path_1608" class="st3" d="M18.9,177.6L18.9,177.6C18.9,177.6,18.9,177.6,18.9,177.6C18.9,177.6,18.9,177.6,18.9,177.6z"
		/>
	<path id="Path_1609" class="st3" d="M18.3,173.2c0,0.1,0,0.2,0,0.3c0,0.2,0,0.3-0.1,0.5c0-0.2,0.1-0.4,0.1-0.5
		C18.3,173.3,18.3,173.2,18.3,173.2z"/>
	<path id="Path_1610" class="st0" d="M6.8,169.4l-5,0c0,0,0-0.6,0.8-1.7c0,0,0,0,0.1-0.1c0,0,0,0,0,0.1l4.3,1.2v0
		C6.8,169,6.8,169.2,6.8,169.4z"/>
	<path id="Path_1611" class="st0" d="M7.7,169.4l-0.9,0L7.7,169.4L7.7,169.4z"/>
	<path id="Path_1612" class="st1" d="M0.9,167.2c-0.2,0-0.4-0.1-0.6-0.2c0,0-1.4-3.1,3.8-5.7c3.3-1.7,5.3-0.9,6.2-0.1c0,0,0,0,0,0
		c0,0,0,0,0,0c0,0,0,0,0,0c0,0,0.1,0.1,0.1,0.1l0,0c0.1,0.1,0.3,0.3,0.4,0.4c0,0,0,0,0,0c0.1,0.1,0.1,0.2,0.2,0.2c0,0,0,0,0,0
		c0,0,0,0,0,0c0,0,0,0-0.1,0c-0.2,0-0.4-0.1-0.6-0.2c-1.5-0.8-3.9-1.4-6.7,0.4c-0.8,0.5-1.6,1.2-2.2,1.9c-0.4,0.5-0.7,1.1-0.8,1.7
		C0.8,166.3,0.8,166.8,0.9,167.2z"/>
	<path id="Path_1613" class="st1" d="M2.5,167.6l-1.6-0.5v0c-0.1-0.4-0.1-0.8-0.1-1.3c0.1-0.6,0.3-1.2,0.8-1.7
		c0.7-0.7,1.4-1.4,2.2-1.9c3-2,5.5-1.2,7-0.3c0.1,0,0.3,0,0.4,0.1c0.1,0.1,0.2,0.3,0.3,0.4c0.2,0.2,0.4,0.5,0.6,0.7
		c-1.3-0.4-3.2-0.6-5.6,0.9C6.4,164,4.4,164.9,2.5,167.6C2.6,167.6,2.6,167.6,2.5,167.6L2.5,167.6C2.6,167.6,2.6,167.6,2.5,167.6
		L2.5,167.6C2.6,167.6,2.5,167.6,2.5,167.6L2.5,167.6z"/>
	<path id="Path_1614" class="st2" d="M12.2,163.2c0,0-0.1,0-0.1,0c0,0,0,0-0.1,0c-0.2-0.2-0.4-0.4-0.6-0.7
		C11.7,162.7,12,162.9,12.2,163.2z"/>
	<path id="Path_1615" class="st3" d="M13.5,164.2c-0.1-0.1-0.2-0.1-0.3-0.2c0.2,0,0.4,0,0.6,0L13.5,164.2z"/>
	<path id="Path_1616" class="st3" d="M6.8,168.9l-4.3-1.2c0,0,0,0,0-0.1c0,0,0,0,0,0c0,0,0,0,0,0c1.8-2.7,3.9-3.6,3.9-3.6
		c2.4-1.5,4.3-1.3,5.6-0.9c0,0,0,0,0.1,0c0.3,0.3,0.7,0.6,1.1,0.9c-4.5,0.1-5.8,2.8-6.2,4.3C6.9,168.5,6.9,168.7,6.8,168.9z"/>
	<path id="Path_1617" class="st3" d="M12.2,163.2c0,0-0.1,0-0.1,0c0,0,0,0-0.1,0C12.1,163.1,12.2,163.1,12.2,163.2z"/>
	<path id="Path_1618" class="st3" d="M18.9,161.1L18.9,161.1l-0.8-0.2c-0.9-1-1.9-1.8-3.7-2.6c-1.7-0.8-3.7-0.3-4.8,0.1
		c0,0-0.1,0-0.1,0c0,0,0,0-0.1,0c-0.1,0-0.1,0.1-0.2,0.1l0,0c0,0-0.1,0-0.1,0c0,0-0.1,0-0.1,0c-0.1,0.1-0.3,0.1-0.4,0.2c0,0,0,0,0,0
		s-0.1,0-0.1-0.1c-0.4-0.3-1.6-1.4-1.3-2.5c0.4-1.3,2.8-2.2,4.9-2.2c6.6,0,7,6.6,7,6.6l0,0.1C19.1,160.7,19,160.9,18.9,161.1
		C18.9,161.1,18.9,161.1,18.9,161.1z"/>
	<path id="Path_1619" class="st1" d="M18.7,161.5C18.7,161.5,18.7,161.5,18.7,161.5c0,0-0.1-0.2-0.3-0.4c0,0,0,0,0,0
		c-0.1-0.1-0.1-0.2-0.2-0.3l0,0c-0.9-1-1.9-1.8-3.7-2.6c-1.7-0.8-3.7-0.3-4.8,0.1c0,0-0.1,0-0.1,0c0,0,0,0-0.1,0
		c-0.1,0-0.1,0.1-0.2,0.1l0,0c0,0-0.1,0-0.1,0c0,0-0.1,0-0.1,0c-0.1,0.1-0.3,0.1-0.4,0.2c0,0,0,0,0,0c0,0-0.1,0-0.1-0.1
		c0-0.1,0-0.1-0.1-0.2c-0.1-0.3,3.6-1.8,6.3-0.6c2.1,0.9,2.6,1.2,4.3,3.2c0,0,0,0,0,0l0,0C18.8,161.2,18.8,161.3,18.7,161.5
		L18.7,161.5z"/>
	<path id="Path_1620" class="st1" d="M11,160.9c0,0-0.6,0.2-0.2,0.6c0,0-0.1-0.1-0.2-0.2l0,0c0,0-0.1-0.1-0.1-0.1c0,0,0,0,0,0
		c0,0,0,0,0,0c0,0,0,0,0,0c-0.6-0.5-1.6-1.5-1.8-2.4c0,0,0,0,0,0c0.1-0.1,0.3-0.1,0.4-0.2c0,0,0.1,0,0.1,0c0,0,0.1,0,0.1,0l0,0
		c0.1,0,0.1-0.1,0.2-0.1c0,0,0,0,0.1,0c0,0,0.1,0,0.1,0c1.2-0.4,3.1-0.8,4.8-0.1c1.8,0.8,2.8,1.6,3.7,2.6l0,0
		c0.1,0.1,0.2,0.2,0.2,0.3c0,0,0,0,0,0c0.1,0.1,0.2,0.2,0.3,0.3c0,0,0,0,0,0c0,0,0,0,0,0c-0.4,0.9-0.6,1.9-0.5,2.9c0,0-0.1,0-0.1,0
		C17.7,162.7,16.2,159.6,11,160.9z"/>
	<path id="Path_1621" class="st2" d="M8.6,158.8c0.1,0,0.2-0.1,0.4-0.2C8.9,158.6,8.8,158.7,8.6,158.8z"/>
	<path id="Path_1622" class="st2" d="M18.4,161.1c-0.1-0.1-0.1-0.2-0.2-0.3l0,0C18.2,160.9,18.3,161,18.4,161.1z"/>
	<path id="Path_1623" class="st2" d="M10.6,161.3c0,0-0.1-0.1-0.1-0.1C10.5,161.2,10.5,161.3,10.6,161.3z"/>
	<path id="Path_1624" class="st3" d="M13.7,164c-0.2,0-0.4,0-0.6,0c-0.4-0.3-0.7-0.5-1.1-0.9c0,0,0.1,0,0.1,0
		c-0.2-0.3-0.5-0.5-0.8-0.7c-0.1-0.2-0.2-0.3-0.3-0.4c0,0,0,0,0,0c0,0,0,0,0,0c-0.1-0.1-0.1-0.2-0.2-0.3c0,0,0,0,0,0
		c-0.1-0.1-0.1-0.2-0.2-0.3l0,0c-0.3-0.4,0.2-0.6,0.2-0.6c5.1-1.3,6.7,1.8,7.1,3.6c0,0.1,0.1,0.2,0.1,0.3c0,0.2,0,0.3,0.1,0.5
		c-0.7-0.6-1.7-1-3.2-1.2C14.6,164,14.1,164,13.7,164z"/>
	<path id="Path_1625" class="st3" d="M11.1,162c-0.1-0.1-0.1-0.2-0.2-0.2C11,161.8,11.1,161.9,11.1,162z"/>
	<path id="Path_1626" class="st3" d="M12.2,163.2c0,0-0.1,0-0.1,0c0,0,0,0-0.1,0c-0.2-0.2-0.4-0.4-0.6-0.7
		C11.7,162.7,12,162.9,12.2,163.2z"/>
	<path id="Path_1627" class="st3" d="M13.5,164.2c-0.1-0.1-0.2-0.1-0.3-0.2c0.2,0,0.4,0,0.6,0L13.5,164.2z"/>
	<path id="Path_1628" class="st3" d="M18.3,165.5c0-0.1,0-0.2,0-0.3c0-0.2,0-0.3-0.1-0.5c0,0.2,0.1,0.4,0.1,0.5
		C18.3,165.4,18.3,165.5,18.3,165.5z"/>
	<path id="Path_1629" class="st4" d="M16,166.6c-5.2-0.9-5.5,2.4-5.6,2.7H6.8c0-0.2,0-0.3,0-0.5v0c0-0.2,0.1-0.3,0.1-0.5
		c0.4-1.5,1.7-4.2,6.2-4.3c0.1,0.1,0.2,0.1,0.3,0.2l0.3-0.2c0.4,0,0.8,0,1.3,0.1c1.5,0.2,2.5,0.6,3.2,1.2c0,0.1,0,0.2,0,0.3
		c0.4,2.2,1,3.3,1.2,3.7c0,0.1,0,0.2,0,0.2h-0.5C18.9,169.1,18.7,167.1,16,166.6z"/>
	<path id="Path_1630" class="st4" d="M13.5,164.2c-0.1-0.1-0.2-0.1-0.3-0.2c0.2,0,0.4,0,0.6,0L13.5,164.2z"/>
	<path id="Path_1631" class="st4" d="M18.3,165.5c0-0.1,0-0.2,0-0.3c0,0,0,0,0,0C18.3,165.4,18.3,165.5,18.3,165.5z"/>
	<path id="Path_1632" class="st4" d="M18.9,169.4h-8.5c0-0.3,0.4-3.6,5.6-2.7C18.7,167.1,18.9,169.1,18.9,169.4z"/>
	<path id="Path_1633" class="st0" d="M21.3,169.2C21.3,169.2,21.3,169.2,21.3,169.2C21.3,169.3,21.3,169.3,21.3,169.2
		c1,0,6.3-0.2,6.3-4.3c0-0.9-0.5-1.7-1.3-2c0,0-1,0.5-1.8,2.8C24.1,167.3,22.9,168.6,21.3,169.2z"/>
	<path id="Path_1634" class="st1" d="M21.4,169.3c1.8-2,2.5-3.7,2.7-5c0,0,0,0,0,0c0-0.2,0-0.3,0-0.5l0-0.1c0,0,0-0.1,0-0.1
		c0-0.2,0-0.4,0-0.5c-0.1-1.4-0.8-3.6-2.5-4.9c0,0,0,0-0.1-0.1l0,0c0,0,0,0,0,0c0,0-0.1-0.1-0.1-0.1c0,0,0,0-0.1,0
		c-0.2-0.1-0.4-0.2-0.6-0.3c0,0,0,0,0,0c0,0,0,0-0.1,0c0,0,0,0-0.1,0c0,0,0,0,0,0c-0.8-0.3-1.3-0.3-1.3-0.4c0,0,0,0,0,0c0,0,0,0,0,0
		c0,0,0,0,0,0c0,0,0,0,0,0c2.3-1.7,5.6,2.9,5.6,5.8c0,0.6,0,1.1-0.2,1.7v0c0,0.2-0.1,0.4-0.1,0.6c0,0,0,0,0,0
		C23.9,168.1,21.6,169.2,21.4,169.3C21.4,169.3,21.4,169.3,21.4,169.3C21.4,169.3,21.4,169.3,21.4,169.3
		C21.4,169.3,21.4,169.3,21.4,169.3C21.4,169.3,21.4,169.3,21.4,169.3z"/>
	<path id="Path_1635" class="st1" d="M21.4,169.3h-1.1c0,0,0.1,0,0.1-0.1c0.9-0.4,2.2-1.7,1.2-5.8c-0.4-1.7-1.4-2.5-1.9-2.9
		c-1.2-2.3-0.5-3.3-0.3-3.5c0,0.1,0.5,0,1.3,0.3c0,0,0,0,0,0c0,0,0,0,0.1,0c0,0,0,0,0.1,0c0,0,0,0,0,0c0.2,0.1,0.4,0.2,0.6,0.3
		c0,0,0,0,0.1,0c0,0,0.1,0.1,0.1,0.1c0,0,0,0,0,0l0,0c0,0,0,0,0.1,0.1c1.6,1.3,2.4,3.5,2.5,4.9c0,0.2,0,0.4,0,0.5c0,0,0,0.1,0,0.1
		l0,0.1c0,0.2,0,0.3,0,0.5c0,0,0,0,0,0C23.9,165.6,23.1,167.2,21.4,169.3z"/>
	<path id="Path_1636" class="st2" d="M19.3,157.1c0.4,0.1,0.9,0.2,1.3,0.4C19.8,157.1,19.2,157.2,19.3,157.1
		C19.3,157.1,19.3,157.1,19.3,157.1C19.3,157.1,19.3,157.1,19.3,157.1C19.3,157.1,19.3,157.1,19.3,157.1z"/>
	<path id="Path_1637" class="st2" d="M21.4,169.3c1.8-2,2.5-3.7,2.7-5C23.7,167.3,21.5,169.2,21.4,169.3
		C21.4,169.3,21.4,169.3,21.4,169.3z"/>
	<path id="Path_1638" class="st5" d="M18.9,169.4h-8.5c0,0,0,0,0,0c0-0.3,0.4-3.6,5.6-2.7C18.7,167.1,18.9,169.1,18.9,169.4
		C18.9,169.4,18.9,169.4,18.9,169.4z"/>
	<path id="Path_1639" class="st6" d="M18,169.4c0,0-2.2-2.2-4.2,0H18z"/>
	<path id="Path_1640" class="st3" d="M19.4,169.3c0-0.1,0-0.2-0.1-0.3c-0.2-0.4-0.6-1.3-1.1-3.5c0,0,0-0.1,0-0.3
		c0-0.1,0-0.3-0.1-0.5c0-0.1,0-0.2,0-0.3c0-1,0.2-2,0.5-2.9c0,0,0,0,0,0c0.1-0.2,0.1-0.3,0.2-0.4l0,0c0,0,0,0,0,0
		c0.1-0.2,0.2-0.3,0.2-0.4c0.1-0.2,0.1-0.2,0.1-0.2c0.1,0.1,0.2,0.1,0.3,0.2c0.5,0.3,1.5,1.2,1.9,2.9c1,4.1-0.3,5.4-1.2,5.8
		C20,169.3,19.7,169.4,19.4,169.3z"/>
	<path id="Path_1641" class="st3" d="M18.9,161.1L18.9,161.1C18.9,161.1,18.9,161.1,18.9,161.1C18.9,161.1,18.9,161.1,18.9,161.1z"
		/>
	<path id="Path_1642" class="st3" d="M18.3,165.5c0-0.1,0-0.2,0-0.3c0-0.2,0-0.3-0.1-0.5c0,0.2,0.1,0.4,0.1,0.5
		C18.3,165.4,18.3,165.5,18.3,165.5z"/>
</g>
</svg>
